<svg xmlns="http://www.w3.org/2000/svg" xmlns:xlink="http://www.w3.org/1999/xlink" viewBox="0 0 984.8 666.17"><defs><style>.cls-1{isolation:isolate;}.cls-2{mix-blend-mode:multiply;fill:url(#radial-gradient);}.cls-3{fill:url(#radial-gradient-2);}.cls-4{fill:url(#linear-gradient);}.cls-5{fill:url(#linear-gradient-2);}.cls-6{fill:url(#linear-gradient-3);}.cls-7{opacity:0.2;}.cls-8{fill:url(#linear-gradient-4);}.cls-9{fill:url(#linear-gradient-5);}.cls-10{fill:url(#linear-gradient-6);}.cls-11{fill:url(#radial-gradient-3);}.cls-12{fill:url(#radial-gradient-4);}.cls-13{fill:url(#radial-gradient-5);}.cls-14{fill:url(#radial-gradient-6);}.cls-15{fill:url(#radial-gradient-7);}.cls-16{fill:url(#radial-gradient-8);}.cls-17{fill:url(#radial-gradient-9);}.cls-18{fill:#76ddce;}.cls-19{fill:#57c6b5;}.cls-20{fill:#e51a4f;}.cls-21{fill:#d3114d;}.cls-22{fill:#ff3e6a;}.cls-23{fill:#ff80a1;}.cls-24{fill:url(#linear-gradient-7);}.cls-25{fill:#1290dd;}.cls-26{fill:#0a87c6;}.cls-27{fill:#30c0fd;}.cls-28{fill:#5fd6ff;}.cls-29{fill:#dd4b12;}.cls-30{fill:#c63c0a;}.cls-31{fill:#fd6330;}.cls-32{fill:#ff845f;}.cls-33{fill:#dd1292;}.cls-34{fill:#c60a87;}.cls-35{fill:#fd30c1;}.cls-36{fill:#ff5fd7;}.cls-37{fill:#12dd7d;}.cls-38{fill:#0ac666;}.cls-39{fill:#30fd8b;}.cls-40{fill:#5fff9f;}.cls-41{fill:#1297dd;}.cls-42{fill:#0a8cc6;}.cls-43{fill:#30c8fd;}.cls-44{fill:#5fdcff;}.cls-45{fill:#c054dd;}.cls-46{fill:#a645c6;}.cls-47{fill:#d77bfd;}.cls-48{fill:#e3abff;}.cls-49{fill:#ddb41f;}.cls-50{fill:#c69e15;}.cls-51{fill:#fdd03f;}.cls-52{fill:#ffdb6e;}</style><radialGradient id="radial-gradient" cx="670.27" cy="1043.03" r="459.02" gradientTransform="translate(-226.6 229.07) scale(1.07 0.29)" gradientUnits="userSpaceOnUse"><stop offset="0.36"/><stop offset="0.43" stop-color="#050505"/><stop offset="0.51" stop-color="#121212"/><stop offset="0.59" stop-color="#292929"/><stop offset="0.68" stop-color="#494949"/><stop offset="0.77" stop-color="#727272"/><stop offset="0.86" stop-color="#a5a5a5"/><stop offset="0.95" stop-color="#dfdfdf"/><stop offset="1" stop-color="#fff"/></radialGradient><radialGradient id="radial-gradient-2" cx="-21.01" cy="-281.06" r="1892.14" gradientTransform="translate(282.19 131.59) scale(0.57)" gradientUnits="userSpaceOnUse"><stop offset="0" stop-color="#d4b18e"/><stop offset="1" stop-color="#d7a763"/></radialGradient><linearGradient id="linear-gradient" x1="404.42" y1="475.92" x2="1195.52" y2="678.09" gradientUnits="userSpaceOnUse"><stop offset="0" stop-color="#8e5d3f"/><stop offset="1" stop-color="#552f1c"/></linearGradient><linearGradient id="linear-gradient-2" x1="401.65" y1="352.18" x2="1202.47" y2="556.84" xlink:href="#linear-gradient"/><linearGradient id="linear-gradient-3" x1="402.92" y1="226.58" x2="1203.84" y2="431.26" xlink:href="#linear-gradient"/><linearGradient id="linear-gradient-4" x1="224.51" y1="203.31" x2="1105.37" y2="510.12" gradientUnits="userSpaceOnUse"><stop offset="0" stop-color="#3d150b"/><stop offset="1" stop-color="#340d07"/></linearGradient><linearGradient id="linear-gradient-5" x1="664.54" y1="279.76" x2="746.57" y2="279.76" gradientUnits="userSpaceOnUse"><stop offset="0.1" stop-color="#76ddce"/><stop offset="1" stop-color="#51cab8"/></linearGradient><linearGradient id="linear-gradient-6" x1="244.91" y1="363.57" x2="1123.3" y2="363.57" gradientUnits="userSpaceOnUse"><stop offset="0.21" stop-color="#57c6b5"/><stop offset="0.3" stop-color="#34b4a7"/></linearGradient><radialGradient id="radial-gradient-3" cx="703.54" cy="-1820.97" r="2151.18" gradientTransform="translate(-12.73 -61.5) scale(0.98)" gradientUnits="userSpaceOnUse"><stop offset="0.75" stop-color="#d4f8eb"/><stop offset="0.83" stop-color="#d2f7ea"/><stop offset="0.88" stop-color="#caf5e9"/><stop offset="0.92" stop-color="#bcf2e5"/><stop offset="0.95" stop-color="#a9ede1"/><stop offset="0.98" stop-color="#90e7db"/><stop offset="1" stop-color="#7ee3d7"/></radialGradient><radialGradient id="radial-gradient-4" cx="642.24" cy="-1619.44" r="1933.02" gradientTransform="translate(26.76 -26.08) scale(0.95 0.88)" gradientUnits="userSpaceOnUse"><stop offset="0.87" stop-color="#abf8eb"/><stop offset="0.91" stop-color="#a6f6e9"/><stop offset="0.95" stop-color="#99f0e3"/><stop offset="0.99" stop-color="#83e5d9"/><stop offset="1" stop-color="#7ee3d7"/></radialGradient><radialGradient id="radial-gradient-5" cx="260.64" cy="350.36" r="198.9" gradientTransform="matrix(-0.72, 0, 0, 0.72, 1198.53, 53.08)" gradientUnits="userSpaceOnUse"><stop offset="0.54" stop-color="#51cab8"/><stop offset="0.68" stop-color="#57cdbc"/><stop offset="0.89" stop-color="#69d6c6"/><stop offset="1" stop-color="#76ddce"/></radialGradient><radialGradient id="radial-gradient-6" cx="341.34" cy="332.02" r="165.83" gradientTransform="matrix(-0.72, 0, 0, 0.72, 1198.53, 53.08)" gradientUnits="userSpaceOnUse"><stop offset="0.65" stop-color="#51cab8"/><stop offset="0.76" stop-color="#57cdbc"/><stop offset="0.91" stop-color="#69d6c6"/><stop offset="1" stop-color="#76ddce"/></radialGradient><radialGradient id="radial-gradient-7" cx="227.58" cy="369.44" r="198.92" gradientTransform="translate(248.71 143.56) scale(0.51)" gradientUnits="userSpaceOnUse"><stop offset="0.54" stop-color="#76ddce"/><stop offset="0.65" stop-color="#7ce0d1"/><stop offset="0.81" stop-color="#8ee9db"/><stop offset="1" stop-color="#abf8eb"/><stop offset="1" stop-color="#abf8eb"/></radialGradient><radialGradient id="radial-gradient-8" cx="645.93" cy="309.03" r="155.66" gradientTransform="matrix(1, 0, 0, 1, 0, 0)" xlink:href="#radial-gradient-7"/><radialGradient id="radial-gradient-9" cx="1011.78" cy="151.21" r="189.49" gradientTransform="matrix(-0.72, 0, 0, 0.72, 1198.53, 53.08)" gradientUnits="userSpaceOnUse"><stop offset="0.72" stop-color="#76ddce"/><stop offset="0.79" stop-color="#7ce0d1"/><stop offset="0.89" stop-color="#8ee9db"/><stop offset="1" stop-color="#abf8eb"/><stop offset="1" stop-color="#abf8eb"/></radialGradient><linearGradient id="linear-gradient-7" x1="304.38" y1="119.03" x2="433.37" y2="119.03" xlink:href="#linear-gradient-6"/></defs><g class="cls-1"><g id="Layer_1" data-name="Layer 1"><ellipse class="cls-2" cx="492.4" cy="532.59" rx="492.4" ry="133.57"/><path class="cls-3" d="M1134.62,570.2c0,53.93-213.13,118-465,118s-447-64-447-118c0-13.62-19.57-353.07-5.13-403.26,27.77-61.25,270-30,452.43-30,189.28,0,436.49-46.49,470,33.08C1154.67,205.06,1134.62,558.09,1134.62,570.2Z" transform="translate(-190.6 -50.92)"/><path class="cls-4" d="M669.54,664.38c14-.59,27.84-1.23,41.25-1.61,18.2-.5,36-2.23,54-3.2,17.86-1,35.83,2.48,53.62-.19,24.47-3.68,48.75-9.78,72.57-15.33,19.53-4.55,40-2.84,59.74-6.38,18.78-3.36,36.24-12,55.44-14.3,28.26-3.44,51-15.76,76.34-27.19,11.27-5.09,51.78-19.06,52.4-34.32.48-12,1.53-35.82,2.79-66.51-.81,19.77-54.36,36.76-68.75,43.8a110.07,110.07,0,0,1-34.11,10.61,337.44,337.44,0,0,0-35,6.49c-25.21,6.33-50.82,14.1-75.79,21.46-28.84,8.5-53.46,11.17-83.45,11.86-15.83.37-31.8,3-47.6,5a552.41,552.41,0,0,1-80.83,4.69c-13.65-.29-26.7,4.26-40.41,4-15.78-.24-31.26-4.17-47-5-31-1.58-60,1.18-90.87-5.44-13.51-2.89-26.67-5.25-40.43-6C444.1,584.41,402,573,355.09,559.22a712.17,712.17,0,0,1-75.85-27c-11.7-5-58.94-19.17-59.64-36.15,1.27,31.05,2.32,55,2.78,66.65.59,14.93,41.41,28.09,51.47,33,11.53,5.64,20.62,15.52,33,19.38,13,4.06,25.71,2.72,38.47,8.49,13.42,6.09,24.45,12.39,39.18,14.95,29.88,5.17,58.51,10.94,88.73,14.27,28.62,3.16,57.2,5,85.67,9.18C594.05,667.14,632.44,665.94,669.54,664.38Z" transform="translate(-190.6 -50.92)"/><path class="cls-5" d="M669,550a186.25,186.25,0,0,0,33-.15c26-2.81,52.08-3.93,78.12-7.27,34.63-4.45,67.73-6.71,101.64-13.65,39.83-8.14,82-8.63,121.29-17.58,20-4.56,37.78-14.53,57.14-20.34,17.73-5.32,33.41-7.3,48.57-18.3,8.37-6.08,31.35-20.46,31.79-31.18.49-12.15,1.55-36.26,2.82-67.33-.82,20.08-48.62,38.3-64.56,44.09-8,2.9-15.86,9.75-23.89,12.8-32.18,12.23-68.53,11.7-101.66,24.33-16.25,6.19-31.06,7.79-48.69,9.69-32.19,3.46-65.69,4.83-97.8,9.44-16.45,2.36-32.55.87-49,1.28-11.67.3-22.4,3.71-34.22,4.19-32.22,1.29-64.52-.3-96.74-.84-29.64-.49-60.09,4.26-89.68-2.06-7-1.49-12.48-4.78-20-5.75-22-2.84-44.24-3.39-66.23-6.84-25.33-4-54.39-8.61-78.6-17.17-22.18-7.85-48.73-8.79-70.65-17.22-17-6.56-86.68-31.67-87.64-55.19,1.28,31.41,2.35,55.63,2.81,67.44.29,7.46,45.15,36.39,52.05,39.69,15.42,7.38,33.16,8.25,49.44,13.45,34,10.85,68,18.55,101.76,28.61a346,346,0,0,0,90.41,13.77c20.93.47,41,6.77,61.82,8.5,21.87,1.83,43.71.18,65.56,1.27C648.54,548.22,658.8,549.3,669,550Z" transform="translate(-190.6 -50.92)"/><path class="cls-6" d="M670.27,423.3a76,76,0,0,0,12-.06c16.56-1.48,32.79-6.83,49.08-6.06,44.87,2.14,89.56-4.35,133.67-11.89,21.74-3.72,41.47-2.06,62.72-3.6,25.95-1.87,51.06-17.3,76.79-22,32.89-6,61.71-20.13,92.68-31.23,11.89-4.26,43.92-15.93,44.59-32.46.49-12.15,1.55-36.26,2.83-67.33-.33,7.94-21.7,20-27.3,23.48-30.27,18.64-65.48,30.38-99.58,39.68-22.81,6.23-46.06,13.45-69.55,16.51-21.64,2.82-41.26,4.32-62.21,11.55-25.91,8.94-53.08,7.25-79.93,9.45-23.72,1.94-47.19,9.15-71.45,6.39-21.08-2.4-42.49-1.14-64-1.14-60.87,0-123.61-5.46-183.32-10-12-.91-21.35-9.05-33.6-10-13.07-1-23.71-1.4-35.89-4.4-34.9-8.58-75.39-11.8-106.41-27.39-6.36-3.19-13.49-4.3-20.21-6.74-18.57-6.76-75-21.16-76-46.66,1.28,31.43,2.35,55.66,2.81,67.48.32,8,17.29,20.19,24.23,24.12,15.69,8.9,34,8.41,50.34,14.42,14.08,5.18,29.66,8.72,43.34,14.58,11.08,4.75,20,11.63,32,15.06,15.56,4.44,30.58,4.43,46,8.5,17.8,4.7,34.81,12.23,53.4,13.45,12.08.8,20.26.9,31.63,4.4a140,140,0,0,0,30.38,5.66c34,2.63,68.87,1,103,1.65C645.56,419,657.52,422.4,670.27,423.3Z" transform="translate(-190.6 -50.92)"/><g class="cls-7"><path class="cls-8" d="M1131,414.91c3.29.55,9.55-3.27,9.93-7.26,2.45-26-.12-85,1.36-104.8,1-13.18,2.15-26.35,2.69-39.56.25-6,4.11-34.54-.36-38.33-3.77-3.19-9.19-3.63-13.31-6.6-14.18-10.21-40.48-12.19-58.46-17-74.39-19.82-149.42-24.73-227.55-31.22q-21.43-1.78-42.77-2.92c-45.07,2.4-90.28,4.46-132.6,4.46-44.09,0-91.69-1.62-138.9-3.31q-67.45,3.86-134.66,10.89c-33.45,3.47-64.86,10-96.53,18.54-19,5.16-67.15,12.49-78.83,25a39.52,39.52,0,0,0-8.66,15.46c-.8,27.58-.64,195.09,2.28,222.52,1.24,11.66-.44,26,3,37.2,3.75,12.16,14.28,9.48,18.89-.42,5.58-12,5.4-33.13,5.13-46.16-.14-6.52-3.34-176.43,6.91-178.13,7.33-1.21,13,24.17,20.46,28.06,12.15,6.33,18.58,4.88,30.52,12.37,22.81,14.3,7.5,182.32,67.24,157.8,15.95-6.54,22.12-28.3,26.6-43.58,3.39-11.56,11.64-107.45,26.81-103,9,2.67,8.24,11.13,15.57,16,25.21,16.66,51.59-7.06,66.15-25.94,6-7.76,10.69-18.16,21.8-18.24,22.24-.15,31.48,22.45,40.73,38.6,11.41,19.94,13.95,81,14.52,103.56s2.36,50.92,21.46,66.12c16.74,13.31,50.52,17.79,65.27-.86,18.36-23.21,8.66-63.22,8.91-90.49.1-10.9-2.31-24.1,10.13-29.48,10.87-4.7,21.09,3.24,25.94,12.8,3.7,7.31,4.26,16.62,13.49,18.94,30.71,7.71,31.26-88.91,68.93-62.25,13.23,9.37,19.78,14.5,35.19,4.76,12.62-8,23.22-59.77,38.62-62.62,42.7-7.88,27.73,149.31,66.25,151.64,18,1.09,32.91-28.33,46.79-9.15,10.66,14.73,18.58,33.26,31.13,47.27,12.16,13.59,28.21,18.65,43.3,13.21,29.18-10.52,28.23-51,22.84-74.62-2.85-12.42-3.66-40-2.37-52.85,2.25-22.28,5.86-69.39,16.42-64.33,15.39,7.38,20.64-6.86,26-17.84,6.62-13.55,12.54-2.61,11.08,8.79-1.87,14.61-6.64,72.12-7.62,87.61C1120.25,393.46,1118.73,412.87,1131,414.91Z" transform="translate(-190.6 -50.92)"/></g><path class="cls-9" d="M1149.78,147.49c11,26.66,2,64.31-1.17,91.92-2.72,23.47-4.47,93.8,2.65,116.9,2.65,8.58,11.78,22.27,5.78,31.39-5.18,7.87-16.11,7-22.26.62-14.06-14.57,9.77-136-13.54-136.36-11.94-.21-8.88,13.63-9.85,20.79s-2.21,20.63-12.68,20.93c-10.78.31-9.6-12-12.69-19.45-13.21-31.9-17.18,80.74-17.61,96.53-.7,25.37,9.56,56.35-.38,80.36-9.48,22.9-30,32.65-51.82,19.33-10.1-6.17-16.83-15-21.23-25.81-3.5-8.58-5.26-26.19-14.19-31.45-11.5-6.78-22.38,4.12-32.78,8.27-44.85,17.91-33.7-30.22-37.55-55.95-3.74-25.06-29.19-107.09-50.36-97.12C837.53,279,825.49,350,795.63,343c-10-2.32-19.81-14-31.16-10.78-22.3,6.25-8.09,48-36.48,48.38-21.49.29-31.23-63-52.94-25.33-8.88,15.43-3.1,35.85-1.94,52.38,1.48,21,2.57,47-6.13,66.61-17,38.3-60,24.78-78.47-4-23.06-36,7.48-126.36-21.81-162.17-13.71-16.76-29.82-38.39-54.41-32.66-17.58,4.1-27.57,21.11-43.44,28.45-21,9.71-34.14-3.86-54.09-2.58-13.45.86-28.17,99.56-30.64,110.7-4.5,20.32-11.93,63.69-45,42-24.82-16.35.89-146.49-26.23-160.52-12.1-6.26-27.87,4.83-39.38-5-10.71-9.17-5.51-29-17.73-37.42-24.6-17-25.32,175.23-25.63,187.32-.31,12.37,1.66,78.07-24.87,50.32-9.72-10.16-3-24.25.68-35.3,16.58-49.85-15.61-272.42,12.42-312.7,11.74-16.87,60.14-26.75,79.27-33.7,31.85-11.56,63.44-20.31,97.08-25,92.45-12.84,185.06-20.27,278.38-20.27,58.08,0,115.32,1.56,173.1,8,78.57,8.74,154,15.36,228.84,42.06,18.08,6.46,44.53,9.13,58.79,22.89C1139.06,139.61,1146.33,139.16,1149.78,147.49Z" transform="translate(-190.6 -50.92)"/><path class="cls-10" d="M1145.56,375.21c-4.17-2.48-8-5.29-9.23-9.18-2.7-8.87-4.28-63.4-2.87-72.07,2.37-14.62,9.76-41.94-3.73-52.93-24.51-20-18.57,37.27-31.53,30.45-11.14-5.86-19.47-44-35.16-16.64-10.87,18.92-4.3,119.61-2.28,140.29,1.55,15.9,1.39,43.58-16.82,50.75-9.72,3.83-24.94,1.32-33.13-5-15.95-12.27-13.48-33.59-20.21-50.34-10.27-25.56-22.3,15.48-37.53,19.15-22.6,5.46-26.37-18.63-30.82-33.35-6.1-20.15-28.78-142-57.39-133.28-28.14,8.52-40.48,107.13-76.07,82.5-17.09-11.83-31.28-11.13-40.89,9-5,10.48-16.14,43.43-32.75,26.15-11.06-11.5-2.57-36.67-15.4-46.14-37-27.23-32.14,87.74-32.51,96.85-.65,16-2.23,40.47-19.63,47.64-25.42,10.49-46-13.36-51.47-34.9-8.14-32-14-103.07-18.63-135.63-2-14.07-7.5-24.84-19-33.67-19.34-14.9-43.38-1.59-57.33,14-13.49,15.07-26,29.46-47.88,29.9-16.06.33-26.91-13.08-33.29-25.71-3.73-7.37-5.76-15.48-14.67-10.37-6.6,3.78-4.79,15.43-7.15,22.08-5.52,15.49-18,120.06-27,134-12.79,19.85-34.75,16.5-41-6.11-3.28-11.87,5.16-108.78,1.61-120.37C323.47,265,294,294.44,280,279.79c-7.64-8-7.42-21.3-11.16-31.25-3.65-9.71-11.7-21.8-24.05-18.75-24.69,6.1-13.85,212.23-19,229.45-1.75,5.78-4.16,17.5-8,22.14-2.08,2.49-12.82,8-15.45,2.95a19.27,19.27,0,0,0,3,4.31c26.53,27.74,24.56-38,24.87-50.33.31-12.09,1-204.29,25.63-187.32,12.22,8.44,7,28.25,17.73,37.42,11.51,9.87,27.28-1.22,39.38,5,27.12,14,1.41,144.17,26.23,160.52,33,21.74,40.46-21.63,45-42,2.47-11.14,17.19-109.84,30.64-110.7,19.95-1.28,33.08,12.29,54.09,2.58,15.87-7.34,25.86-24.35,43.44-28.45,24.59-5.73,40.7,15.9,54.41,32.66,29.29,35.81-1.25,126.21,21.81,162.17C607,499,650,512.56,667,474.26c8.7-19.61,7.61-45.62,6.13-66.61-1.16-16.53-6.94-36.95,1.94-52.38,21.71-37.7,31.45,25.62,52.94,25.33,28.39-.39,14.18-42.13,36.48-48.38,11.35-3.18,21.19,8.46,31.16,10.78,29.86,7,41.9-64,64.47-74.61,21.17-10,46.62,72.06,50.36,97.12,4,26.94-7.08,73.77,37.55,55.95,10.4-4.15,21.28-15,32.78-8.27,8.93,5.26,10.69,22.87,14.19,31.45,4.4,10.79,11.13,19.64,21.23,25.81,21.79,13.32,42.34,3.57,51.82-19.33,9.94-24-.32-55,.38-80.36.43-15.79,4.4-128.42,17.61-96.53,3.09,7.46,1.91,19.76,12.69,19.45,10.47-.3,11.72-13.78,12.68-20.93s-2.09-21,9.85-20.79c23.31.4-.44,116.49,11.88,135.7,4.42,6.9,22.47,9.91,25.17-1C1158.67,381.9,1151.78,378.92,1145.56,375.21Z" transform="translate(-190.6 -50.92)"/><path class="cls-11" d="M1151.58,153.29c0,49.17-219.2,80.81-478.21,80.81s-459.76-31.64-459.76-80.81S414.36,56,673.37,56,1151.58,104.11,1151.58,153.29Z" transform="translate(-190.6 -50.92)"/><path class="cls-12" d="M744.61,212.19c-251.29-.64-446-29.69-445.83-74.06.06-20.41,41.37-40.48,110.32-56.17-113,16.43-185.2,42.85-185.28,69.84-.14,44.37,194.54,73.42,445.82,74.06,162.33.41,308.48-11.14,391.71-31.33C977.65,206.14,865.65,212.5,744.61,212.19Z" transform="translate(-190.6 -50.92)"/><path class="cls-13" d="M1038.38,442.92c22.61-5.57,21.55-40.36,21-53.2-2.81-61.94-11.82-27.48-31.42-29.73-18.63-2.15-36.81-27.88-46.09-40.32C992.17,348.2,984.38,456.23,1038.38,442.92Z" transform="translate(-190.6 -50.92)"/><path class="cls-14" d="M951.9,410c15.07-3,26.74-33.53,38.76-42.35,33-24.21-30-12.5-42.82-14.81-12.19-2.2-34.87-40.79-40.45-49.37C919.48,343.45,918.87,416.59,951.9,410Z" transform="translate(-190.6 -50.92)"/><path class="cls-15" d="M345.41,429.68c-16-3.95-15.29-28.62-14.87-37.73,2-43.92,8.38-19.48,22.27-21.08,13.22-1.52,26.11-19.77,32.69-28.58C378.17,362.52,383.7,439.11,345.41,429.68Z" transform="translate(-190.6 -50.92)"/><path class="cls-16" d="M642.17,460.28c25.72-4.45,24.52-43.13,23.86-57.42-3.2-68.92-13.45-31.38-35.75-35.38-21.19-3.8-41.87-72-52.43-86.54C589.6,313.38,580.73,470.92,642.17,460.28Z" transform="translate(-190.6 -50.92)"/><path class="cls-17" d="M518.36,250.63c-26.07,14-31.88,41.84-54,45.67-29.38,5.09-42.66-19.54-49.83-50.15Z" transform="translate(-190.6 -50.92)"/><path class="cls-18" d="M221.34,137.28a23.34,23.34,0,0,0-2.91,3.34A43.67,43.67,0,0,1,221.34,137.28Z" transform="translate(-190.6 -50.92)"/><path class="cls-19" d="M908.56,96c-5.13,6.9-11.19,16.51-11.18,20.15,0,2.79,11.79,6.44,15.46,9.6-13.07-6.13-38.22-25.28-43.6-15.8-4.11,7.24-14.6,9.27-14.42,13s2.25,13.2,13,20c31.61,20,87.46,24.66,104,18.45,8.53-4.95,12-14.45,11.79-25.12-.15-6.42-9.76-21.32-15.95-26.86C947.7,89.93,916.14,85.75,908.56,96Z" transform="translate(-190.6 -50.92)"/><path class="cls-20" d="M908.64,89.46c-4.84,6.9-10.57,16.51-10.56,20.14,0,2.8,11.15,6.44,14.61,9.61-12.36-6.13-42-27.31-47.13-17.82-3.87,7.24-8,16.55-7.8,20.31s5.81,11,12.1,15.2c26.6,17.56,94.59,24.81,100.48,20.47,4.35-4.5,9.54-16.94,9.31-27.61-.14-6.41-3.95-11.64-3.95-16.78C956.76,93.51,915.81,79.25,908.64,89.46Z" transform="translate(-190.6 -50.92)"/><path class="cls-21" d="M975.22,110.83c-2.51-2.58-10.87-1.67-14.18-4l9.3,50.56s0,0,0,0c5.74-4.5,9.54-16.94,9.31-27.61A51.27,51.27,0,0,0,975.22,110.83Z" transform="translate(-190.6 -50.92)"/><path class="cls-21" d="M886.61,109c-9.25-4.6-18.58-12.18-21.05-7.59-3.87,7.24-8,16.55-7.8,20.31s5.81,11,12.1,15.2C878.43,112,886.61,109,886.61,109Z" transform="translate(-190.6 -50.92)"/><path class="cls-22" d="M916.24,85c-10.41,2.73-11.51,10-3.55,17.31-12.36-6.13-28.65-8.86-39.06-6.13-12.07,3.17-11.66,12.47.92,20.78,26.6,17.57,80,18.56,92.35,21.15-.26-5.77,24-24-6-43.81C948.3,86,928.32,81.83,916.24,85Z" transform="translate(-190.6 -50.92)"/><path class="cls-23" d="M885.25,117.89c-12.58-8.31-13-17.61-.92-20.78a36.47,36.47,0,0,1,8.77-1c-7.16-1.22-14.1-1.29-19.47.12-12.07,3.17-11.66,12.47.92,20.78,26.6,17.57,80,18.56,92.35,21.15a2.36,2.36,0,0,1,.08-.45C946.43,135.52,907,132.22,885.25,117.89Z" transform="translate(-190.6 -50.92)"/><path class="cls-19" d="M662.53,58.73c-2.56,4.18-5.51,9.94-5.32,12,.15,1.58,7,3.05,9.26,4.66-7.73-2.81-23-12.41-25.55-6.75-2,4.32-7.82,6-7.53,8.13s2,7.38,8.41,10.69c19,9.73,50.91,9.56,60,5.19,4.6-3.25,6.1-8.82,5.42-14.87-.41-3.63-6.63-11.6-10.42-14.43C684.44,53.32,666.32,52.55,662.53,58.73Z" transform="translate(-190.6 -50.92)"/><path class="cls-20" d="M662.25,55c-2.4,4.17-5.17,9.92-5,12,.14,1.59,6.65,3.09,8.78,4.71C658.73,68.87,640.8,58.36,638.4,64c-1.84,4.3-3.69,9.8-3.4,11.93s3.86,6,7.64,8c16,8.62,55,9.27,58.09,6.51,2.24-2.77,4.55-10.1,3.88-16.14-.41-3.64-2.83-6.41-3.1-9.33C689.77,54.88,665.8,48.87,662.25,55Z" transform="translate(-190.6 -50.92)"/><path class="cls-21" d="M701.13,63.78c-1.55-1.33-6.26-.39-8.25-1.56l7.85,28.23h0c3-2.84,4.55-10.1,3.88-16.14A29.33,29.33,0,0,0,701.13,63.78Z" transform="translate(-190.6 -50.92)"/><path class="cls-21" d="M650.73,67.24c-5.48-2.14-11.17-6-12.33-3.24-1.84,4.3-3.69,9.8-3.4,11.93s3.86,6,7.64,8C646.24,69.37,650.73,67.24,650.73,67.24Z" transform="translate(-190.6 -50.92)"/><path class="cls-22" d="M666.34,52.11c-5.78,2.09-6,6.28-1.14,10-7.33-2.86-16.72-3.58-22.49-1.5-6.69,2.41-6,7.67,1.58,11.75,16,8.62,46.34,6.47,53.5,7.31-.43-3.26,12.43-14.83-5.64-24.56C684.58,51.05,673,49.7,666.34,52.11Z" transform="translate(-190.6 -50.92)"/><path class="cls-23" d="M650.41,72.36c-7.56-4.07-8.27-9.33-1.58-11.74a20.82,20.82,0,0,1,4.93-1,27.48,27.48,0,0,0-11,1.06c-6.69,2.42-6,7.67,1.58,11.75,16,8.62,46.34,6.47,53.5,7.31a1.22,1.22,0,0,1,0-.26C686,79.26,663.46,79.4,650.41,72.36Z" transform="translate(-190.6 -50.92)"/><path class="cls-24" d="M403,105.62c6.55,3-.08,7.22-14.89,10.23,17.58-1.76,34.62-4.66,41.18-1.69,7.6,3.44,7.34,11.24-25.93,16.85-42.28,7.14-95.95,4.76-98.58-2.35-2.92-4.87,9.26-18.18,48.15-23.94C373,101.76,395.42,102.18,403,105.62Z" transform="translate(-190.6 -50.92)"/><path class="cls-21" d="M400.37,96.72c6.2,2.81-3.72,8.82-17.74,11.67,16.64-1.66,32.24-14.93,36-9.24,1.16,1.76,6.58,17.38,6.9,18,1.64,3.1-7.65,6.91-23.55,9.25-40.13,5.89-77.34,3.85-94-.43-3.86-7.38-.44-18.48.67-19.47C322,94.6,396,88.74,396,88.74,398.73,92,399.87,96.5,400.37,96.72Z" transform="translate(-190.6 -50.92)"/><path class="cls-22" d="M394,87.16c5.52,2.5-.07,6.09-12.54,8.62,14.8-1.48,29.6-.89,35.12,1.61,6.4,2.89-2.1,7.25-19,9.73-35.71,5.25-77.2-.44-88.91-.65,1.89-2.59,10.41-15.21,43.16-20.06C368.68,83.91,387.56,84.27,394,87.16Z" transform="translate(-190.6 -50.92)"/><path class="cls-23" d="M351,88.64c15.58-2.31,33-2,38.9.69,2.71,1.23,2.44,2.74-.08,4.24C396,91.41,398,89,394,87.16c-6.4-2.89-25.28-3.25-42.16-.75-32.75,4.85-41.27,17.46-43.16,20.06.82,0,1.82.06,2.92.12C314,103.33,322.64,92.83,351,88.64Z" transform="translate(-190.6 -50.92)"/><path class="cls-23" d="M416.54,97.39c-5-2.27-17.72-3-31.11-1.94a68,68,0,0,1-7.13,1.83c13.65-1.36,27.31-.82,32.4,1.48,5.7,2.58-1.5,6.41-16,8.73.95-.13,1.92-.23,2.87-.37C414.44,104.64,422.94,100.28,416.54,97.39Z" transform="translate(-190.6 -50.92)"/><path class="cls-19" d="M651.17,139.05c3.56,7.3,7.5,17.29,6.85,20.66-.5,2.59-12.07,3.91-16,6.21,13.21-3.4,39.92-16.79,43.25-7,2.55,7.44,11.94,11.16,11.12,14.62s-4.4,11.87-15.6,16.3c-32.85,13-85.54,7.59-99.85-1.08-7.06-6.1-8.65-15.53-6.55-25.4,1.25-5.93,12.79-18.08,19.5-22.14C615.88,126.6,645.91,128.23,651.17,139.05Z" transform="translate(-190.6 -50.92)"/><path class="cls-21" d="M652.23,133c3.29,7.26,5,11.36,4.32,14.73-.5,2.59-9.51,9.86-13.28,12.19,12.54-3.53,43.81-18,46.88-8.3,2.33,7.4,4.5,16.76,3.69,20.23s-7.33,9.24-13.89,12c-27.78,11.66-92.19,6.49-96.91,1.42-3.24-4.93-5.89-17.39-3.8-27.26,1.25-5.93,5.7-10.12,6.6-14.89C606.83,128.33,647.36,122.25,652.23,133Z" transform="translate(-190.6 -50.92)"/><path class="cls-20" d="M586.66,141.18c2.79-2,10.39.36,13.87-1.24L583,185.25h0c-4.55-5.18-5.9-17.39-3.81-27.26A48.44,48.44,0,0,1,586.66,141.18Z" transform="translate(-190.6 -50.92)"/><path class="cls-20" d="M682,161.56c1.85,6.17,3.51,12.18,5,18.15,3.57-2.66,6.29-5.72,6.8-7.87.81-3.47-1.36-12.83-3.69-20.23-1-3.08-5.63-1.8-11.36.19C679.9,155,681,158.29,682,161.56Z" transform="translate(-190.6 -50.92)"/><path class="cls-22" d="M646,127.52c9.19,4.36,8.94,11.33.27,16.7,12.55-3.53,28.16-3.22,37.35,1.14,10.65,5.06,8.64,13.63-4.49,19.14-27.78,11.65-77.5,3.24-89.46,3.47,1.24-5.31-18.12-26.46,13.26-39.63C616,122.83,635.3,122.46,646,127.52Z" transform="translate(-190.6 -50.92)"/><path class="cls-23" d="M604.65,136.31c13.13-5.51,32.42-5.88,43.07-.82a15.88,15.88,0,0,1,4.28,2.9c1.9-3.95,0-8-6-10.87-10.65-5.06-29.94-4.69-43.07.82-21,8.83-19.26,21.23-16.18,30.06C586.18,151,589.42,142.7,604.65,136.31Z" transform="translate(-190.6 -50.92)"/><path class="cls-19" d="M1098.78,145.45c1.49,3.06,3.14,7.24,2.87,8.66-.21,1.09-5.06,1.64-6.72,2.6a102.43,102.43,0,0,1,18.12-3c3.67-.09,5,4.68,4.66,6.13a10.3,10.3,0,0,1-6.54,6.83c-13.76,5.45-35.84,3.18-41.84-.46-3-2.55-3.62-6.5-2.74-10.64.53-2.48,5.36-7.58,8.17-9.28C1084,140.23,1096.57,140.92,1098.78,145.45Z" transform="translate(-190.6 -50.92)"/><path class="cls-21" d="M1098.77,143.22c1.36,3,2.06,4.69,1.79,6.09-.21,1.07-3.94,4.07-5.5,5,5.19-1.46,18.13-7.44,19.39-3.43,1,3.06,1.87,6.93,1.53,8.36s-3,3.82-5.75,5c-11.48,4.83-38.13,2.69-40.07.59-1.35-2-2.44-7.19-1.58-11.27.52-2.46,2.36-4.19,2.73-6.16C1080,141.29,1096.76,138.77,1098.77,143.22Z" transform="translate(-190.6 -50.92)"/><path class="cls-20" d="M1071.65,146.61c1.15-.81,4.3.14,5.74-.52l-7.23,18.74h0c-1.88-2.14-2.44-7.19-1.58-11.27A20.07,20.07,0,0,1,1071.65,146.61Z" transform="translate(-190.6 -50.92)"/><path class="cls-20" d="M1111.1,155c.77,2.56,1.45,5,2.07,7.51a7.43,7.43,0,0,0,2.81-3.26c.34-1.43-.56-5.3-1.53-8.36-.4-1.28-2.33-.75-4.69.07C1110.22,152.34,1110.67,153.68,1111.1,155Z" transform="translate(-190.6 -50.92)"/><path class="cls-22" d="M1096.17,141c3.81,1.81,3.7,4.69.12,6.91,5.19-1.46,11.64-1.33,15.44.47,4.41,2.09,3.58,5.64-1.85,7.92-11.49,4.82-32.06,1.34-37,1.43.52-2.19-7.49-10.94,5.49-16.39C1083.79,139,1091.77,138.86,1096.17,141Z" transform="translate(-190.6 -50.92)"/><path class="cls-23" d="M1079.09,144.59c5.43-2.28,13.41-2.43,17.82-.34a6.74,6.74,0,0,1,1.77,1.2c.78-1.64,0-3.3-2.51-4.5-4.4-2.09-12.38-1.94-17.81.34-8.7,3.65-8,8.78-6.69,12.43C1071.45,150.65,1072.79,147.23,1079.09,144.59Z" transform="translate(-190.6 -50.92)"/><path class="cls-19" d="M791.3,132.78c-5.21,7.08-27.21,11-49.14,8.72s-35.48-9.85-30.27-16.93,27.22-11,49.15-8.72S796.52,125.7,791.3,132.78Z" transform="translate(-190.6 -50.92)"/><path class="cls-25" d="M787.36,130.33c-5.18,5.91-18.94,10.79-45.42,8.49-19.78-1.71-29.91-7.57-28.28-15.25a26.52,26.52,0,0,1,5.68-10.89c8-9.2,46.17.24,63.77,2.06,0,0,5.08,7.58,5.46,12.49A4.22,4.22,0,0,1,787.36,130.33Z" transform="translate(-190.6 -50.92)"/><path class="cls-26" d="M769.51,112.79c-9.28-1.49-20-3.27-29.25-3.86-3.65,9.36-7.72,18.55-11.94,27.68a83.53,83.53,0,0,0,13.62,2.21c17.61,1.53,29.5-.15,37.07-3.16C775.64,128.1,772.45,120.47,769.51,112.79Z" transform="translate(-190.6 -50.92)"/><path class="cls-27" d="M782.67,119.23c-4.59,5.23-22.49,8-40,6.19s-28-7.51-23.36-12.74,22.49-8,40-6.19S787.25,114,782.67,119.23Z" transform="translate(-190.6 -50.92)"/><path class="cls-28" d="M724.82,114.87c4.19-4.78,20.54-7.31,36.52-5.66,12.55,1.3,21,4.8,22.09,8.55,1.69-4.79-8.25-9.63-24.12-11.27-17.49-1.81-35.38,1-40,6.19-3.57,4.07,2.06,8.41,13,11C725.31,121.3,722.08,118,724.82,114.87Z" transform="translate(-190.6 -50.92)"/><path class="cls-19" d="M841.61,187.16c-3.58,4.5-18,6.51-32.29,4.5S786.4,184.38,790,179.89s18-6.52,32.29-4.51S845.18,182.67,841.61,187.16Z" transform="translate(-190.6 -50.92)"/><path class="cls-29" d="M839.09,185.47c-3.52,3.72-12.62,6.58-29.85,4.44-12.86-1.59-19.33-5.66-18.08-10.63a17.12,17.12,0,0,1,4-7c5.46-5.81,30.12,1.27,41.56,2.88,0,0,3.14,5.07,3.26,8.28A2.73,2.73,0,0,1,839.09,185.47Z" transform="translate(-190.6 -50.92)"/><path class="cls-30" d="M827.87,173.59c-6-1.2-13-2.62-19-3.23-2.61,6-5.49,11.92-8.46,17.78a54.49,54.49,0,0,0,8.83,1.77c11.46,1.42,19.26.61,24.28-1.17C831.5,183.73,829.6,178.67,827.87,173.59Z" transform="translate(-190.6 -50.92)"/><path class="cls-31" d="M836.3,178.11c-3.12,3.3-14.87,4.68-26.24,3.08s-18-5.58-14.93-8.88,14.86-4.68,26.23-3.08S839.42,174.8,836.3,178.11Z" transform="translate(-190.6 -50.92)"/><path class="cls-32" d="M798.65,173.87c2.85-3,13.58-4.28,24-2.82,8.16,1.15,13.6,3.64,14.21,6.12,1.22-3.09-5.15-6.49-15.47-7.94-11.37-1.6-23.11-.23-26.23,3.08-2.43,2.57,1.14,5.54,8.19,7.49C798.81,178.07,796.78,175.84,798.65,173.87Z" transform="translate(-190.6 -50.92)"/><path class="cls-19" d="M876.09,72.74C873.42,76.1,862.61,77.6,852,76.1s-17.12-5.44-14.45-8.8,13.47-4.86,24.12-3.36S878.76,69.38,876.09,72.74Z" transform="translate(-190.6 -50.92)"/><path class="cls-33" d="M874.21,71.47c-2.64,2.79-9.43,4.92-22.31,3.33-9.61-1.2-14.44-4.24-13.51-8a12.78,12.78,0,0,1,3-5.21c4.08-4.34,22.51,1,31,2.15,0,0,2.35,3.79,2.44,6.19A2,2,0,0,1,874.21,71.47Z" transform="translate(-190.6 -50.92)"/><path class="cls-34" d="M865.82,62.6c-4.5-.9-9.69-2-14.2-2.41-2,4.5-4.1,8.9-6.32,13.28a40.53,40.53,0,0,0,6.6,1.33c8.57,1.06,14.39.45,18.14-.88C868.53,70.17,867.11,66.39,865.82,62.6Z" transform="translate(-190.6 -50.92)"/><path class="cls-35" d="M872.12,66c-2.33,2.47-11.11,3.5-19.6,2.3s-13.5-4.16-11.16-6.63,11.1-3.5,19.6-2.3S874.45,63.51,872.12,66Z" transform="translate(-190.6 -50.92)"/><path class="cls-36" d="M844,62.81c2.13-2.26,10.15-3.2,17.91-2.11,6.09.86,10.16,2.72,10.62,4.57.91-2.3-3.86-4.84-11.56-5.93-8.5-1.2-17.27-.17-19.6,2.3-1.82,1.92.85,4.14,6.12,5.6C844.11,66,842.59,64.28,844,62.81Z" transform="translate(-190.6 -50.92)"/><path class="cls-19" d="M475.67,171.51c-3.26,4.73-17.54,7.73-31.9,6.7s-23.36-5.7-20.11-10.43,17.55-7.72,31.91-6.69S478.93,166.78,475.67,171.51Z" transform="translate(-190.6 -50.92)"/><path class="cls-37" d="M473,170c-3.26,4-12.14,7.42-29.47,6.47-12.94-.71-19.68-4.33-18.77-9.37a17.27,17.27,0,0,1,3.48-7.23c5.06-6.17,30.14-.79,41.67,0,0,0,3.47,4.84,3.82,8A2.74,2.74,0,0,1,473,170Z" transform="translate(-190.6 -50.92)"/><path class="cls-38" d="M461,158.91c-6.08-.78-13.11-1.72-19.17-1.91-2.19,6.18-4.66,12.26-7.22,18.31a54.53,54.53,0,0,0,8.93,1.16c11.53.64,19.25-.7,24.13-2.83C465.35,168.78,463.11,163.86,461,158.91Z" transform="translate(-190.6 -50.92)"/><path class="cls-39" d="M469.75,162.84c-2.88,3.51-14.51,5.69-26,4.87s-18.39-4.33-15.51-7.84,14.51-5.68,26-4.86S472.64,159.34,469.75,162.84Z" transform="translate(-190.6 -50.92)"/><path class="cls-40" d="M431.91,161.19c2.63-3.21,13.25-5.2,23.71-4.45,8.22.59,13.83,2.7,14.6,5.13,1-3.16-5.59-6.12-16-6.86-11.46-.82-23.08,1.36-26,4.86-2.25,2.74,1.52,5.45,8.69,6.91C432.35,165.37,430.18,163.29,431.91,161.19Z" transform="translate(-190.6 -50.92)"/><path class="cls-19" d="M303.08,151.49c-3.26,4.73-17.54,7.73-31.91,6.7s-23.36-5.7-20.1-10.43,17.54-7.73,31.9-6.69S306.34,146.76,303.08,151.49Z" transform="translate(-190.6 -50.92)"/><path class="cls-41" d="M300.45,150c-3.26,4-12.14,7.43-29.47,6.48-13-.71-19.68-4.33-18.77-9.38a17.3,17.3,0,0,1,3.48-7.22c5.05-6.17,30.14-.79,41.66,0,0,0,3.48,4.85,3.82,8.05A2.66,2.66,0,0,1,300.45,150Z" transform="translate(-190.6 -50.92)"/><path class="cls-42" d="M288.44,138.89c-6.09-.78-13.11-1.72-19.18-1.92-2.18,6.19-4.65,12.27-7.22,18.32a54.81,54.81,0,0,0,8.94,1.16c11.53.63,19.25-.71,24.13-2.83Q291.57,146.33,288.44,138.89Z" transform="translate(-190.6 -50.92)"/><path class="cls-43" d="M297.16,142.82c-2.89,3.51-14.51,5.69-26,4.87s-18.4-4.33-15.51-7.84,14.51-5.68,26-4.86S300.05,139.32,297.16,142.82Z" transform="translate(-190.6 -50.92)"/><path class="cls-44" d="M259.31,141.17C262,138,272.57,136,283,136.72c8.22.59,13.82,2.7,14.6,5.13,1-3.16-5.59-6.12-16-6.86-11.45-.82-23.07,1.35-26,4.86-2.25,2.73,1.51,5.45,8.68,6.91C259.76,145.35,257.58,143.27,259.31,141.17Z" transform="translate(-190.6 -50.92)"/><path class="cls-19" d="M1076,120.12c-3,3.25-14.15,4-25,1.72s-17.17-6.8-14.19-10,14.16-4,25-1.73S1079,116.87,1076,120.12Z" transform="translate(-190.6 -50.92)"/><path class="cls-45" d="M1074.15,118.69c-2.9,2.66-10,4.36-23.1,1.8-9.77-1.9-14.51-5.37-13.28-9.11a13.23,13.23,0,0,1,3.41-5.12c4.49-4.16,23,2.58,31.68,4.43,0,0,2.13,4,2.05,6.51A2.1,2.1,0,0,1,1074.15,118.69Z" transform="translate(-190.6 -50.92)"/><path class="cls-46" d="M1066.18,109c-4.54-1.24-9.78-2.7-14.37-3.49-2.32,4.48-4.84,8.84-7.43,13.17a41.53,41.53,0,0,0,6.67,1.82c8.7,1.7,14.71,1.5,18.65.4C1068.42,117,1067.24,113,1066.18,109Z" transform="translate(-190.6 -50.92)"/><path class="cls-47" d="M1072.4,112.9c-2.57,2.36-11.64,2.79-20.26,1s-13.53-5.24-11-7.6,11.63-2.79,20.26-1S1075,110.54,1072.4,112.9Z" transform="translate(-190.6 -50.92)"/><path class="cls-48" d="M1043.8,107.64c2.34-2.16,10.62-2.55,18.5-.87,6.19,1.31,10.23,3.51,10.56,5.44,1.1-2.3-3.6-5.24-11.42-6.91-8.63-1.83-17.69-1.4-20.26,1-2,1.84.58,4.3,5.87,6.17C1043.69,110.87,1042.26,109.05,1043.8,107.64Z" transform="translate(-190.6 -50.92)"/><path class="cls-19" d="M584.17,124.71c-2.61,3.56-13.64,5.55-24.63,4.45s-17.81-4.89-15.2-8.45S558,115.17,569,116.27,586.77,121.16,584.17,124.71Z" transform="translate(-190.6 -50.92)"/><path class="cls-45" d="M582.18,123.49c-2.59,3-9.48,5.44-22.76,4.33-9.91-.83-15-3.76-14.2-7.61a13.28,13.28,0,0,1,2.84-5.47c4-4.62,23.14.05,32,.94,0,0,2.56,3.8,2.75,6.26A2.09,2.09,0,0,1,582.18,123.49Z" transform="translate(-190.6 -50.92)"/><path class="cls-46" d="M573.21,114.72c-4.66-.73-10-1.61-14.67-1.89-1.82,4.7-3.85,9.31-5.95,13.9a42.35,42.35,0,0,0,6.83,1.09c8.84.73,14.79-.13,18.59-1.65C576.3,122.39,574.69,118.57,573.21,114.72Z" transform="translate(-190.6 -50.92)"/><path class="cls-47" d="M579.81,117.93c-2.29,2.63-11.26,4-20,3.17s-14-3.73-11.72-6.36,11.26-4,20-3.16S582.11,115.3,579.81,117.93Z" transform="translate(-190.6 -50.92)"/><path class="cls-48" d="M550.81,115.83c2.09-2.4,10.28-3.69,18.3-2.89,6.29.63,10.54,2.37,11.09,4.26.84-2.41-4.16-4.82-12.11-5.62-8.77-.88-17.74.53-20,3.16-1.79,2.05,1,4.22,6.51,5.5C551.06,119.05,549.43,117.4,550.81,115.83Z" transform="translate(-190.6 -50.92)"/><path class="cls-19" d="M569.38,78.35c-3.28,5-18.08,8.43-33,7.68s-24.44-5.41-21.16-10.41,18.09-8.43,33.06-7.68S572.67,73.35,569.38,78.35Z" transform="translate(-190.6 -50.92)"/><path class="cls-49" d="M566.61,76.83c-3.3,4.19-12.47,8-30.53,7.39-13.48-.45-20.57-4.06-19.74-9.34a18,18,0,0,1,3.46-7.59c5.13-6.54,31.36-1.5,43.37-.9,0,0,3.72,5,4.15,8.29A2.83,2.83,0,0,1,566.61,76.83Z" transform="translate(-190.6 -50.92)"/><path class="cls-50" d="M553.87,65.56c-6.36-.68-13.69-1.5-20-1.57-2.14,6.49-4.57,12.87-7.11,19.22a56.4,56.4,0,0,0,9.32,1c12,.41,20-1.16,25.06-3.48C558.58,75.73,556.14,70.67,553.87,65.56Z" transform="translate(-190.6 -50.92)"/><path class="cls-51" d="M563,69.29c-2.9,3.74-14.93,6.36-26.87,5.85s-19.27-4-16.37-7.69,14.93-6.35,26.87-5.84S565.94,65.56,563,69.29Z" transform="translate(-190.6 -50.92)"/><path class="cls-52" d="M523.6,68.57c2.68-3.39,13.69-5.7,24.59-5.15,8.57.43,14.45,2.5,15.31,5,1-3.31-6-6.24-16.78-6.78-11.94-.6-24,1.92-26.92,5.64-2.28,2.89,1.7,5.63,9.2,7C524.16,72.92,521.85,70.8,523.6,68.57Z" transform="translate(-190.6 -50.92)"/><path class="cls-19" d="M983.52,197.41c-2.93,3.94-15.23,6.09-27.48,4.79s-19.8-5.56-16.88-9.51,15.23-6.09,27.48-4.79S986.44,193.46,983.52,197.41Z" transform="translate(-190.6 -50.92)"/><path class="cls-49" d="M981.32,196c-2.91,3.29-10.6,6-25.39,4.67-11-1-16.7-4.27-15.78-8.56a14.82,14.82,0,0,1,3.19-6.08c4.5-5.13,25.8.21,35.63,1.25,0,0,2.83,4.25,3,7A2.36,2.36,0,0,1,981.32,196Z" transform="translate(-190.6 -50.92)"/><path class="cls-50" d="M971.37,186.2c-5.18-.84-11.16-1.86-16.34-2.2-2,5.22-4.34,10.35-6.71,15.45a46.59,46.59,0,0,0,7.61,1.25c9.84.88,16.48,0,20.72-1.71Q973.83,192.66,971.37,186.2Z" transform="translate(-190.6 -50.92)"/><path class="cls-51" d="M978.73,189.69c-2.55,2.93-12.54,4.53-22.32,3.56s-15.63-4.12-13.08-7.06,12.54-4.53,22.31-3.56S981.28,186.75,978.73,189.69Z" transform="translate(-190.6 -50.92)"/><path class="cls-52" d="M946.4,187.29c2.35-2.66,11.49-4,20.41-3.1,7,.74,11.74,2.71,12.33,4.81,1-2.67-4.6-5.4-13.46-6.34-9.76-1-19.77.49-22.34,3.4-2,2.27,1.14,4.71,7.22,6.17C946.66,190.89,944.86,189,946.4,187.29Z" transform="translate(-190.6 -50.92)"/></g></g></svg>