<svg id="Layer_1" data-name="Layer 1" xmlns="http://www.w3.org/2000/svg" viewBox="0 0 861.46 642.21"><defs><style>.cls-1{fill:#e1dedc;}.cls-2{fill:#fff9d8;}.cls-3{fill:#f2da8b;}.cls-4{fill:#f0deb2;}.cls-5{fill:#3f1d02;}.cls-6{fill:#c8beb8;}.cls-7{fill:#c8b99c;}.cls-8{fill:#bca581;}.cls-9{fill:#311501;}.cls-10{fill:#ffdd7f;}.cls-11{fill:#946a27;}.cls-12{fill:#ffd168;}.cls-13{fill:#311301;}.cls-14{fill:#ffc455;}.cls-15{fill:#27110b;}.cls-16{fill:#1f0c01;}.cls-17{fill:#180a06;}.cls-18{fill:#ffeccd;}.cls-19{fill:#543624;}.cls-20{fill:#483120;}.cls-21{fill:#ffe395;}.cls-22{fill:#ffeaaf;}.cls-23{fill:#fff4d6;}</style></defs><path class="cls-1" d="M774.47,678.8a4.32,4.32,0,1,0,1.63,8.48h0a4.32,4.32,0,1,0-1.63-8.48Zm-40.21,5.39a4.32,4.32,0,0,0,1.63,8.49h0a4.32,4.32,0,1,0-1.63-8.49Zm76.91-14.8a4.32,4.32,0,1,0,1.63,8.49h0a4.32,4.32,0,0,0-1.63-8.49ZM700.73,687.47a4.32,4.32,0,1,0,1.63,8.49h0a4.32,4.32,0,1,0-1.63-8.49Zm145.73-28a4.32,4.32,0,1,0,1.63,8.49h0a4.32,4.32,0,1,0-1.63-8.49Zm-183.64,33a4.32,4.32,0,1,0,1.63,8.48h0a4.32,4.32,0,1,0-1.63-8.48Zm219.29-42.18a4.32,4.32,0,0,0,1.63,8.49h0a4.32,4.32,0,1,0-1.63-8.49ZM624.23,694.34a4.32,4.32,0,1,0,1.63,8.49h0a4.32,4.32,0,1,0-1.63-8.49Zm294.33-56.6a4.32,4.32,0,0,0,1.63,8.49h0a4.32,4.32,0,1,0-1.63-8.49ZM588,693.2a4.33,4.33,0,0,0,1.64,8.5h0a4.33,4.33,0,1,0-1.64-8.5Zm362.38-72.44a4.32,4.32,0,0,0,1.63,8.49h0a4.32,4.32,0,0,0-1.63-8.49Zm-400.2,71.46a4.32,4.32,0,0,0,1.63,8.49h0a4.32,4.32,0,1,0-1.63-8.49ZM984,603.28a4.32,4.32,0,0,0,1.64,8.49h0a4.32,4.32,0,0,0-1.64-8.49ZM513.69,691a4.32,4.32,0,1,0,1.63,8.49h0a4.32,4.32,0,1,0-1.63-8.49Zm514-106.89a19.74,19.74,0,0,1-6.9,10.07,4.85,4.85,0,0,1,.73,1.78,5.42,5.42,0,0,1-10.59,2.17,19.44,19.44,0,0,1-5.37-.17,18.94,18.94,0,0,1-5-1.6,19.28,19.28,0,0,1,.7,2.63,20,20,0,0,1-.23,8.55,18.36,18.36,0,0,0,7.31,2.79,19.59,19.59,0,0,0,6.58-.14,18.58,18.58,0,0,0,14.94-14.42,16.38,16.38,0,0,0-2.16-11.66ZM474.93,687.44a4.32,4.32,0,0,0,1.63,8.49h0a4.32,4.32,0,1,0-1.63-8.49Zm537.73-108.92a4.33,4.33,0,0,0,1.63,8.5h0a4.33,4.33,0,0,0-1.63-8.5ZM436.55,683.82a4.32,4.32,0,0,0,1.63,8.49h0a4.32,4.32,0,1,0-1.63-8.49Zm614.82-125.24a19.64,19.64,0,0,1-6,8.88,5,5,0,0,1,.65,1.65,5.44,5.44,0,0,1-10.39,2.81,19.88,19.88,0,0,1-6.25-.06,15.45,15.45,0,0,1-2.41-.61,20.14,20.14,0,0,1,1.12,3.74,19.43,19.43,0,0,1,.07,6.85,22.64,22.64,0,0,1-.52,2.23,19,19,0,0,0,4.75,1.44,19.85,19.85,0,0,0,6.58-.14A18.61,18.61,0,0,0,1054,571a16.3,16.3,0,0,0-2.59-12.37ZM397.85,675.86a4.32,4.32,0,1,0,1.64,8.48h0a4.32,4.32,0,0,0-1.64-8.48ZM1036.94,550.3a4.32,4.32,0,0,0,1.63,8.49h0a4.32,4.32,0,1,0-1.63-8.49ZM365,666.22a4.32,4.32,0,1,0,1.63,8.49h0a4.32,4.32,0,1,0-1.63-8.49Zm696.71-142.93a19.69,19.69,0,0,1-5.45,7.76,4.86,4.86,0,0,1,1.1,2.25,5.42,5.42,0,0,1-10.57,2.25,19.62,19.62,0,0,1-3.69.29,19.69,19.69,0,0,1,8.93,13c.11.58.19,1.17.25,1.76A18.36,18.36,0,0,0,1065,536.73a16.46,16.46,0,0,0-3.33-13.44Zm-733.82,133a4.32,4.32,0,0,0,1.64,8.48h0a4.32,4.32,0,1,0-1.64-8.48Zm719.93-144a4.32,4.32,0,0,0,1.64,8.49h0a4.35,4.35,0,0,0,3.44-3.47,19.09,19.09,0,0,0-2.76-.63,20.58,20.58,0,0,0-5.32,0,19.06,19.06,0,0,0,5.45-4.17,4.31,4.31,0,0,0-2.45-.24ZM295.26,641.56a4.32,4.32,0,0,0,1.63,8.49h0a4.32,4.32,0,0,0-1.63-8.49ZM1050.2,489.78a19.63,19.63,0,0,1-5.3,6.84,15.3,15.3,0,0,1,1.76.2l-.18,1.06h0l.18-1.06a19.5,19.5,0,0,1,8,3.33,16.51,16.51,0,0,0-4.51-10.37ZM300.62,669.43a5.08,5.08,0,1,1,4.35-6,5.25,5.25,0,0,1-4.35,6Zm-49.49-30.21a17.25,17.25,0,0,0-.93,3.14c-1.83,9.54,4.84,18.5,14.9,20a19.41,19.41,0,0,0,18.43-7.57l-.31,1c-1.83,9.55,4.84,18.49,14.9,20a19.4,19.4,0,0,0,18.05-7.16l1.27.48-.31,1.05c-1.83,9.52,4.84,18.48,14.89,20a19.6,19.6,0,0,0,6.54-.14,19.23,19.23,0,0,0,12.55-8.41l-.09.9c0,9.64,8.27,17.29,18.49,17.07a19.6,19.6,0,0,0,3.28-.34A19,19,0,0,0,386.28,689l-.11,1c0,9.65,8.28,17.29,18.5,17.07a19.61,19.61,0,0,0,3.29-.34,18.87,18.87,0,0,0,14-11.29l.77.13a17,17,0,0,0-.29,2.79c0,9.65,8.28,17.29,18.49,17.06a19.72,19.72,0,0,0,3.29-.35,18.51,18.51,0,0,0,14.93-14.67l2.14.23a16.36,16.36,0,0,0,.25,3.81C463.32,713.92,473,720,483,718.07a18.64,18.64,0,0,0,14.59-13.13l.08,1c1.82,9.46,11.45,15.55,21.51,13.62a18.55,18.55,0,0,0,14.81-14l.86,0a15.42,15.42,0,0,0,.2,2.43c1.82,9.46,11.45,15.56,21.51,13.62a18.38,18.38,0,0,0,15-15.55h1a16.42,16.42,0,0,0,.5,2.84c2.51,8.8,11.77,14,21.14,12.22.52-.09,1-.22,1.54-.36a18.31,18.31,0,0,0,13.39-14.19l.18,1c2.52,8.79,11.79,14,21.16,12.21.51-.1,1-.2,1.52-.34a18.2,18.2,0,0,0,13.6-16l.65,0a16.52,16.52,0,0,0,.58,3.37c2.51,8.79,11.79,14,21.17,12.22.5-.1,1-.21,1.51-.35,8.68-2.39,14.25-10.19,13.67-18.33l.88-.08a16.59,16.59,0,0,0,1.1,4.68c3.28,7.85,12,12,20.54,10.41a19.87,19.87,0,0,0,3.45-1,18,18,0,0,0,11.7-15.47l.29,1c3.28,7.84,12,12,20.55,10.4a19.62,19.62,0,0,0,3.43-1,17.77,17.77,0,0,0,11.58-18.67l.62-.11a16,16,0,0,0,1.1,4.65c3.27,7.85,12,12.05,20.53,10.41a20.23,20.23,0,0,0,3.46-1c8.8-3.43,13.39-12.42,11.11-20.8l2.06-.43a16.13,16.13,0,0,0,1.86,4.92c3.95,6.63,11.9,9.77,19.49,8.31a19.55,19.55,0,0,0,5.69-2.05,17.61,17.61,0,0,0,9.43-16.76l.43.94c4,6.63,11.91,9.75,19.5,8.3a19.57,19.57,0,0,0,5.68-2,17.38,17.38,0,0,0,9-19.42l.61-.19a16.12,16.12,0,0,0,1.65,4c4,6.63,11.91,9.76,19.52,8.29a19.4,19.4,0,0,0,5.67-2,17.66,17.66,0,0,0,9.42-16.73,14.48,14.48,0,0,0,1.23,1.6A18.89,18.89,0,0,0,922,665.79a19.4,19.4,0,0,0,8.87-4.25,17,17,0,0,0,5.5-18.17l.63.82a18.89,18.89,0,0,0,17.25,5.3,19.36,19.36,0,0,0,8.9-4.25,16.9,16.9,0,0,0,4.69-20.12l.55-.3a16.73,16.73,0,0,0,2.25,3,18.85,18.85,0,0,0,17.26,5.3,19.39,19.39,0,0,0,8.89-4.23,16.92,16.92,0,0,0,4.19-21.23,19.39,19.39,0,0,1-5.85,9.62,19.92,19.92,0,0,1-2.53,1.93c0,.12.06.23.08.34a5.24,5.24,0,0,1-4.34,6,5.32,5.32,0,0,1-6.08-3.26,19.62,19.62,0,0,1-14.55-6.18,19.46,19.46,0,0,1-6.1,18.17,20.44,20.44,0,0,1-2.74,2.06v0a5.24,5.24,0,0,1-4.34,6,5.32,5.32,0,0,1-6-3.07,19.62,19.62,0,0,1-12.69-4.64,19.52,19.52,0,0,1-6.37,16.56,20.62,20.62,0,0,1-2.45,1.87,5.28,5.28,0,0,1-4.4,5.61,5.37,5.37,0,0,1-5.72-2.48,19.61,19.61,0,0,1-14.55-5.85,19.49,19.49,0,0,1-9.79,15.48,18,18,0,0,1-2.16,1.07,5.44,5.44,0,0,1-4.3,4,5.38,5.38,0,0,1-5.79-2.62A19.64,19.64,0,0,1,866,658.91a19.47,19.47,0,0,1-9.82,16.48q-.75.42-1.53.78a5.55,5.55,0,0,1-9.69,1.72,19.67,19.67,0,0,1-14.05-7.59,19.53,19.53,0,0,1-9.74,14.83,18.46,18.46,0,0,1-1.89.94,5.56,5.56,0,0,1-9.67,1.54,19.65,19.65,0,0,1-15.23-9.85,18.3,18.3,0,0,1-1.6-3.84,19.6,19.6,0,0,1-10,20.59,5.34,5.34,0,0,1-4.38,4.45,5.41,5.41,0,0,1-5.52-2.16A19.64,19.64,0,0,1,755.5,685a19.54,19.54,0,0,1-12,15c-.34.14-.69.26-1,.38a5.39,5.39,0,0,1-4.35,4.15,5.26,5.26,0,0,1-6.17-3.57,19.72,19.72,0,0,1-12.81-9.4A19.55,19.55,0,0,1,708.9,704.3a5.57,5.57,0,0,1-9.35,2A19.64,19.64,0,0,1,682,694c-.07-.17-.14-.35-.2-.52a19.68,19.68,0,0,1-10.57,14.23,5.46,5.46,0,0,1-10.54,2,19.64,19.64,0,0,1-17-13.82,19.57,19.57,0,0,1-11.25,12.81,4.16,4.16,0,0,1,.17.63,5.41,5.41,0,0,1-10.61,2,4.54,4.54,0,0,1-.06-1.37,19.71,19.71,0,0,1-15.06-11.57,19.54,19.54,0,0,1-10.33,11.05,5.32,5.32,0,0,1-4.44,5.18,5.26,5.26,0,0,1-6.19-3.66,19.65,19.65,0,0,1-16.28-14.19h0v0a19.64,19.64,0,0,1-10.83,12.77,5.38,5.38,0,0,1-4.42,4.64,5.32,5.32,0,0,1-6-3.08,19.67,19.67,0,0,1-16.77-15.23,19.64,19.64,0,0,1-9.55,10.61,4.53,4.53,0,0,1,.29.95,5.41,5.41,0,0,1-10.61,2.05,5.63,5.63,0,0,1-.09-1,19.69,19.69,0,0,1-16.95-13.24,19.52,19.52,0,0,1-10.9,10,5.44,5.44,0,0,1-10.7,1.29,3.86,3.86,0,0,1-.06-.49,19.64,19.64,0,0,1-15.31-15.55,17.92,17.92,0,0,1-.33-3.3l-.18,0a19.72,19.72,0,0,1-11.8,14.2,1,1,0,0,1,0,.17,5.41,5.41,0,0,1-10.61,2,4.13,4.13,0,0,1-.08-1,19.74,19.74,0,0,1-16.33-18.64,19.58,19.58,0,0,1-12.11,9,4.73,4.73,0,0,1,.61,1.58,5.41,5.41,0,0,1-10.61,2,4.89,4.89,0,0,1,.72-3.59,19.68,19.68,0,0,1-14.67-15.39c-.06-.26-.1-.52-.14-.79a19.61,19.61,0,0,1-9,7,4.87,4.87,0,0,1,1,2.1,5.41,5.41,0,0,1-10.61,2,4.81,4.81,0,0,1,.38-3,19.68,19.68,0,0,1-17-15.8c-.08-.41-.14-.82-.2-1.23A19.65,19.65,0,0,1,336,674.38a4.68,4.68,0,0,1,1.38,2.54,5.41,5.41,0,0,1-10.6,2,5,5,0,0,1,1.48-4.52,19.65,19.65,0,0,1-15.7-22.11,19.7,19.7,0,0,1-11.13,6.45,19.47,19.47,0,0,1-6.9.08,19.67,19.67,0,0,1-16-15.67,19.13,19.13,0,0,1-.34-4.29,19.7,19.7,0,0,1-8,4.76,4.53,4.53,0,0,1,.52,1.43,5.41,5.41,0,0,1-10.61,2,5,5,0,0,1,.42-3.07,19.53,19.53,0,0,1-9.32-4.84Zm9.5-17.59a4.32,4.32,0,1,0,1.63,8.48h0a4.32,4.32,0,1,0-1.63-8.48Zm-35.16-6.74a17.17,17.17,0,0,0-1.41,4.22c-1.82,9.53,4.85,18.48,14.9,20a19.47,19.47,0,0,0,6.56-.14,20,20,0,0,0,4.13-1.28,19.65,19.65,0,0,1-4.41-9.12,19.54,19.54,0,0,1,1-10.94,20,20,0,0,1-4.57,1.48h-.07a4.77,4.77,0,0,1,1.41,2.58,5.41,5.41,0,0,1-10.61,2,5,5,0,0,1,1.67-4.68,19.71,19.71,0,0,1-8.62-4.15Zm7.2-18.5a4.32,4.32,0,0,0,1.63,8.49h0a4.32,4.32,0,0,0-1.63-8.49Zm-20.09-14.64a17.11,17.11,0,0,0-2.11,5.54,16.73,16.73,0,0,0,8.69,17.91c-.16-.56-.3-1.13-.41-1.71a19.8,19.8,0,0,1-.07-7,19.48,19.48,0,0,1,.86-3.3,4.82,4.82,0,0,1-1.13-2.28,5.14,5.14,0,0,1,3.17-5.64c-.29,0-.57-.07-.86-.13a19.38,19.38,0,0,1-8.14-3.39Zm5.64-20.42a4.4,4.4,0,0,0-1.06.35,16.85,16.85,0,0,0,4.79,7.08,4.31,4.31,0,0,0-3.73-7.43Zm1.33-15-.23.32c.18-.05.37-.08.55-.12l-.32-.2Z" transform="translate(-203.85 -79.84)"/><path class="cls-2" d="M1046.48,497.88a18.33,18.33,0,0,0-5.33,0,18.53,18.53,0,1,0-22.1-29.2l-.24-.24A18.52,18.52,0,1,0,989.41,446c-72-43.55-209.23-68-364.9-58.92C467.56,396.24,333.17,437,267.3,489.27a18.54,18.54,0,1,0-26,25.64l-.14.18a18.24,18.24,0,0,0-8.33-3.79,18.55,18.55,0,0,0-8.93,35.9A18.56,18.56,0,1,0,229,583.6v0a18.53,18.53,0,1,0,19.88,31.19,18.85,18.85,0,0,0-2.65,6.89,18.52,18.52,0,0,0,33.55,13.59l-.29,1.05a18.49,18.49,0,0,0,33.19,14l1.28.54-.31,1.1a18.52,18.52,0,0,0,34.2,12.56l-.08,1a18.51,18.51,0,0,0,35.43,7.39l-.1,1.09a18.51,18.51,0,0,0,35.9,6.22l.77.15a19.29,19.29,0,0,0-.26,3A18.52,18.52,0,0,0,456.34,686c.71.1,1.43.18,2.15.27a17.53,17.53,0,0,0,.3,4.06,18.51,18.51,0,0,0,36.18,1l.1,1.09a18.53,18.53,0,0,0,36.4.08l.86,0a17.53,17.53,0,0,0,.23,2.58,18.49,18.49,0,0,0,36.58-1.6h1a19,19,0,0,0,.54,3,18.51,18.51,0,0,0,36.13-2l.19,1.07a18.5,18.5,0,0,0,36.31-4l.65,0a18.12,18.12,0,0,0,.63,3.6,18.54,18.54,0,0,0,36.35-6.43l.88-.07a18.49,18.49,0,0,0,36.86-1l.31,1a18.51,18.51,0,0,0,35.53-9.41l.61-.1a18.28,18.28,0,0,0,1.17,5,18.5,18.5,0,0,0,35-11.68l2-.44a18.48,18.48,0,0,0,36.49-5.48l.45,1a18.49,18.49,0,0,0,34-13.59l.61-.18a18.08,18.08,0,0,0,1.7,4.24,18.51,18.51,0,0,0,34.56-10.7,18.93,18.93,0,0,0,1.26,1.72A18.51,18.51,0,0,0,934,631.15l.65.88a18.49,18.49,0,0,0,30.68-19.9l.55-.31a18.86,18.86,0,0,0,2.29,3.21,18.53,18.53,0,0,0,30-21.32,18.49,18.49,0,0,0,26.59-24.52,18,18,0,0,0,4.81,1.61,18.56,18.56,0,0,0,10.8-35.18l.29-1a18.57,18.57,0,0,0,5.79-36.69Zm-826.42,73a5.4,5.4,0,1,1,4.29-6.33,5.39,5.39,0,0,1-4.29,6.33Zm14.45,35.06a5.4,5.4,0,1,1,4.28-6.32,5.4,5.4,0,0,1-4.28,6.32Zm-8.67-73.69a5.4,5.4,0,1,1,4.28-6.33,5.41,5.41,0,0,1-4.28,6.33Zm36.63,98.93a5.41,5.41,0,1,1,4.28-6.33,5.41,5.41,0,0,1-4.28,6.33Zm-9.81-129.82a5.4,5.4,0,1,1,4.28-6.33,5.41,5.41,0,0,1-4.28,6.33ZM297.1,651.11a5.41,5.41,0,1,1,4.28-6.33,5.41,5.41,0,0,1-4.28,6.33Zm32.6,14.74a5.4,5.4,0,1,1,4.29-6.33,5.39,5.39,0,0,1-4.29,6.33Zm37.1,9.92a5.4,5.4,0,1,1,4.29-6.32,5.4,5.4,0,0,1-4.29,6.32Zm32.89,9.63a5.4,5.4,0,1,1,4.29-6.32,5.39,5.39,0,0,1-4.29,6.32Zm38.69,8a5.4,5.4,0,1,1,4.29-6.32,5.39,5.39,0,0,1-4.29,6.32ZM476.76,697a5.4,5.4,0,1,1,4.29-6.33,5.41,5.41,0,0,1-4.29,6.33Zm38.77,3.54a5.4,5.4,0,1,1,4.28-6.32,5.4,5.4,0,0,1-4.28,6.32ZM552,701.78a5.41,5.41,0,1,1,4.28-6.33,5.42,5.42,0,0,1-4.28,6.33Zm37.82,1a5.4,5.4,0,1,1,4.29-6.33,5.4,5.4,0,0,1-4.29,6.33Zm36.25,1.14a5.4,5.4,0,1,1,4.28-6.32,5.4,5.4,0,0,1-4.28,6.32ZM664.66,702a5.4,5.4,0,1,1,4.28-6.33,5.4,5.4,0,0,1-4.28,6.33ZM702.57,697a5.4,5.4,0,1,1,4.28-6.33,5.42,5.42,0,0,1-4.28,6.33Zm33.53-3.29a5.41,5.41,0,1,1,4.28-6.33,5.41,5.41,0,0,1-4.28,6.33Zm40.2-5.4a5.4,5.4,0,1,1,4.29-6.32,5.39,5.39,0,0,1-4.29,6.32Zm36.71-9.4a5.4,5.4,0,1,1,4.28-6.32,5.41,5.41,0,0,1-4.28,6.32ZM848.29,669a5.4,5.4,0,1,1,4.29-6.33,5.4,5.4,0,0,1-4.29,6.33ZM884,659.8a5.4,5.4,0,1,1,4.28-6.33A5.39,5.39,0,0,1,884,659.8Zm36.45-12.51a5.41,5.41,0,1,1,4.28-6.33,5.42,5.42,0,0,1-4.28,6.33Zm31.8-17a5.4,5.4,0,1,1,4.28-6.32,5.4,5.4,0,0,1-4.28,6.32Zm33.68-17.47a5.41,5.41,0,1,1,4.29-6.33,5.42,5.42,0,0,1-4.29,6.33Zm28.61-24.77a5.4,5.4,0,1,1,4.29-6.32,5.39,5.39,0,0,1-4.29,6.32ZM1008,457.19a5.4,5.4,0,1,1,4.28-6.33,5.42,5.42,0,0,1-4.28,6.33Zm30.75,102.66a5.4,5.4,0,1,1,4.28-6.33,5.41,5.41,0,0,1-4.28,6.33ZM1030.19,478a5.4,5.4,0,1,1,6.33,4.28,5.42,5.42,0,0,1-6.33-4.28Zm19.44,43.87a5.4,5.4,0,1,1,4.29-6.33,5.39,5.39,0,0,1-4.29,6.33Z" transform="translate(-203.85 -79.84)"/><path class="cls-3" d="M1046.48,497.88l.18-1.06a19.43,19.43,0,0,0-5.64-.06l.13,1.08.51,1a19.55,19.55,0,0,0,10.08-14,19.61,19.61,0,0,0-33.46-16.94l.77.74.78-.75-.24-.25-.78.76.82.71a19.6,19.6,0,1,0-31.12-23.68l.9.59.56-.93C917.62,401.36,780.27,377,624.45,386a1054.34,1054.34,0,0,0-137.06,16.82c-96.25,18.52-174.89,49.24-220.76,85.6l.67.84.89-.61a19.62,19.62,0,1,0-27.51,27.12l.63-.87-.85-.66-.14.18.85.66.67-.84a19.21,19.21,0,0,0-8.82-4,19.63,19.63,0,0,0-9.45,38l.34-1v-1.08a19.42,19.42,0,0,0-3.59.35,19.65,19.65,0,0,0,.4,38.67,19.12,19.12,0,0,0,6.84-.09c.58-.11,1.16-.25,1.73-.41l-.3-1-1,.35v0l1-.35-.53-1a19.57,19.57,0,0,0-9.79,13.81,19.59,19.59,0,0,0,30.83,19.2l-.63-.87-.91-.59a19.88,19.88,0,0,0-2.81,7.3,19.68,19.68,0,0,0,16.06,22.68,19.54,19.54,0,0,0,19.45-8.3l-.89-.61-1-.28-.29,1v.05l0,.06a19.69,19.69,0,0,0,16.06,22.69,19.47,19.47,0,0,0,6.9-.08A19.82,19.82,0,0,0,313.55,651l-.87-.64-.42,1,.4.17-.05.19v.1a19.4,19.4,0,0,0,.07,7,19.59,19.59,0,0,0,36.12,6.29l-.93-.56-1.07-.09-.09,1v.11a19.59,19.59,0,0,0,37.5,7.82l-1-.44-1.08-.09-.09,1.08V674a19.67,19.67,0,0,0,19.84,19.45,19,19,0,0,0,3.49-.34A19.65,19.65,0,0,0,420,680.63l-1-.38-.2,1.07.78.14.19-1.06-1.06-.16a19.3,19.3,0,0,0-.28,3.14,18.68,18.68,0,0,0,.36,3.52,19.64,19.64,0,0,0,19.48,15.93,19,19,0,0,0,3.49-.36,19.64,19.64,0,0,0,15.65-16.31l-1.07-.17-.14,1.07c.72.1,1.43.19,2.15.27l.14-1.07-1.09,0A19.59,19.59,0,0,0,496,691.54l-1-.26-1.08.1.1,1.08v.06l0,.05a19.61,19.61,0,0,0,38.52.08l-1.06-.2-.05,1.07.86,0,.05-1.07-1.09,0a18.55,18.55,0,0,0,.26,2.74,19.57,19.57,0,0,0,38.72-1.7l-1.08-.11v1.08h1v-1.08l-1.07.12c.08.67.16,1.35.29,2,.08.38.17.76.28,1.16h0a19.65,19.65,0,0,0,22.59,14c.54-.11,1.08-.24,1.61-.38a19.63,19.63,0,0,0,14-15.81l-1.07-.17-1.06.18.19,1.08v0l0,.06a19.67,19.67,0,0,0,22.6,14c.54-.11,1.07-.23,1.6-.38a19.6,19.6,0,0,0,14.23-17.85l-1.08-.06.07,1.07.65,0-.07-1.08-1.09.09a22.33,22.33,0,0,0,.32,2.26,14.28,14.28,0,0,0,.36,1.54h0a19.64,19.64,0,0,0,22.6,14,14.87,14.87,0,0,0,1.6-.38A19.63,19.63,0,0,0,682,688.6l-1.07.08.1,1.08.88-.08-.1-1.07-1.07.11c.07.67.16,1.35.29,2a17.35,17.35,0,0,0,1,3.25,19.67,19.67,0,0,0,21.91,12,20,20,0,0,0,3.64-1.08,19.6,19.6,0,0,0,12.22-17.25l-1.08-.06-1,.3.31,1.05v0l0,0a19.65,19.65,0,0,0,21.91,12,19.37,19.37,0,0,0,3.64-1.07,19.61,19.61,0,0,0,12-20.87l-1.06.15.17,1.07.62-.11-.18-1.06-1.07.12c.07.65.16,1.3.28,2a18.09,18.09,0,0,0,.95,3.27,19.67,19.67,0,0,0,21.92,12,20,20,0,0,0,3.65-1.08,19.59,19.59,0,0,0,11.84-21.9c-.09-.45-.19-.91-.31-1.36l-1,.27.22,1.06,2.06-.44-.23-1.06-1,.24A19.56,19.56,0,0,0,831,666.38l-1.08.1-1,.44.44,1,0,.06,0,0a19.69,19.69,0,0,0,20.8,9.58,19.49,19.49,0,0,0,15.47-23l-.22-1-1,.25.32,1,.61-.18-.32-1-1,.29a19.42,19.42,0,0,0,22.6,14.08,19.34,19.34,0,0,0,6-2.23,19.59,19.59,0,0,0,9.79-18.68l-1.08.08-.88.63a20.41,20.41,0,0,0,1.33,1.81,19.59,19.59,0,0,0,33.86-16.77,19.38,19.38,0,0,0-.53-2.09l-1,.32-.87.64.65.88,0,0,0,0A19.56,19.56,0,0,0,967.69,616a20,20,0,0,0-1.38-4.35l-1,.44.53.94.55-.3-.53-.95-.94.54a19.4,19.4,0,0,0,2.43,3.39,19.63,19.63,0,0,0,18.37,6.18,19.63,19.63,0,0,0,13.41-28.74l-.95.52-.62.88a19.46,19.46,0,0,0,8,3.35,19.59,19.59,0,0,0,22.65-16.1,19.43,19.43,0,0,0-.07-6.85,20.11,20.11,0,0,0-2.41-6.34l-.93.54-.47,1a18.81,18.81,0,0,0,12.08,1.62,19.63,19.63,0,0,0,4.45-37.15l-.45,1,1,.29.3-1-1-.29-.15,1.07a19.65,19.65,0,0,0,6.12-38.82l-.18,1.06-.18,1.07a17.49,17.49,0,0,1-5.45,34.55l-.94-.14-.55,2-.25.89.84.39a17.54,17.54,0,0,1,9.92,12.6,17.31,17.31,0,0,1,.07,6.18,17.51,17.51,0,0,1-14,14.28,16.83,16.83,0,0,1-10.74-1.45l-3.16-1.51,1.76,3a18,18,0,0,1,2.15,5.67,17.16,17.16,0,0,1,.07,6.07,17.45,17.45,0,0,1-20.15,14.34,17.15,17.15,0,0,1-7.09-3l-1.58,1.41a17.45,17.45,0,0,1-30.44,17l-.53-.92-1.48.82-.86.49.41.9a18,18,0,0,1,1.22,3.88,17.34,17.34,0,0,1-13.75,20.36,17.5,17.5,0,0,1-16.36-5.5l-.81.72.87-.64-.64-.88-1.91,1a15.93,15.93,0,0,1,.46,1.87,17.43,17.43,0,0,1-30.12,14.92,18.12,18.12,0,0,1-1.18-1.62l-2.28-3.22.33,3.93A17.46,17.46,0,0,1,891.47,664a17.21,17.21,0,0,1-5.34,2,17.5,17.5,0,0,1-18.5-8.55,17.28,17.28,0,0,1-1.61-4l-.29-1.07-1.66.52-1,.3.24,1,.2.88a17.42,17.42,0,0,1-32.27,11.9l-.93.54,1-.44-.44-1-2.06.53a17.43,17.43,0,0,1-8.71,16.68,17.73,17.73,0,0,1-5.34,2,17.51,17.51,0,0,1-18.5-8.54,17.33,17.33,0,0,1-1.81-5l-.23-1-1.05.22-2,.43-1.11.23.28,1.11c.12.41.21.81.29,1.22a17.44,17.44,0,0,1-10.53,19.49,16.92,16.92,0,0,1-3.25,1,17.5,17.5,0,0,1-19.5-10.66,15.62,15.62,0,0,1-.83-2.87c-.12-.59-.2-1.19-.27-1.8l-.12-1.14-1.74.29-1,.18.14,1A17.43,17.43,0,0,1,720,688.24l-1,.4,1-.3-.3-1.05-2.12.25a17.41,17.41,0,0,1-10.86,15.35,17.21,17.21,0,0,1-3.25,1A17.51,17.51,0,0,1,684,693.19a14.46,14.46,0,0,1-.82-2.85c-.12-.61-.21-1.22-.27-1.85l-.12-1-1.94.17-1.06.1.09,1.06a17.52,17.52,0,0,1-12.7,18.2c-.48.13-.95.24-1.42.33a17.49,17.49,0,0,1-20.12-12.48h0a12.23,12.23,0,0,1-.32-1.36,20,20,0,0,1-.28-2l-.08-1.07-1.71.12-1,.07,0,1a17.41,17.41,0,0,1-12.65,15.89c-.47.13-1,.24-1.42.34A17.51,17.51,0,0,1,608,695.24l-1,.29,1.06-.19-.19-1.06h-2.13a17.4,17.4,0,0,1-12.48,14.07c-.48.13-1,.25-1.43.35a17.5,17.5,0,0,1-20.11-12.5l0-.1,0,.1-.23-1c-.12-.61-.2-1.23-.27-1.88l-.11-.94-2,0h-1l-.1,1a17.42,17.42,0,0,1-34.45,1.52,16.54,16.54,0,0,1-.21-2.43l0-1-1.85-.08-.92,0-.18.91a17.45,17.45,0,0,1-34.28-.07l-1.06.21,1.08-.1-.1-1.08-2.13-.17a17.44,17.44,0,0,1-34.07-.9,17,17,0,0,1-.28-3.82l0-1-1-.12c-.72-.09-1.43-.17-2.14-.27l-1.05-.14-.16,1.05a17.52,17.52,0,0,1-13.92,14.53,18.52,18.52,0,0,1-3.11.31,17.49,17.49,0,0,1-17.33-14.18,17,17,0,0,1-.32-3.13,18.08,18.08,0,0,1,.25-2.8l.15-1-1.79-.32-.89-.17-.32.84A17.47,17.47,0,0,1,404.94,691a18.5,18.5,0,0,1-3.1.32,17.48,17.48,0,0,1-17.34-14.18,17,17,0,0,1-.32-3.14H383.1l1.08.09.09-1.08-2-.54a17.56,17.56,0,0,1-12.61,10,16.71,16.71,0,0,1-3.1.3,17.47,17.47,0,0,1-17.35-14.17,17.16,17.16,0,0,1-.31-3.15l-1.08,0,1.07.1.09-.95-2-.65a17.66,17.66,0,0,1-11.74,8.28,17.26,17.26,0,0,1-6.17.06,17.49,17.49,0,0,1-14.23-13.94,17.19,17.19,0,0,1-.06-6.24l-1.07-.18,1,.28.31-1.1.25-.91-2.16-.91-.78-.32-.51.69a17.63,17.63,0,0,1-10.83,6.9,17,17,0,0,1-6.12.06,17.47,17.47,0,0,1-14.23-13.94,17.24,17.24,0,0,1-.06-6.25l-1.07-.18,1.05.29.28-1.06-1.93-.89A17.62,17.62,0,0,1,267.75,642a17.2,17.2,0,0,1-6.16.06,17.47,17.47,0,0,1-14.23-13.94,17.24,17.24,0,0,1-.06-6.25,17.42,17.42,0,0,1,2.49-6.49l-1.54-1.46a17.58,17.58,0,0,1-7,3,17.45,17.45,0,0,1-11.76-32.39l.79-.45-.31-.87-.33-1-1,.28c-.51.14-1,.27-1.55.36a16.87,16.87,0,0,1-6.06.09,17.49,17.49,0,0,1-.36-34.42,17.69,17.69,0,0,1,3.19-.3l.33-2.11a17.5,17.5,0,0,1-11.68-13.28,17.19,17.19,0,0,1-.07-6.2,17.45,17.45,0,0,1,20.16-14.34,17.14,17.14,0,0,1,7.84,3.58l.85.68.82-1.06.68-.88-.91-.65a17.64,17.64,0,0,1-7.08-11,17,17,0,0,1-.07-6.16,17.54,17.54,0,0,1,14-14.29,17.42,17.42,0,0,1,17.67,7.3l.65,1,.91-.73c45.39-36,123.8-66.71,219.83-85.17a1053.36,1053.36,0,0,1,136.77-16.78c155.51-9.07,292.63,15.41,364.28,58.77l.89.54.57-.86a17.49,17.49,0,0,1,11.32-7.58,17.31,17.31,0,0,1,6.18-.07A17.43,17.43,0,0,1,1018,467.69l-.65.75.93,1,.78.79.77-.8a17.68,17.68,0,0,1,9.29-5,17.2,17.2,0,0,1,6.2-.06,17.48,17.48,0,0,1,14.22,13.94,17.19,17.19,0,0,1,.06,6.24,17.39,17.39,0,0,1-9,12.41l.64,2a17.24,17.24,0,0,1,5,0l.18-1.07Zm-826.42,73-.2-1.06a4.32,4.32,0,1,1,3.43-5.06,4.32,4.32,0,0,1-3.43,5.06l.2,1.06.2,1.06a6.48,6.48,0,1,0-7.59-5.14,6.48,6.48,0,0,0,7.59,5.14l-.2-1.06Zm14.45,35.06-.21-1.06a4.32,4.32,0,1,1,3.43-5.06,4.33,4.33,0,0,1-3.43,5.06l.21,1.06.2,1.06a6.48,6.48,0,1,0-7.59-5.14,6.48,6.48,0,0,0,7.59,5.14l-.2-1.06Zm-8.67-73.69-.21-1.06a4.32,4.32,0,1,1,3.43-5.06,4.33,4.33,0,0,1-3.43,5.06l.21,1.06.2,1.06a6.49,6.49,0,1,0-7.59-5.15,6.48,6.48,0,0,0,7.59,5.15l-.2-1.06Zm36.63,98.93-.21-1.07a4.32,4.32,0,1,1,3.43-5.05,4.33,4.33,0,0,1-3.43,5.05l.21,1.07.2,1.05a6.48,6.48,0,1,0-7.59-5.13,6.46,6.46,0,0,0,7.59,5.13l-.2-1.05Zm-9.81-129.82-.2-1.06a4.32,4.32,0,1,1,3.42-5.06,4.32,4.32,0,0,1-3.42,5.06l.2,1.06.21,1.06a6.48,6.48,0,1,0-7.6-5.14,6.5,6.5,0,0,0,7.6,5.14l-.21-1.06ZM297.1,651.11l-.21-1.06a4.32,4.32,0,1,1,3.43-5.06,4.34,4.34,0,0,1-3.43,5.06l.21,1.06.2,1.06a6.48,6.48,0,1,0-7.59-5.14,6.47,6.47,0,0,0,7.59,5.14l-.2-1.06Zm32.6,14.74-.2-1.06a4.32,4.32,0,1,1,3.43-5.06,4.32,4.32,0,0,1-3.43,5.06l.2,1.06.21,1.06a6.48,6.48,0,1,0-7.6-5.14,6.48,6.48,0,0,0,7.6,5.14l-.21-1.06Zm37.1,9.92-.2-1.06a4.32,4.32,0,1,1,3.43-5.06,4.33,4.33,0,0,1-3.43,5.06l.2,1.06.21,1.06a6.48,6.48,0,1,0-7.59-5.14,6.48,6.48,0,0,0,7.59,5.14l-.21-1.06Zm32.89,9.63-.2-1.06a4.32,4.32,0,1,1-1.64-8.48,4.32,4.32,0,0,1,1.64,8.48l.2,1.06.2,1.06a6.48,6.48,0,1,0-7.59-5.14,6.47,6.47,0,0,0,7.59,5.14l-.2-1.06Zm38.69,8-.2-1.05a4.32,4.32,0,1,1,3.43-5.06,4.33,4.33,0,0,1-3.43,5.06l.2,1.05.2,1.06a6.48,6.48,0,1,0-7.59-5.13,6.48,6.48,0,0,0,7.59,5.13l-.2-1.06ZM476.76,697l-.2-1.06a4.32,4.32,0,1,1,3.43-5.06,4.34,4.34,0,0,1-3.43,5.06l.2,1.06.21,1.06a6.49,6.49,0,1,0-7.59-5.15,6.48,6.48,0,0,0,7.59,5.15l-.21-1.06Zm38.77,3.54-.21-1.06a4.32,4.32,0,1,1,3.43-5.06,4.33,4.33,0,0,1-3.43,5.06l.21,1.06.2,1.07a6.49,6.49,0,1,0-7.59-5.15,6.49,6.49,0,0,0,7.59,5.15l-.2-1.07ZM552,701.78l-.21-1.07a4.32,4.32,0,1,1,3.43-5.06,4.31,4.31,0,0,1-3.43,5.06l.21,1.07.2,1.05a6.48,6.48,0,1,0-7.59-5.14,6.47,6.47,0,0,0,7.59,5.14l-.2-1.05Zm37.82,1-.2-1a4.33,4.33,0,1,1,3.43-5.07,4.34,4.34,0,0,1-3.43,5.07l.2,1,.2,1.06a6.48,6.48,0,1,0-7.58-5.14,6.47,6.47,0,0,0,7.58,5.14l-.2-1.06Zm36.25,1.14-.21-1.06a4.32,4.32,0,1,1,3.43-5.06,4.33,4.33,0,0,1-3.43,5.06l.21,1.06.2,1.06a6.48,6.48,0,1,0-7.59-5.14,6.48,6.48,0,0,0,7.59,5.14l-.2-1.06ZM664.66,702l-.21-1.06a4.32,4.32,0,1,1,3.43-5,4.33,4.33,0,0,1-3.43,5l.21,1.06.2,1.07a6.49,6.49,0,1,0-7.59-5.15,6.49,6.49,0,0,0,7.59,5.15l-.2-1.07ZM702.57,697l-.21-1.07a4.32,4.32,0,1,1,3.43-5.06,4.33,4.33,0,0,1-3.43,5.06l.21,1.07.2,1.06a6.49,6.49,0,1,0-7.59-5.14,6.49,6.49,0,0,0,7.59,5.14l-.2-1.06Zm33.53-3.29-.21-1.06a4.32,4.32,0,1,1,3.44-5.06,4.34,4.34,0,0,1-3.44,5.06l.21,1.06.2,1a6.48,6.48,0,1,0-7.59-5.13,6.48,6.48,0,0,0,7.59,5.13l-.2-1Zm40.2-5.4-.2-1.06a4.32,4.32,0,1,1,3.43-5,4.32,4.32,0,0,1-3.43,5l.2,1.06.21,1.07a6.49,6.49,0,1,0-7.59-5.14,6.49,6.49,0,0,0,7.59,5.14l-.21-1.07Zm36.71-9.4-.21-1.06a4.32,4.32,0,1,1,3.43-5.06,4.33,4.33,0,0,1-3.43,5.06l.21,1.06.2,1.07a6.49,6.49,0,1,0-7.59-5.15,6.49,6.49,0,0,0,7.59,5.15l-.2-1.07ZM848.29,669l-.2-1.06a4.32,4.32,0,1,1,3.43-5.06,4.33,4.33,0,0,1-3.43,5.06l.2,1.06.21,1.06a6.49,6.49,0,1,0-7.59-5.15,6.47,6.47,0,0,0,7.59,5.15l-.21-1.06ZM884,659.8l-.21-1.06a4.32,4.32,0,1,1,3.43-5.07,4.33,4.33,0,0,1-3.43,5.07l.21,1.06.2,1.06a6.48,6.48,0,1,0-7.59-5.14,6.49,6.49,0,0,0,7.59,5.14l-.2-1.06Zm36.45-12.51-.21-1.06a4.32,4.32,0,1,1,3.43-5.06,4.33,4.33,0,0,1-3.43,5.06l.21,1.06.2,1.06a6.48,6.48,0,1,0-7.59-5.14,6.48,6.48,0,0,0,7.59,5.14l-.2-1.06Zm31.8-17-.21-1.06a4.32,4.32,0,1,1,3.43-5.06,4.32,4.32,0,0,1-3.43,5.06l.21,1.06.2,1.06a6.48,6.48,0,1,0-7.59-5.14,6.47,6.47,0,0,0,7.59,5.14l-.2-1.06Zm33.68-17.47-.2-1.07a4.32,4.32,0,1,1,3.42-5.06,4.32,4.32,0,0,1-3.42,5.06l.2,1.07.21,1a6.48,6.48,0,1,0-7.59-5.14,6.48,6.48,0,0,0,7.59,5.14l-.21-1Zm28.61-24.77-.2-1.05a4.33,4.33,0,1,1,3.43-5.07,4.34,4.34,0,0,1-3.43,5.07l.2,1.05.21,1.06a6.48,6.48,0,1,0-7.59-5.14,6.48,6.48,0,0,0,7.59,5.14l-.21-1.06ZM1008,457.19l-.21-1.07a4.32,4.32,0,1,1,3.43-5.06,4.33,4.33,0,0,1-3.43,5.06l.21,1.07.2,1.06a6.49,6.49,0,1,0-7.59-5.15,6.5,6.5,0,0,0,7.59,5.15l-.2-1.06Zm30.75,102.66-.21-1.06a4.32,4.32,0,1,1,3.43-5.07,4.33,4.33,0,0,1-3.43,5.07l.21,1.06.2,1.06a6.49,6.49,0,1,0-7.59-5.15,6.48,6.48,0,0,0,7.59,5.15l-.2-1.06ZM1030.19,478l1.06-.2a4.32,4.32,0,1,1,5.07,3.43,4.35,4.35,0,0,1-5.07-3.43l-1.06.2-1.06.21a6.49,6.49,0,1,0,5.14-7.59,6.5,6.5,0,0,0-5.14,7.59l1.06-.21Zm19.44,43.87-.2-1.06a4.32,4.32,0,1,1,3.43-5.06,4.32,4.32,0,0,1-3.43,5.06l.2,1.06.21,1.06a6.48,6.48,0,1,0-7.6-5.14,6.48,6.48,0,0,0,7.6,5.14l-.21-1.06Z" transform="translate(-203.85 -79.84)"/><path class="cls-4" d="M287.58,524.79c-6.38,9.18-9.51,18.59-9,28.08,3.33,63.06,166.29,105.72,364,95.26a1051,1051,0,0,0,141.57-16.86C910.19,607,996.93,562,994.46,515c-.55-10.35-5.4-20.16-14-29.27l-1.07,12.94h0c0,.06,0,.13,0,.18-4.46,46.12-88.54,89.42-208,112.38a944.61,944.61,0,0,1-100.77,13.59l-.75.06-.28,0q-14.39,1.17-29.11,1.94h0c-180.21,9.51-330.51-29-349.24-87.24h-.05l-.62-2.38c-.2-.78-.45-1.53-.6-2.3l-2.4-10.16Z" transform="translate(-203.85 -79.84)"/><path class="cls-5" d="M1002.92,213.38,225.48,261.67,290,535c.15.77.4,1.52.6,2.3l.62,2.38h.05c18.73,58.24,169,96.75,349.24,87.24,184.87-9.74,333.19-66.45,338.89-128.17h0l23.54-285.32Z" transform="translate(-203.85 -79.84)"/><path class="cls-6" d="M990.41,365h0l-4.32,52.45h0l0-.21.2-.62h0l1.12-15.44,3-36.18Z" transform="translate(-203.85 -79.84)"/><polygon class="cls-7" points="779.73 368.08 779.73 368.08 776.61 405.92 776.61 405.92 779.73 368.08 779.73 368.08"/><polygon class="cls-8" points="776.61 405.92 775.54 418.86 776.61 405.92 776.61 405.92 776.61 405.92"/><path class="cls-6" d="M271.34,456l.83,4.37h0a2.53,2.53,0,0,1,.13.22l0,.06a2.39,2.39,0,0,1,.12.22l0,.05,0,0-1.17-5Z" transform="translate(-203.85 -79.84)"/><path class="cls-8" d="M669.88,624.91l.75-.06-.75.06Zm-29.39,2q14.71-.76,29.11-1.94-14.37,1.17-29.11,1.94ZM979.38,498.7c0,.06,0,.13,0,.18s0-.12,0-.18Z" transform="translate(-203.85 -79.84)"/><path class="cls-9" d="M288.49,491.86h0l-.11.08a11.67,11.67,0,0,1-4.21,1.68,14.35,14.35,0,0,1-3.89.18l2,8.29a14.12,14.12,0,0,0,3.58-.22,11.13,11.13,0,0,0,4.27-1.72s5.66-1.1,5.9,4,3.49,12.44,7.77,15.62c2.94,2.2,7.3,2.74,11.12,2a13.9,13.9,0,0,0,4.7-1.76,9.3,9.3,0,0,1,3.17-1.27c3.45-.66,6.93,1,8.72,5.91,1.87,5.17,8.6,8.86,14.86,7.66a12.17,12.17,0,0,0,4.59-1.92,8,8,0,0,1,.87-.2c2.33-.45,8.86-1.22,13.22,3,4.8,4.59,7.9,9.33,16.79,7.62a29.81,29.81,0,0,0,3.57-.94,26.73,26.73,0,0,1,3.12-.82c10-1.92,16.83,3.61,21.57,11,3.82,5.93,15.07,11.78,26.76,9.53a27.87,27.87,0,0,0,12.76-6.19c3.24-2.73,5.92-4.52,8.46-5,3-.57,5.72.62,9,4.14,6.58,7.17,7.91,10.49,18.88,10.28a7.29,7.29,0,0,0,1.48-.15c3.07-.6,5.9-2.72,8.53-4.81s5.06-4.13,7.32-4.57a4,4,0,0,1,3.36.81c3.81,3,7.67,4.45,11.45,3.72a12.07,12.07,0,0,0,5.27-2.55,10.51,10.51,0,0,1,4.58-2.21,9.59,9.59,0,0,1,9.32,3.91,22.28,22.28,0,0,0,21.46,7.49,31.12,31.12,0,0,0,9.38-3.58s7.24-4.73,10.87-5.43a3.86,3.86,0,0,1,.72-.08c3.29-.09,8.69-.58,19.13,5.06,7.32,4,18.79,9.81,33.34,7a51.61,51.61,0,0,0,20.2-9.1A22.67,22.67,0,0,1,661,554.1c4.8-.92,8.38.86,11.76,2.68s6.56,3.7,10.55,2.93c2.55-.49,5.41-2.05,8.87-5.34a14.37,14.37,0,0,1,7.24-4.09c6.4-1.23,12.41,3.44,19.5,6.24a41.28,41.28,0,0,0,23.33,2.16,48.79,48.79,0,0,0,9.69-3c8.16-3.42,15.7-12,24-13.61a13.7,13.7,0,0,1,10.57,2.3c10.44,6.89,20.89,10.64,29.94,8.9,8.24-1.58,15.31-7.72,20.16-20.17,2.56-6.55,5.1-9.48,8.25-10.08,3.39-.65,7.47,1.38,13,4.49A31.29,31.29,0,0,0,879.07,531a27.24,27.24,0,0,0,15.67-9c4.5-5.21,5.31-17.49,10.79-18.55,1.52-.29,3.4.28,5.82,2.11a20.07,20.07,0,0,0,16.1,3.87,20.41,20.41,0,0,0,3.68-1.07s11.46,31.84-23.26,47.91c-36.56,18.63-84.12,33.82-139.18,44.41A953.71,953.71,0,0,1,639.55,616C469.28,625,319,591.26,289.06,531L290,535c.15.77.4,1.52.6,2.3l.62,2.38h.05c18.73,58.24,169,96.75,349.24,87.24h0q14.71-.76,29.11-1.94l.28,0,.75-.06a939.59,939.59,0,0,0,100.62-13.57c57.17-11,106.24-26.64,142.37-45l2.28-1.16c1.91-1,3.76-2,5.59-3l2.53-1.41c1.75-1,3.49-2,5.16-3,.8-.47,1.57-1,2.35-1.44,1.68-1,3.35-2,4.94-3.09l.19-.13c3.44-2.25,6.64-4.54,9.7-6.84.86-.65,1.73-1.29,2.55-1.94,1.11-.88,2.17-1.77,3.23-2.66.9-.75,1.79-1.51,2.65-2.27s1.89-1.7,2.81-2.56,1.73-1.66,2.56-2.5,1.61-1.61,2.36-2.42c1-1,1.81-2,2.69-3.06.55-.65,1.14-1.3,1.67-2q1.95-2.43,3.61-4.91c.41-.6.75-1.2,1.13-1.81.71-1.13,1.4-2.27,2-3.41.36-.68.7-1.36,1-2,.54-1.1,1-2.21,1.49-3.31.27-.67.54-1.34.78-2,.42-1.18.78-2.37,1.1-3.57.16-.58.34-1.16.47-1.73a43.37,43.37,0,0,0,.85-5.14c0-.05,0-.12,0-.18h0l1.07-12.94,3.13-37.85c-3.26.64-6.22,1.7-8,4.55-3.34,5.47.73,12.29-3.2,18.06a15.8,15.8,0,0,1-10.32,6.4,21.91,21.91,0,0,1-5.48.33c-3.28-.19-6-.75-8.09-.34-2.32.44-3.91,2.07-4.74,6.67A22.86,22.86,0,0,1,926,502a20,20,0,0,1-16.11-3.91c-2.42-1.84-4.3-2.41-5.82-2.12-5.48,1.05-6.27,13.4-10.76,18.64a27.19,27.19,0,0,1-15.67,9,31.23,31.23,0,0,1-21.13-3.54c-5.55-3.14-9.64-5.19-13-4.54-3.16.6-5.7,3.55-8.24,10.14-4.84,12.53-11.91,18.68-20.15,20.27-9,1.74-19.51-2-30-9a13.64,13.64,0,0,0-10.57-2.32c-8.33,1.6-15.87,10.24-24,13.66a49.38,49.38,0,0,1-9.7,3,41.14,41.14,0,0,1-23.33-2.2c-7.09-2.83-13.11-7.54-19.51-6.3a14.26,14.26,0,0,0-7.23,4.1c-3.46,3.32-6.32,4.87-8.86,5.37-4,.76-7.18-1.12-10.57-3s-7-3.63-11.77-2.71a22.59,22.59,0,0,0-8.75,4.13c-7.24,5.17-14,7.95-20.2,9.13-14.55,2.8-26-3.1-33.35-7.08-10.45-5.7-15.86-5.21-19.14-5.12a3.86,3.86,0,0,0-.72.08c-3.63.69-10.87,5.44-10.87,5.44-.73.42-1.46.8-2.17,1.15a29.43,29.43,0,0,1-7.21,2.45,22.2,22.2,0,0,1-16.7-3.28,20.4,20.4,0,0,1-4.77-4.29,11.16,11.16,0,0,0-2.9-2.66l0,.05a8.73,8.73,0,0,0-8.39-.74,11.18,11.18,0,0,0-2.65,1.63,12.13,12.13,0,0,1-5.28,2.56c-3.77.73-7.64-.74-11.45-3.75a4,4,0,0,0-3.36-.83c-2.26.43-4.69,2.5-7.32,4.6s-5.46,4.23-8.51,4.82a10.75,10.75,0,0,1-1.5.16h-.2c-10.78.14-12.14-3.2-18.69-10.38a19.82,19.82,0,0,0-2.79-2.56l.14.16a7.7,7.7,0,0,0-6.36-1.73c-2.36.46-4.84,2-7.78,4.46l-.63.52a29.22,29.22,0,0,1-4.5,3.16,26.75,26.75,0,0,1-8.26,3.07,27.6,27.6,0,0,1-6.74.44h-.12c-9-.54-16.85-5.28-19.91-10.06a29.77,29.77,0,0,0-6.82-7.69l.13.14a17.81,17.81,0,0,0-14.92-3.51,26.24,26.24,0,0,0-3.1.8h0a28.3,28.3,0,0,1-3.58.95c-5.13,1-8.32-.18-11-2.23h0l-.07-.06a40.27,40.27,0,0,1-4-3.71s0,0,0,0c-.55-.57-1.11-1.14-1.7-1.71a10.64,10.64,0,0,0-1.05-.88l.4.4c-4.43-3.65-10.62-2.88-12.72-2.47-.47.09-.73.16-.73.16h0a11.92,11.92,0,0,1-4.6,1.93l-.36.07h-.14l-.59.07h0l-.1,0h-.16l-.32,0h-1.25a14.57,14.57,0,0,1-8.15-3h0l-.1-.07,0,0,0,0s0,0-.06,0l0,0s-.05,0-.08-.06h0a10.88,10.88,0,0,1-3.4-4.67,9.14,9.14,0,0,0-4.37-5.42l0,.08a6.94,6.94,0,0,0-4.48-.57,9.17,9.17,0,0,0-3.1,1.24h0a14.25,14.25,0,0,1-4.7,1.76c-3.81.73-8.17.19-11.11-2h0l-.29-.21c-4.15-3.33-7.27-10.55-7.51-15.52a3.87,3.87,0,0,0-3.41-4v0a8,8,0,0,0-2.49,0Zm28.87-31.62c22.14-4.25,31.57-14.49,39-24.34s12.72-19.3,26.68-22a49.82,49.82,0,0,1,12.48-.63c43.42,2.65,33.71,55.13,83.25,61A53.11,53.11,0,0,0,495,474c15.69-3,24.06-14,33.23-25.17s19.11-22.45,38-26.08c1.53-.29,3.12-.54,4.77-.73,48.45-5.54,48.53,69.27,145,56.2,3.07-.42,6-.89,8.86-1.44C811,460.17,788.7,386,856.43,367.08c3.93-1.1,7.58-2,11-2.62,46.25-8.9,46.21,21.27,67.3,31.49,0,0,17.73,55.24-48.06,88.89-26.34,13.46-58.65,23.05-94.91,30C744,524.05,689.33,528.7,632.38,531.7c-180.13,9.51-331.55-23.88-361.06-76.36l-2.43-12.41c11.61,12.25,27,21,46.56,17.66l1.91-.35Zm63.7-56.41c-14,2.68-19.3,12.14-26.68,22s-16.82,20.08-39,24.34l-1.91.35h0l-.3,0,0,0-.25,0h-.05l-.25,0h-.05l-.25,0h-.05a1.9,1.9,0,0,0-.25,0h0l-.27,0h0l-.29,0h0a46.23,46.23,0,0,1-17.1-.92l-.1,0-.14,0-.17,0-.06,0-.2,0h0l-.22-.06h0c-11-3-20.27-9.94-27.82-18.3l3.59,15.22.52.53,1.7,8.85,1.17,5,.09.16s0,0,0,0a1.67,1.67,0,0,0,.12.23l0,.05c.05.08.08.15.13.22a.16.16,0,0,1,0,.06c0,.06.08.11.11.18l0,.05.13.21,0,.07a2.11,2.11,0,0,1,.14.22v0a2.39,2.39,0,0,0,.13.21l0,.05.13.21,0,.06c0,.07.09.14.13.22l0,0a1.59,1.59,0,0,1,.13.22l0,0,.14.23,0,0,.14.22h0l.15.23,0,0c.05.09.1.16.15.24h0c0,.08.1.16.14.23l0,0,.16.24,0,0c.11.16.23.32.34.49h0l.17.24,0,0c29.58,41.63,132.33,70.69,263.14,75.23l-1.16,0c30.59,1.09,62.74.85,95.86-.9a1043.5,1043.5,0,0,0,141-16.79C890.68,500.9,974,460.75,986.09,417.46L990.41,365c-6.93,10.72-15.2,17.85-25,19.73a26.59,26.59,0,0,1-3.21.42c-43.15,3.09-39.21-46.24-98-34.94-3.33.64-6.86,1.47-10.61,2.53C786,371.7,808.24,445.85,722.15,462.4q-4.24.83-8.86,1.44c-96.52,13.06-96.6-61.75-145-56.2-1.65.18-3.23.43-4.76.72-18.85,3.63-28.8,14.93-38,26.09S508,456.6,492.28,459.61A53.34,53.34,0,0,1,476,460l-.3-.05-.19,0h-.1l-.21,0-.08,0-.24,0h-.05l-.25,0h0l-.27,0h0c-25.35-3.61-34.41-18.66-43.84-32.34l0,0c-1.77-2.58-3.56-5.1-5.47-7.49l.14.19c-7-8.8-15.54-15.84-31.18-16.91h-.19a.75.75,0,0,0-.21,0,49.82,49.82,0,0,0-12.48.63Z" transform="translate(-203.85 -79.84)"/><path class="cls-10" d="M605.48,81.54c-219,11.55-394.79,78.79-401.31,151.93,0,.09-3,12.15,9.29,58l25.33,90.87s22.52,77.09,74.72,68.15c23.51-4,33.27-14.57,40.87-24.69,9.25-12.34,15.3-24.07,39.16-22.61C437,405.85,426.43,454.09,476,460c27,3.2,37.62-11,49.53-25.52,9.9-12.07,20.73-24.29,42.73-26.81,48.45-5.55,48.53,69.26,145,56.2s70.42-91.51,140.38-111.09,63,35.68,108.57,32.41c44.75-3.21,59.69-113.44,59.18-184.26,0-1.29,0-2.59,0-3.89-4-75.68-190.2-127.37-415.91-115.47Z" transform="translate(-203.85 -79.84)"/><path class="cls-11" d="M313.21,450.54l.3,0-.3,0Zm-.3.06.25,0-.25,0Zm-.3,0,.25,0-.25,0Zm-.3.05.25,0-.25,0Zm-.3,0a1.9,1.9,0,0,1,.25,0,1.9,1.9,0,0,0-.25,0Zm-.31,0,.27,0-.27,0Zm-.31,0,.29,0-.29,0Zm-17.11-.91a46.23,46.23,0,0,0,17.1.92,46.44,46.44,0,0,1-17.1-.92Zm-.24-.07.14,0-.14,0Zm-.23-.06.06,0-.06,0Zm-.24-.06h0Zm-.22-.06Zm100.59-46.43c15.64,1.07,24.21,8.11,31.18,16.91l-.14-.19c-6.94-8.72-15.51-15.66-31-16.72Zm-.19,0h0Z" transform="translate(-203.85 -79.84)"/><path class="cls-12" d="M372.59,392.65c-14.09,2.71-19.49,12.17-27,22s-17,20.11-39.36,24.41l-1.92.35c-18.46,3.17-33.21-4.25-44.61-15.22,8.45,11.38,19.57,21.62,33.61,25.42h0l.22.06h0l.2,0,.06,0,.17,0,.14,0,.1,0a46.44,46.44,0,0,0,17.1.92h0l.29,0h0l.27,0h0a1.9,1.9,0,0,1,.25,0h.05l.25,0h.05l.25,0h.05l.25,0,0,0,.3,0h0l1.91-.35c22.14-4.26,31.57-14.49,39-24.34s12.72-19.3,26.68-22a49.82,49.82,0,0,1,12.48-.63.75.75,0,0,1,.21,0h.19c15.53,1.06,24.1,8,31,16.72-9.27-13.41-17.43-26.62-39.79-27.94a50.66,50.66,0,0,0-12.6.65Z" transform="translate(-203.85 -79.84)"/><path class="cls-13" d="M475.49,459.9l.19,0-.19,0Zm-.31,0,.21,0-.21,0Zm-.32-.05.24,0-.24,0Zm-.3,0,.25,0-.25,0Zm-.3,0,.27,0-.27,0ZM430.42,427.4c9.43,13.68,18.49,28.73,43.84,32.34-25.32-3.61-34.39-18.63-43.81-32.31l0,0Z" transform="translate(-203.85 -79.84)"/><path class="cls-14" d="M1019.1,184.84c0,1.24.06,2.47,0,3.69.37,69-14.89,171.55-57.49,179.74a31.37,31.37,0,0,1-3.37.45c-43.34,3.15-42.56-41.23-101.35-29.93-3.62.69-7.47,1.6-11.58,2.76-68.58,19.14-59.57,91.35-131.74,105.23-2.16.41-4.37.77-6.67,1.08-97.45,13-96.56-57.35-145.45-51.73-1.67.2-3.27.44-4.81.74-19,3.66-29.1,15-38.37,26.16s-17.73,22.18-33.57,25.23a53.62,53.62,0,0,1-16.45.38c-19.67-2.28-29.93-11.15-37.82-21.21,9.42,13.68,18.49,28.7,43.81,32.31h0l.27,0h0l.25,0h.05l.24,0,.08,0,.21,0h.1l.19,0,.3.05a53.34,53.34,0,0,0,16.3-.36c15.69-3,24.07-14,33.23-25.16s19.12-22.46,38-26.09c1.53-.29,3.11-.54,4.76-.72,48.45-5.55,48.53,69.26,145,56.2q4.62-.61,8.86-1.44c86.09-16.55,63.8-90.7,131.52-109.65,3.75-1.06,7.28-1.89,10.61-2.53,58.75-11.3,54.81,38,98,34.94a26.59,26.59,0,0,0,3.21-.42c42.26-8.12,56.46-114.74,56-183.84,0-1.29,0-2.59,0-3.89a47.65,47.65,0,0,0-2.29-12.17Z" transform="translate(-203.85 -79.84)"/><path class="cls-15" d="M986.31,416.62C971,476.3,820,530.2,633.42,540.05c-180.14,9.5-331.64-25.34-361.25-79.73a29.52,29.52,0,0,0-4.34,21.57c2.42,12.38,14.75,14.07,20.66,10,0,0,5.66-1.09,5.9,4s3.51,12.53,7.8,15.73,11.55,2.92,15.81.27,9.55-1.85,11.91,4.67,12.35,10.73,19.46,5.8c0,0,8.7-2.41,14.1,2.79s8.64,10.59,20.37,6.74,19.48,2.1,24.71,10.26,24.4,16.22,39.53,3.4c7-5.93,11.4-7.44,17.42-.85,6.59,7.22,7.93,10.57,18.89,10.38,3.64-.07,7-2.55,10-5,4-3.18,7.5-6.27,10.68-3.77,5.62,4.42,11.33,5.52,16.73,1.19s11-2.11,13.9,1.72,14.32,13.38,30.85,4c0,0,8.3-5.44,11.59-5.52s8.69-.58,19.14,5.12,29.34,15.25,53.55-2c9.71-6.94,15.35-4.22,20.52-1.42,5.54,3,10.54,6.12,19.43-2.41,9.39-9,17.06-1.65,26.74,2.2,11,4.36,22.21,3.78,33-.77,11.45-4.81,21.7-19.91,34.59-11.34,20,13.27,40,15,50.11-11.27,5.27-13.67,10.55-11.66,21.26-5.6,11.9,6.74,27.62,5.25,36.8-5.47,5.74-6.69,5.43-25,16.58-16.52,13.31,10.09,31,1.14,33.89-14.55,1.6-8.77,5.92-6.73,12.83-6.33,6,.36,12.31-1.6,15.8-6.73,3.93-5.77-.14-12.59,3.2-18.06,2.28-3.74,6.71-4.41,11.1-5.07,3.66-.55,7.29-1.09,9.68-3.39,7.13-6.86.26-19.9-5.66-25.23l-4.43-2.15Z" transform="translate(-203.85 -79.84)"/><path class="cls-16" d="M288.49,491.86a8,8,0,0,1,2.49,0v0a7.49,7.49,0,0,0-2.49,0Zm0,0-.11.08.11-.08Z" transform="translate(-203.85 -79.84)"/><path class="cls-17" d="M270.73,488.57a13.7,13.7,0,0,0,13.46,5,11.2,11.2,0,0,0,4.19-1.66l.11-.08h0a7.49,7.49,0,0,1,2.49,0c-.9-3.93-5.72-3.06-5.72-3.06a11.26,11.26,0,0,1-4.31,1.75,14.07,14.07,0,0,1-10.22-2Z" transform="translate(-203.85 -79.84)"/><path class="cls-16" d="M428.46,552.18h0Zm15.12-3.5a26.72,26.72,0,0,1-8.26,3.06,27.61,27.61,0,0,1-6.74.45,27.6,27.6,0,0,0,6.74-.44,26.75,26.75,0,0,0,8.26-3.07Zm13-8.18c-2.38.46-4.87,2-7.83,4.5,2.94-2.42,5.42-4,7.78-4.46a7.7,7.7,0,0,1,6.36,1.73l-.14-.16a7.59,7.59,0,0,0-6.17-1.61Z" transform="translate(-203.85 -79.84)"/><path class="cls-17" d="M409.55,543.45c3.56,4.3,10.75,8.24,18.91,8.73h.12a27.61,27.61,0,0,0,6.74-.45,26.72,26.72,0,0,0,8.26-3.06,29.22,29.22,0,0,0,4.5-3.16l.63-.52c3-2.45,5.45-4,7.83-4.5a7.59,7.59,0,0,1,6.17,1.61l-.44-.49c-3.24-3.54-6-4.75-9-4.18-2.54.5-5.22,2.29-8.46,5a27.71,27.71,0,0,1-12.75,6.22,29.25,29.25,0,0,1-22.55-5.25Z" transform="translate(-203.85 -79.84)"/><path class="cls-16" d="M321.18,510.58a9.37,9.37,0,0,0-3.18,1.28,9.17,9.17,0,0,1,3.1-1.24,6.94,6.94,0,0,1,4.48.57l0-.08a6.84,6.84,0,0,0-4.36-.53Zm-19.28.8.29.21-.29-.21Z" transform="translate(-203.85 -79.84)"/><path class="cls-17" d="M299.52,508.88a15.41,15.41,0,0,0,2.38,2.5l.29.21h0c2.94,2.22,7.3,2.76,11.11,2a14.25,14.25,0,0,0,4.7-1.76h0a9.37,9.37,0,0,1,3.18-1.28,6.84,6.84,0,0,1,4.36.53,7.06,7.06,0,0,0-7.6-3.57,9.17,9.17,0,0,0-3.16,1.27,13.76,13.76,0,0,1-4.64,1.74,14.85,14.85,0,0,1-10.62-1.67Z" transform="translate(-203.85 -79.84)"/><path class="cls-16" d="M387,531.05a28.77,28.77,0,0,0-3.12.81,26.24,26.24,0,0,1,3.1-.8,17.81,17.81,0,0,1,14.92,3.51l-.13-.14A17.81,17.81,0,0,0,387,531.05Zm-17.75-.49v0h0Zm-4.06-3.76a40.27,40.27,0,0,0,4,3.71,42.13,42.13,0,0,1-4-3.68s0,0,0,0Z" transform="translate(-203.85 -79.84)"/><path class="cls-17" d="M365.17,526.83a42.13,42.13,0,0,0,4,3.68.18.18,0,0,0,.07,0v0c2.72,2,5.91,3.22,11,2.23a28.3,28.3,0,0,0,3.58-.95h0a28.77,28.77,0,0,1,3.12-.81,17.81,17.81,0,0,1,14.77,3.38c-4.45-4.87-10.27-7.91-18-6.43a23.42,23.42,0,0,0-3.1.82,28.59,28.59,0,0,1-3.56.93c-5.66,1.1-9-.46-11.88-2.92Z" transform="translate(-203.85 -79.84)"/><path class="cls-18" d="M990.05,418.43h0l.69.33a28.87,28.87,0,0,1,8.4,14.63,28.87,28.87,0,0,0-8.4-14.63l-.69-.34Z" transform="translate(-203.85 -79.84)"/><path class="cls-16" d="M540.48,553.5a22.2,22.2,0,0,0,16.7,3.28,29.43,29.43,0,0,0,7.21-2.45,29.65,29.65,0,0,1-7.2,2.45,22.24,22.24,0,0,1-16.71-3.28Z" transform="translate(-203.85 -79.84)"/><path class="cls-17" d="M990.05,418.44c5.06,6.21,9.24,16.63,3.12,22.51-1.72,1.66-4.09,2.4-6.65,2.89-1,.19-2,.34-3,.5s-2,.3-3,.49c-3.3.64-6.31,1.7-8.08,4.58-3.34,5.47.74,12.29-3.19,18.06a15.83,15.83,0,0,1-10.33,6.4,22.32,22.32,0,0,1-5.47.34c-3.29-.2-6-.76-8.09-.36-2.32.45-3.91,2.08-4.75,6.67A22.85,22.85,0,0,1,922.78,499a19.92,19.92,0,0,1-16.1-3.92c-2.42-1.83-4.31-2.41-5.82-2.11-5.49,1.05-6.27,13.4-10.77,18.64a27.16,27.16,0,0,1-15.67,9,31.22,31.22,0,0,1-21.12-3.54c-5.55-3.15-9.64-5.19-13-4.54-3.15.6-5.7,3.54-8.24,10.14-4.84,12.52-11.91,18.68-20.14,20.27-9,1.74-19.5-2.05-30-9a13.59,13.59,0,0,0-10.57-2.33c-8.32,1.59-15.86,10.24-24,13.66a49.29,49.29,0,0,1-9.69,3,41,41,0,0,1-23.33-2.2c-7.1-2.82-13.11-7.53-19.51-6.31a14.35,14.35,0,0,0-7.24,4.11c-3.45,3.32-6.32,4.88-8.86,5.36-4,.77-7.17-1.11-10.57-3s-7-3.64-11.76-2.72a22.82,22.82,0,0,0-8.76,4.14,51.51,51.51,0,0,1-20.19,9.14c-14.56,2.8-26-3.11-33.36-7.1-10.45-5.68-15.85-5.19-19.14-5.12a5,5,0,0,0-.72.09c-3.63.7-10.87,5.44-10.87,5.44a30.59,30.59,0,0,1-9.37,3.59,22.21,22.21,0,0,1-18-4.19,21.06,21.06,0,0,0,4.51,4,22.24,22.24,0,0,0,16.71,3.28,29.65,29.65,0,0,0,7.2-2.45c.71-.35,1.44-.73,2.17-1.15,0,0,7.24-4.75,10.87-5.44a3.86,3.86,0,0,1,.72-.08c3.28-.09,8.69-.58,19.14,5.12,7.32,4,18.8,9.88,33.35,7.08,6.2-1.18,13-4,20.2-9.13a22.59,22.59,0,0,1,8.75-4.13c4.8-.92,8.39.87,11.77,2.71s6.57,3.72,10.57,3c2.54-.5,5.4-2,8.86-5.37a14.26,14.26,0,0,1,7.23-4.1c6.4-1.24,12.42,3.47,19.51,6.3a41.14,41.14,0,0,0,23.33,2.2,49.38,49.38,0,0,0,9.7-3c8.15-3.42,15.69-12.06,24-13.66A13.64,13.64,0,0,1,785.15,537c10.45,7,20.92,10.74,30,9,8.24-1.59,15.31-7.74,20.15-20.27,2.54-6.59,5.08-9.54,8.24-10.14,3.38-.65,7.47,1.4,13,4.54a31.23,31.23,0,0,0,21.13,3.54,27.19,27.19,0,0,0,15.67-9c4.49-5.24,5.28-17.59,10.76-18.64,1.52-.29,3.4.28,5.82,2.12A20,20,0,0,0,926,502a22.86,22.86,0,0,0,17.78-18.46c.83-4.6,2.42-6.23,4.74-6.67,2.11-.41,4.81.15,8.09.34a21.91,21.91,0,0,0,5.48-.33,15.8,15.8,0,0,0,10.32-6.4c3.93-5.77-.14-12.59,3.2-18.06,1.76-2.88,4.78-3.94,8.08-4.57,1-.19,2-.35,3-.5s2-.31,3-.49a12.75,12.75,0,0,0,6.65-2.9c2.92-2.81,3.49-6.66,2.74-10.6a28.87,28.87,0,0,0-8.4-14.63l-.69-.33Z" transform="translate(-203.85 -79.84)"/><path class="cls-16" d="M484.29,555.05h0Zm-.1,0h0Zm42.19-9.79a9.21,9.21,0,0,0-1.92.6,8.73,8.73,0,0,1,8.39.74l0-.05a8.86,8.86,0,0,0-6.43-1.29Z" transform="translate(-203.85 -79.84)"/><path class="cls-17" d="M498.5,542.42c-2.27.43-4.69,2.5-7.32,4.59a32.26,32.26,0,0,1-5.53,3.78,4.71,4.71,0,0,1-3,1.93,8.67,8.67,0,0,1-5-.81,14.26,14.26,0,0,1-8.27-2.86c3.78,4.15,6.52,6.11,14.79,6h.2a10.75,10.75,0,0,0,1.5-.16c3.05-.59,5.88-2.73,8.51-4.82s5.06-4.17,7.32-4.6a4,4,0,0,1,3.36.83c3.81,3,7.68,4.48,11.45,3.75a12.13,12.13,0,0,0,5.28-2.56,11.18,11.18,0,0,1,2.65-1.63,9.21,9.21,0,0,1,1.92-.6,8.86,8.86,0,0,1,6.43,1.29l-.32-.39a9.6,9.6,0,0,0-9.33-3.94,10.32,10.32,0,0,0-4.58,2.22A12,12,0,0,1,513.3,547c-3.77.73-7.63-.74-11.45-3.75a3.92,3.92,0,0,0-3.35-.83Z" transform="translate(-203.85 -79.84)"/><path class="cls-16" d="M344.39,524.33h0Zm-.12,0h0Zm-.62.07h0Zm-.14,0h0Zm-.12,0h0Zm-.36,0h0Zm-.13,0h0Zm-.14,0h0Zm-.15,0h0Zm-.17,0h0Zm-.16,0h0Zm-.14,0h0Zm-.15,0h0Zm-.14,0h0Zm8.38-2.34c-.55.1-.86.19-.86.19s.26-.07.73-.16c2.1-.41,8.29-1.18,12.72,2.47l-.4-.4c-4.3-3.21-10-2.51-12.19-2.1Zm-16.56-.64a14.57,14.57,0,0,0,8.15,3,14.57,14.57,0,0,1-8.15-3Zm-.1-.08.1.07-.1-.07Zm-.09-.08,0,0,0,0Zm-.09-.07,0,0,0,0Zm-.08-.07h0Z" transform="translate(-203.85 -79.84)"/><path class="cls-17" d="M331.13,518.85a12.08,12.08,0,0,0,2.18,2.35h0s.05,0,.08.06l0,0,.06,0,0,0,0,0,.1.07h0a14.57,14.57,0,0,0,8.15,3h1.25l.32,0h.16l.1,0h0l.59-.07h.14l.36-.07a11.92,11.92,0,0,0,4.6-1.93h0s.31-.09.86-.19c2.15-.41,7.89-1.11,12.19,2.1-.7-.71-1.42-1.44-2.18-2.17-4.37-4.2-10.9-3.43-13.23-3-.55.1-.87.19-.87.19a11.84,11.84,0,0,1-4.54,1.91,14.1,14.1,0,0,1-10.47-2.34Z" transform="translate(-203.85 -79.84)"/><path class="cls-19" d="M802.18,527.55c-4.39.84-11.64,2.86-8.6,6.62,3.27,4.05,11.1,7,16.71,5.9a7.92,7.92,0,0,0,4.36-2.21c4.58-4.81.69-12.78-8.43-11-.32.07-.65.14-1,.23,0,0-1.3.14-3.06.49Z" transform="translate(-203.85 -79.84)"/><path class="cls-19" d="M869.84,508.87c-.47.1-1,.2-1.46.34,0,0-.52.08-1.34.24-3.72.72-13.74,3-10.33,6.32,3.13,3,10.57,4.91,16.12,3.84a9.63,9.63,0,0,0,4.74-2.16c4.51-4.14,1-10.26-7.73-8.58Z" transform="translate(-203.85 -79.84)"/><path class="cls-19" d="M958.55,465.15a13.64,13.64,0,0,0-2.6.79s-10.08,3.13-7.24,4.79c1.76,1,5.39,1.29,8.6.67a9.64,9.64,0,0,0,4.88-2.18c2.46-2.42.71-4.91-3.64-4.07Z" transform="translate(-203.85 -79.84)"/><path class="cls-19" d="M729.17,535.92c-.46.09-1,.21-1.46.34,0,0-.52.08-1.34.24-3.72.72-13.74,3-10.32,6.32,3.12,3,10.57,4.91,16.12,3.85a9.64,9.64,0,0,0,4.73-2.17c4.52-4.13,1-10.25-7.73-8.58Z" transform="translate(-203.85 -79.84)"/><path class="cls-19" d="M605.77,544.67c-3.18.61-5.4,1.7-3.79,3.63,3.42,4.08,13.85,7.67,20.82,6.33a10.27,10.27,0,0,0,3-1c6.5-3.46,3.1-10.65-8.84-9.72a67.22,67.22,0,0,0-11.17.77Z" transform="translate(-203.85 -79.84)"/><path class="cls-19" d="M413.6,537.17c-2,.38-3.13,1.24-2.22,3,2.52,4.72,11.85,9.86,18,8.68a8,8,0,0,0,1.62-.5c6-2.62,4.05-10.18-6.27-10.72,0,0-7.2-1.17-11.15-.41Z" transform="translate(-203.85 -79.84)"/><path class="cls-19" d="M472.69,543.45c-1.4.27-2.27.93-1.7,2.31,1,2.35,3.72,4.85,6.68,6.15,1.05.08,2.21.11,3.5.09a9.18,9.18,0,0,0,1.48-.16,11.53,11.53,0,0,0,3-1.05c1.69-2.56-.07-6.51-5.62-6.91,0,0-4.65-.94-7.34-.43Z" transform="translate(-203.85 -79.84)"/><path class="cls-20" d="M477.67,551.91a8.67,8.67,0,0,0,5,.81,4.71,4.71,0,0,0,3-1.93,11.53,11.53,0,0,1-3,1.05,9.18,9.18,0,0,1-1.48.16c-1.29,0-2.45,0-3.5-.09Z" transform="translate(-203.85 -79.84)"/><path class="cls-19" d="M333.79,512.51c-.75.15-1.19.56-1,1.44.84,3.09,5.61,7.14,9,6.48l.32-.08c3.4-1,3.19-5.47-2.12-6.69,0,0-4.28-1.53-6.28-1.15Z" transform="translate(-203.85 -79.84)"/><path class="cls-19" d="M300.68,494.31a2,2,0,0,0-1.6,1.89c-.86,5.06,2.77,12.72,7.52,12.09l.32-.06c4.53-.87,6.76-7.51,1.14-10.62,0,0-4.77-3.8-7.38-3.3Z" transform="translate(-203.85 -79.84)"/><path class="cls-19" d="M271.82,475.66c-.59.11-1,.54-1.18,1.41-.82,4.57,2.87,12.49,7.63,12.85a5.14,5.14,0,0,0,1.37-.07c3.79-.72,5.22-5.9,0-9.63,0,0-5.35-5-7.84-4.56Z" transform="translate(-203.85 -79.84)"/><path class="cls-19" d="M370.15,524a1.5,1.5,0,0,0-1.11.7c-.54,1,.63,2.72,2.61,3.75a5.57,5.57,0,0,0,3.46.73,1.48,1.48,0,0,0,1.11-.71c.54-1-.63-2.71-2.61-3.75a5.62,5.62,0,0,0-3.46-.72Z" transform="translate(-203.85 -79.84)"/><path class="cls-21" d="M455.78,105.3c-132.61,25.51-227.26,71.62-237.27,120.13,0,0-7.6,21.32,1.48,53.3s30.09,110.85,30.09,110.85,15.51,46.78,51.42,39.88a47.42,47.42,0,0,0,7.92-2.31c35.17-13.59,26.82-37.72,62.51-44.58,2.67-.51,5.57-.93,8.77-1.24,0,0,27.51-1.41,57.54,32.95,17.44,20,31.72,24.86,43.19,22.66,8.26-1.59,15.07-6.88,20.57-12.87,13.14-14.31-23.8,4.58-55.74-45.12-14.58-22.69,1.84-32.59,24.18-36.89,18.78-3.61,41.74-3.26,54-3.23,29.46.39,60.14-.34,91.63-2.31a1156.61,1156.61,0,0,0,144.58-18c142.66-27.43,241.39-78.7,238.1-131.17-4.33-68.82-182.68-113.61-398.37-100a1155,1155,0,0,0-144.59,18Z" transform="translate(-203.85 -79.84)"/><path class="cls-22" d="M275.35,367.15a79.28,79.28,0,0,1-.68-8c-.09-1.78-.1-2.85-.1-2.85C271,292.2,319.39,323.44,476.2,335.09c177.49,13.18,327.66-33.67,171.54-13.92S294,282.11,287.43,212.18c-3.9-41.7,27-64.47,52.64-76.06-69.48,24.95-114.81,56.58-121.56,89.31,0,0-7.6,21.32,1.48,53.3s30.09,110.85,30.09,110.85,13.11,39.44,43.07,40.51a47.8,47.8,0,0,1,10.91-1.25h0a48.19,48.19,0,0,0,5.35-1.69,64.4,64.4,0,0,0,15.51-8.39C287.05,427.62,277.67,387.3,275.35,367.15Z" transform="translate(-203.85 -79.84)"/><path class="cls-23" d="M251.38,190.17s-41,28.44-18.37,71,142.68,54.71,113.5,46S217.41,259.42,251.38,190.17Z" transform="translate(-203.85 -79.84)"/><path class="cls-22" d="M643.28,430.26s31.69,21.41,71,4.38S748.4,402.92,738.1,412s-66.11,25.89-89.9,5.8S619.94,415.9,643.28,430.26Z" transform="translate(-203.85 -79.84)"/></svg>