<svg xmlns="http://www.w3.org/2000/svg" xmlns:xlink="http://www.w3.org/1999/xlink" viewBox="0 0 890.93 689.33"><defs><style>.cls-1{isolation:isolate;}.cls-2{mix-blend-mode:multiply;fill:url(#radial-gradient);}.cls-3{fill:url(#radial-gradient-2);}.cls-10,.cls-4{opacity:0.3;}.cls-5{fill:url(#linear-gradient);}.cls-6{fill:url(#radial-gradient-3);}.cls-7{fill:#632d1a;}.cls-8{fill:#512013;}.cls-9{fill:#300e07;}.cls-10{mix-blend-mode:screen;}.cls-11{fill:#64332f;}.cls-12{fill:url(#linear-gradient-2);}.cls-13{fill:url(#linear-gradient-3);}.cls-14{fill:url(#linear-gradient-4);}.cls-15{opacity:0.5;}.cls-16{fill:url(#linear-gradient-5);}.cls-17{fill:#e2ace1;}.cls-18{fill:#fcdefa;}.cls-19{fill:#fff5fe;}.cls-20{fill:#fffafe;}.cls-21{fill:url(#linear-gradient-6);}.cls-22{opacity:0.6;fill:url(#radial-gradient-4);}.cls-23{fill:#52271e;}.cls-24{fill:#340d07;}.cls-25{fill:url(#linear-gradient-7);}.cls-26{fill:url(#linear-gradient-8);}.cls-27{fill:url(#linear-gradient-9);}.cls-28{fill:url(#linear-gradient-10);}.cls-29{fill:url(#linear-gradient-11);}.cls-30{fill:url(#linear-gradient-12);}.cls-31{fill:url(#linear-gradient-13);}.cls-32{fill:url(#linear-gradient-14);}.cls-33{fill:url(#linear-gradient-15);}</style><radialGradient id="radial-gradient" cx="670.27" cy="1126.58" r="415.27" gradientTransform="translate(-273.53 240.65) scale(1.07 0.29)" gradientUnits="userSpaceOnUse"><stop offset="0.36"/><stop offset="0.43" stop-color="#050505"/><stop offset="0.51" stop-color="#121212"/><stop offset="0.59" stop-color="#292929"/><stop offset="0.68" stop-color="#494949"/><stop offset="0.77" stop-color="#727272"/><stop offset="0.86" stop-color="#a5a5a5"/><stop offset="0.95" stop-color="#dfdfdf"/><stop offset="1" stop-color="#fff"/></radialGradient><radialGradient id="radial-gradient-2" cx="270.4" cy="219.8" r="798.11" gradientUnits="userSpaceOnUse"><stop offset="0" stop-color="#d4b18e"/><stop offset="1" stop-color="#d7a763"/></radialGradient><linearGradient id="linear-gradient" x1="257.11" y1="466.53" x2="1099.9" y2="466.53" gradientUnits="userSpaceOnUse"><stop offset="0" stop-color="#3d150b"/><stop offset="1" stop-color="#340d07"/></linearGradient><radialGradient id="radial-gradient-3" cx="675.93" cy="186.25" r="477.84" gradientUnits="userSpaceOnUse"><stop offset="0.56" stop-color="#3d150b"/><stop offset="1" stop-color="#340d07"/></radialGradient><linearGradient id="linear-gradient-2" x1="446.34" y1="394.98" x2="407.62" y2="563.33" gradientUnits="userSpaceOnUse"><stop offset="0" stop-color="#3d140b"/><stop offset="0.48" stop-color="#40170e"/><stop offset="0.66" stop-color="#441a12"/><stop offset="1" stop-color="#64332f"/></linearGradient><linearGradient id="linear-gradient-3" x1="847.84" y1="461.84" x2="861.31" y2="608.31" xlink:href="#linear-gradient-2"/><linearGradient id="linear-gradient-4" x1="215.46" y1="164.75" x2="515.13" y2="269.13" xlink:href="#linear-gradient"/><linearGradient id="linear-gradient-5" x1="460.02" y1="191.52" x2="534.79" y2="191.52" xlink:href="#linear-gradient"/><linearGradient id="linear-gradient-6" x1="838.65" y1="198.37" x2="919.67" y2="198.37" xlink:href="#linear-gradient"/><radialGradient id="radial-gradient-4" cx="669.33" cy="164.06" r="178.72" gradientTransform="translate(41.75 -19.14) scale(0.95 1.09)" xlink:href="#radial-gradient-3"/><linearGradient id="linear-gradient-7" x1="918.64" y1="217.19" x2="1033.64" y2="217.19" xlink:href="#linear-gradient"/><linearGradient id="linear-gradient-8" x1="351.9" y1="211.77" x2="466.89" y2="211.77" xlink:href="#linear-gradient"/><linearGradient id="linear-gradient-9" x1="276.93" y1="260.7" x2="373.95" y2="260.7" xlink:href="#linear-gradient"/><linearGradient id="linear-gradient-10" x1="996.14" y1="265.46" x2="1093.15" y2="265.46" xlink:href="#linear-gradient"/><linearGradient id="linear-gradient-11" x1="334.18" y1="304.43" x2="477.77" y2="304.43" xlink:href="#linear-gradient"/><linearGradient id="linear-gradient-12" x1="858.61" y1="304.43" x2="1002.2" y2="304.43" xlink:href="#linear-gradient"/><linearGradient id="linear-gradient-13" x1="583.39" y1="331" x2="726.98" y2="331" xlink:href="#linear-gradient"/><linearGradient id="linear-gradient-14" x1="474.73" y1="329.32" x2="571.75" y2="329.32" xlink:href="#linear-gradient"/><linearGradient id="linear-gradient-15" x1="742.41" y1="329.32" x2="839.42" y2="329.32" xlink:href="#linear-gradient"/></defs><g class="cls-1"><g id="Layer_1" data-name="Layer 1"><ellipse class="cls-2" cx="445.47" cy="568.49" rx="445.47" ry="120.84"/><path class="cls-3" d="M1088.46,593.66c0,49.76-190.53,108.84-415.66,108.84S273.16,643.42,273.16,593.66c0-12.56-29.52-280.58-9.27-316.5,60-106.35,240.61-36.51,408.91-36.51,174.62,0,360.73-47,421,58.06C1111.18,329.11,1088.46,582.5,1088.46,593.66Z" transform="translate(-237.53 -39.34)"/><g class="cls-4"><path class="cls-5" d="M1093.76,356c-60.23-80.21-246.34-44.32-421-44.32-168.3,0-348.94-53.31-408.91,27.87-13.47,18.23-3.92,121.25,3.32,186.73,16.41-2.11,35,2.77,44.89,23.78,8,17,2,32,42.5,42.42,35.35,9.06,42-19,70.14-12.76,25.32,5.59,50,52.11,74.5,56.12,55.55,9.06,49.73-36.52,88-38,30.19-1.15,32.16,31.3,85,39.88,44.19,7.17,54.71-38.56,100.16-34.93,19.34,1.54,23.15,29.41,63.56,27.6,48.8-2.19,50.23-48.79,86.27-54.8,30.75-5.13,38,29.74,81.65,21.43,30.31-5.77,41-24.75,50.56-50.22,7.21-19.17,29.94-13.2,38.16-11.52C1098,473.78,1105.32,371.43,1093.76,356Z" transform="translate(-237.53 -39.34)"/></g><path class="cls-6" d="M1118.76,291.73c-4.47,23.55-10.18,71.57-14.25,156-2.14,44.56,9.34,53.33,1.91,68.86-10,20.87-21.4-6.39-49.14,8.86-19.31,10.61-12.59,51.42-56.45,61.81-43.05,10.2-53.34-33.67-84.09-28.91-36,5.58-32,63.63-80.8,65.66-40.41,1.68-43-39-62.29-40.4-45.46-3.37-57.24,53.87-101.43,47.21-52.86-8-54.14-49-84.32-47.93-38.24,1.36-33.11,54.59-88.66,46.17-24.54-3.72-42-63.83-67.34-69-28.17-5.78-41.73,32.79-77.09,24.37C314.3,574.71,321,532.26,304,524.63c-38.12-17-38.2,10.28-54.24-11.84-11.72-16.16,6.06-29.08,1.77-113.53-3.23-63.67-12.82-106.66-8.57-128.88C256.39,200,430.36,168.44,672.22,168.44S1136,200.82,1118.76,291.73Z" transform="translate(-237.53 -39.34)"/><path class="cls-7" d="M1111.82,263.89c0,53.53-201.43,88-439.46,88s-422.51-34.46-422.51-88S434.33,158,672.36,158,1111.82,210.36,1111.82,263.89Z" transform="translate(-237.53 -39.34)"/><path class="cls-8" d="M1106.42,268.06c0,44.21-198.94,72.66-434,72.66s-417.28-28.45-417.28-72.66,182.19-87.44,417.28-87.44S1106.42,223.85,1106.42,268.06Z" transform="translate(-237.53 -39.34)"/><path class="cls-9" d="M1066,496.92c-19.75,6.5-22.69,80.61-67.57,87-44,6.25-44.75-69.73-76.2-66.82-36.88,3.42-33.79,101.77-83.73,103-41.33,1-42.89-86.68-62.67-87.55-46.5-2.07-56,95.18-101.19,91.1-54.08-4.88-51.89-86.7-82.77-86-39.11.84-23.43,91.4-100.68,71.22C447,597.27,457.8,536.29,431.9,533.1c-28.82-3.53-20.2,52.19-76.6,42.09-41.21-7.38-42.56-74.07-60-78.74-20.45-5.45-15.69,27.79-40,20.16,3.64,11.89,17-3.23,48.68,10.88,17.09,7.62,10.35,50.08,50.86,59.73,35.36,8.41,48.92-30.15,77.09-24.37,25.32,5.19,42.8,65.3,67.34,69,55.55,8.42,50.42-44.81,88.66-46.17,30.18-1.07,31.46,40,84.32,47.93,44.19,6.66,56-50.58,101.43-47.21,19.33,1.43,21.88,42.08,62.29,40.4,48.8-2,44.76-60.08,80.8-65.66,30.75-4.76,41,39.11,84.09,28.91,43.86-10.39,37.14-51.2,56.45-61.82,27.74-15.25,45.64,8.87,45.64-14.26C1084.26,523.18,1082.1,491.61,1066,496.92Z" transform="translate(-237.53 -39.34)"/><g class="cls-10"><path class="cls-11" d="M344.36,241.11C591.83,343,864.56,336.23,1054,295.83c-52.19,25.25-326.29,44.16-488.19,36.25-141.44-6.91-260.49-22.71-298-48C234.09,261.32,291.7,219.44,344.36,241.11Z" transform="translate(-237.53 -39.34)"/></g><g class="cls-10"><path class="cls-11" d="M275.29,272.88c-4.68-3.16-4.15-4.91-3.92-5.66,2.33-7.62,20-18.68,42.28-18.68,8.87,0,18,.7,25.58,5,89.23,50.66,176.88,57.2,166.42,59.82C472.44,321.69,296,286.87,275.29,272.88Z" transform="translate(-237.53 -39.34)"/></g><path class="cls-12" d="M286,465.32c-4.71-7.34-8.46-15.71-11.23-22.09-1.84-4.23-6.4-24.29-14.38-15.35-6.38,7.15-.7,26-1,34.63-.4,11.3-1.45,25.82,9.78,32.88,13.91,8.76,36.91,2.32,46.25,19.64,14.63,27.11,44.1,49.49,74.86,25.38,11.88-9.32,22.36-24.42,39.53-25.38,15.69-.87,25,10.14,30.73,22.07,12.27,25.52,31.33,60,69,43.21,11.33-5,20.31-15.9,26.88-26.13,5.76-9,8-21.26,19.39-25.06,8.9-3,32.13-3.24,15.65-18.14-8.46-7.65-25.23-6.77-35.64-10.36-25.59-8.82-21.72-35-33.9-54.52-17.28-27.71-33.57,8.22-42.81,22.82-13.09,20.66-47.27,28.95-68.23,15.53-20.57-13.17-28.76-38.48-36-60.43-2.08-6.3-3.39-14.48-8.79-19-13.64-11.47-17,8.93-18.74,18.81-3.15,18.32-10.61,40.34-25.4,52.57C306.73,489,294.72,478.9,286,465.32Z" transform="translate(-237.53 -39.34)"/><path class="cls-13" d="M1090.93,469.78c5.56.15,8.93,8.21,7,17.76-3,14.86-12.4,23.49-27.5,25.72-18.43,2.72-29.59,22.8-37.13,37.2-13.85,26.44-39.63,26.34-62.36,8.76-15.33-11.86-37.93-46.31-61.77-32-31.94,19.17-28.95,82.5-77.74,77.14-27.76-3.05-26.78-40.13-43.75-56.07-13.28-12.48-28.51-7.47-41.14,3.66-18.89,16.64-33.83,49.8-59.07,57.68C650,621.31,626.69,560.7,609.6,538.5c-15.58-20.22,13.77-18.09,28-23.59,10.86-4.18,23.31-10,31.61-18.17,9.55-9.43,17.82-22.77,32.41-24.56,32.54-4,41.38,35.73,65.63,47,27.69,12.88,54.31-8,76.83-21.31,12.47-7.37,29.84-13,44.5-8.76,12.79,3.72,25.54,10.32,38.84,10.66,13.92.37,29.22-3.82,42.14-8.61,13.37-5,25.34-17,39.6-19.16,14-2.17,24.78,8,35.35,15.51,14.69,10.46,27,2.88,36.11-10.29C1084.4,471.86,1088,469.71,1090.93,469.78Z" transform="translate(-237.53 -39.34)"/><path class="cls-14" d="M1110,308.65c-45.31,40-226.48,64.82-435.55,64.82-196.38,0-356.88-21.87-410.3-57.69C307.28,382.59,503.65,439.36,704,458.25c240.79,22.69,379.48.38,395.14-75.69C1102.3,367.36,1110,308.65,1110,308.65Z" transform="translate(-237.53 -39.34)"/><g class="cls-15"><path class="cls-16" d="M529.78,183.66a12,12,0,0,1-4.52,1c-10.6.29-20.36,1.28-31-.51-4.87-.82-9.69-1.82-14.5-2.91H465.8c-1.93,2.14-6.08,0-5.76,3.1-.53,9,28.1,15.28,37.24,14,9.81-1.38,21.26,2.66,26.5,3.47a72.71,72.71,0,0,0-3.58-8.39c4.84-.16,13.69-3.17,14-3.68C536,185.46,533.32,184.33,529.78,183.66Z" transform="translate(-237.53 -39.34)"/></g><path class="cls-17" d="M467.48,171.16c6.29-3.81,2.56-9.56,5.67-10.75,9.32,2.4,40.74-12.53,45.62-7.06,0,0,12.18,14.24-12.47,26.82C496.84,169.88,460.7,176.56,467.48,171.16Z" transform="translate(-237.53 -39.34)"/><path class="cls-18" d="M521.4,186.57c-29.2,15.21-29.61-11.6-23.11-17.17,11.06-1.14,16.54-5.46,30.38-5,2.21.08,4.69-.28,5.38-1.6C525.85,172.89,529.07,181.84,521.4,186.57Z" transform="translate(-237.53 -39.34)"/><path class="cls-17" d="M481.27,141.43c6.29-3.8,5.74-5.84,12.57-4.08,9.32,2.4,16.38.39,21.27,5.86,0,0-6.24,11.3-12.69,13.35C493,146.28,474.49,146.84,481.27,141.43Z" transform="translate(-237.53 -39.34)"/><path class="cls-19" d="M480.73,141.67c-2.55,1.39-8.13,3.29-8.56,5.74,2.44-1.42,5.55-4.08,17.81,5.31,12.74,9.75,32.47.86,27.2-6.82-7.07-10.3-7.33-.81-8.75-.22C487,154.55,485.91,138.84,480.73,141.67Z" transform="translate(-237.53 -39.34)"/><path class="cls-19" d="M499.65,119.75c-8.78,14.22,8.23,13.16,8.74,25.29C517.75,126.13,492.36,134.69,499.65,119.75Z" transform="translate(-237.53 -39.34)"/><path class="cls-18" d="M499.65,119.75C492.29,132,509,134.09,508.39,145,494.2,138.62,489.64,131.33,499.65,119.75Z" transform="translate(-237.53 -39.34)"/><path class="cls-19" d="M499.65,119.75c-15.45,10.51-20.07,20-4.45,24,9.31,2.4,10.65-.53,13.19,1.26,0,0,1.26-3.5-4.49-6.19C497.31,135.77,491,130.63,499.65,119.75Z" transform="translate(-237.53 -39.34)"/><path class="cls-20" d="M498.88,120.37c-3.12,3.45-19.47,12.64,3.28,21.28C491.49,134.45,491.51,129.72,498.88,120.37Z" transform="translate(-237.53 -39.34)"/><path class="cls-18" d="M485.58,135.55c-.11,3.41,2.86,6.16,9.7,7.93,9.31,2.4,10.16-.47,13.11,1.56,0,0-2.05.4-8.5,2.45C493,149.67,483.31,144.2,485.58,135.55Z" transform="translate(-237.53 -39.34)"/><path class="cls-20" d="M499.65,119.75c-3.69,9.87,8,6.93,10.46,15.85C507.63,128.86,493.74,131.65,499.65,119.75Z" transform="translate(-237.53 -39.34)"/><path class="cls-18" d="M473.21,160c1.7-4-1.73-12.17-1-12.57,2.44-1.42,5.55-4.83,17.8,4.56,12.74,9.75,32.48,1.61,27.21-6.07,4.55,5.3-3.57,12.56-4.76,13.57C492.94,176,472,162.94,473.21,160Z" transform="translate(-237.53 -39.34)"/><path class="cls-19" d="M472.94,160.4c-8.52-.28-13.12,3.86-15.49,8.92s14.05,15.26,33,14.61,27.36,13.61,31.37,15.68c-2.9-8.89-12.31-25.77-20.52-28.4S472.41,169.39,472.94,160.4Z" transform="translate(-237.53 -39.34)"/><path class="cls-20" d="M472.17,147.41c2.44-1.42,5.54-3.88,17.8,5.5,12.74,9.75,33.32.58,27.21-7,3.09,6.5-11.31,7.58-20.85,4.78C486.11,147.68,476.2,142.35,472.17,147.41Z" transform="translate(-237.53 -39.34)"/><path class="cls-20" d="M516.15,191.54c-1.61-2-14.36-12.06-32-13-16.7-.88-35.36-13.27-14-17.49-5.9,5.19,1.4,11.17,11.47,12.07C493.07,174.15,502.58,169.32,516.15,191.54Z" transform="translate(-237.53 -39.34)"/><path class="cls-18" d="M461.22,182.21c-.43-4.09-3.55-3.12-3.89-11,1.42,5.34,16.65,12.06,33.46,11.47,18.9-.65,27,14.89,31,17-5.24-.82-14.87-4.9-24.67-3.51C488,197.4,460.69,191.19,461.22,182.21Z" transform="translate(-237.53 -39.34)"/><path class="cls-19" d="M518.77,153.35c-1.07,6.61-14.93,14.51-20.48,16.05,13.75,2.81,16.54-5.46,30.38-5C536.06,164.65,536.66,154,518.77,153.35Z" transform="translate(-237.53 -39.34)"/><path class="cls-20" d="M518.77,153.35c10.62,2.05,13.34,5.41,10.1,7.84-2.48,1.88-10.17,2.82-10.22,4.59a86.13,86.13,0,0,1,11.24-.91C537.28,165.12,536.66,154,518.77,153.35Z" transform="translate(-237.53 -39.34)"/><path class="cls-18" d="M512.78,182c1.6,2.44,5.43,8.9,5.49,9.35,4.84-.16,13.88-2.85,14.21-3.36,2.38-5.64,6.37-7.07,7.11-13.8C540.26,168.2,525.17,183.3,512.78,182Z" transform="translate(-237.53 -39.34)"/><path class="cls-19" d="M512.9,182.16c10.18-2.7,14.11-6.07,15.56-9.27a12.54,12.54,0,0,1,2.31-5.1c3.86.26,9.73.42,8.82,6.37S520.62,181.64,512.9,182.16Z" transform="translate(-237.53 -39.34)"/><path class="cls-17" d="M512.9,182.16c10.18-2.7,14.11-6.07,15.56-9.27a12.54,12.54,0,0,1,2.31-5.1l.7-1.26c-6.58,1.37-2.93,10.79-20.59,12.84Z" transform="translate(-237.53 -39.34)"/><path class="cls-17" d="M461.22,182.21c-.21-2.05-1.1-2.83-2-4.09,19,8.3,2.49,12.09,36.88,15.32,18.6,1.75,21.65,4.1,25.66,6.17-5.24-.82-14.87-4.9-24.67-3.51C488,197.4,460.69,191.19,461.22,182.21Z" transform="translate(-237.53 -39.34)"/><g class="cls-15"><path class="cls-21" d="M914.24,189.86a13.09,13.09,0,0,1-4.89,1.08c-11.49.31-22.07,1.39-33.61-.55-5.27-.89-10.5-2-15.71-3.16H844.92c-2.09,2.32-6.6,0-6.25,3.37-.57,9.73,30.45,16.55,40.35,15.15,10.63-1.51,23,2.87,28.72,3.75a80.18,80.18,0,0,0-3.88-9.09c5.24-.17,14.84-3.43,15.19-4C921,191.81,918.08,190.58,914.24,189.86Z" transform="translate(-237.53 -39.34)"/></g><path class="cls-17" d="M846.73,176.31c6.82-4.13,2.78-10.36,6.15-11.65C863,167.27,897,151.08,902.32,157c0,0,13.19,15.42-13.52,29C878.54,174.93,839.38,182.17,846.73,176.31Z" transform="translate(-237.53 -39.34)"/><path class="cls-18" d="M905.16,193c-31.64,16.48-32.08-12.57-25-18.61,12-1.23,17.92-5.91,32.92-5.41,2.39.08,5.08-.3,5.83-1.73C910,178.18,913.47,187.88,905.16,193Z" transform="translate(-237.53 -39.34)"/><path class="cls-17" d="M861.68,144.1c6.82-4.12,6.22-6.34,13.62-4.43,10.09,2.6,17.75.43,23,6.36,0,0-6.75,12.24-13.74,14.46C874.35,149.35,854.33,150,861.68,144.1Z" transform="translate(-237.53 -39.34)"/><path class="cls-19" d="M861.09,144.36c-2.76,1.5-8.81,3.56-9.27,6.21,2.64-1.54,6-4.41,19.3,5.76,13.8,10.56,35.18.93,29.47-7.39-7.67-11.16-8-.87-9.49-.23C867.85,158.31,866.7,141.29,861.09,144.36Z" transform="translate(-237.53 -39.34)"/><path class="cls-19" d="M881.59,120.6c-9.52,15.42,8.93,14.26,9.47,27.41C901.21,127.52,873.69,136.8,881.59,120.6Z" transform="translate(-237.53 -39.34)"/><path class="cls-18" d="M881.59,120.6c-8,13.23,10.09,15.55,9.47,27.41C875.69,141.05,870.75,133.16,881.59,120.6Z" transform="translate(-237.53 -39.34)"/><path class="cls-19" d="M881.59,120.6c-16.74,11.39-21.75,21.68-4.82,26,10.09,2.6,11.54-.57,14.29,1.37,0,0,1.36-3.79-4.86-6.7C879.05,138,872.27,132.4,881.59,120.6Z" transform="translate(-237.53 -39.34)"/><path class="cls-20" d="M880.76,121.28c-3.38,3.73-21.1,13.7,3.55,23.06C872.75,136.53,872.78,131.41,880.76,121.28Z" transform="translate(-237.53 -39.34)"/><path class="cls-18" d="M866.35,137.72c-.12,3.71,3.1,6.68,10.51,8.59,10.09,2.6,11-.5,14.2,1.7,0,0-2.22.43-9.21,2.65C874.42,153,863.89,147.1,866.35,137.72Z" transform="translate(-237.53 -39.34)"/><path class="cls-20" d="M881.59,120.6c-4,10.7,8.7,7.52,11.33,17.18C890.24,130.47,875.19,133.51,881.59,120.6Z" transform="translate(-237.53 -39.34)"/><path class="cls-18" d="M852.94,164.2c1.84-4.39-1.87-13.19-1.12-13.63,2.64-1.54,6-5.22,19.29,4.94,13.8,10.57,35.19,1.75,29.48-6.57,4.93,5.74-3.87,13.61-5.16,14.7C874.32,181.52,851.6,167.41,852.94,164.2Z" transform="translate(-237.53 -39.34)"/><path class="cls-19" d="M852.65,164.66c-9.23-.31-14.22,4.17-16.79,9.66s15.23,16.54,35.72,15.83,29.65,14.75,34,17c-3.15-9.63-13.34-27.91-22.24-30.76S852.08,174.4,852.65,164.66Z" transform="translate(-237.53 -39.34)"/><path class="cls-20" d="M851.82,150.57c2.64-1.54,6-4.2,19.29,6,13.8,10.57,36.1.63,29.48-7.6,3.34,7-12.25,8.21-22.59,5.18C866.92,150.87,856.18,145.09,851.82,150.57Z" transform="translate(-237.53 -39.34)"/><path class="cls-20" d="M899.47,198.39c-1.74-2.17-15.56-13.06-34.68-14.07-18.1-.95-38.32-14.38-15.13-18.95-6.4,5.62,1.52,12.1,12.43,13.08C874.46,179.55,884.76,174.32,899.47,198.39Z" transform="translate(-237.53 -39.34)"/><path class="cls-18" d="M840,188.28c-.46-4.43-3.84-3.38-4.21-11.95,1.54,5.79,18,13.07,36.25,12.44,20.49-.72,29.24,16.13,33.59,18.36-5.68-.88-16.12-5.3-26.74-3.79C868.93,204.74,839.38,198,840,188.28Z" transform="translate(-237.53 -39.34)"/><path class="cls-19" d="M902.32,157c-1.17,7.16-16.19,15.72-22.2,17.38,14.9,3,17.92-5.91,32.92-5.41C921.05,169.26,921.7,157.66,902.32,157Z" transform="translate(-237.53 -39.34)"/><path class="cls-20" d="M902.32,157c11.5,2.22,14.45,5.85,10.94,8.49-2.7,2-11,3.06-11.08,5a91.4,91.4,0,0,1,12.18-1C922.37,169.77,921.7,157.66,902.32,157Z" transform="translate(-237.53 -39.34)"/><path class="cls-18" d="M895.82,188c1.73,2.65,5.88,9.65,5.95,10.14,5.24-.17,15-3.09,15.39-3.64,2.58-6.11,6.9-7.66,7.72-15C925.59,173.1,909.25,189.47,895.82,188Z" transform="translate(-237.53 -39.34)"/><path class="cls-19" d="M896,188.23c11-2.93,15.29-6.58,16.86-10a13.22,13.22,0,0,1,2.51-5.52c4.18.28,10.54.45,9.56,6.9S904.32,187.67,896,188.23Z" transform="translate(-237.53 -39.34)"/><path class="cls-17" d="M896,188.23c11-2.93,15.29-6.58,16.86-10a13.22,13.22,0,0,1,2.51-5.52l.75-1.37c-7.13,1.49-3.17,11.69-22.31,13.92Z" transform="translate(-237.53 -39.34)"/><path class="cls-17" d="M840,188.28c-.23-2.21-1.19-3.06-2.14-4.42,20.61,9,2.69,13.09,40,16.6,20.15,1.89,23.46,4.44,27.81,6.67-5.68-.88-16.12-5.3-26.74-3.79C868.93,204.74,839.38,198,840,188.28Z" transform="translate(-237.53 -39.34)"/><path class="cls-22" d="M499.61,198.75c-14,13-24.46,28.57-28.23,42.17a1.79,1.79,0,0,1,0-.23C467.18,255.47,458.56,293,571.89,281c2.57,9.11,9.72,15.58,23,16.65a150.79,150.79,0,0,0,54.67-5.79c3.87.17,4.4,0,.15,0,.16-.05,18.24.14,21.08.14,203-.1,232.39-46.52,206.49-93.19Z" transform="translate(-237.53 -39.34)"/><path class="cls-8" d="M763.13,90.86c30.45,49.86-38,137.76-114.36,192.14C1023.4,267.42,812.33,117.82,763.13,90.86Z" transform="translate(-237.53 -39.34)"/><path class="cls-23" d="M500.4,265.48c-43.93-3-24.84-59.74,17-83C607.92,154.14,785.1,64.86,634.64,39.53,836.74,31.59,668.23,277.05,500.4,265.48Z" transform="translate(-237.53 -39.34)"/><path class="cls-7" d="M500.4,265.48c-43.93-3-24.84-59.74,17-83C577.46,149,755.31,92.57,634.64,39.53,855.47,37.92,668.23,277.05,500.4,265.48Z" transform="translate(-237.53 -39.34)"/><path class="cls-8" d="M500.4,265.48c-18.74-1.29-26-12.35-24.94-26.42,1.43-18.91,10.57-12,71.05-38.68,97-42.75,247.69-107,88.13-160.85C855.47,37.92,668.23,277.05,500.4,265.48Z" transform="translate(-237.53 -39.34)"/><path class="cls-24" d="M475.46,239.06c3.15,15.39,36.17-.79,96.65-27.43,97-42.75,235.1-140.51,62.53-172.1C838.26,38.05,762.48,248.14,607.23,270,473.75,288.76,474.39,253.13,475.46,239.06Z" transform="translate(-237.53 -39.34)"/><path class="cls-7" d="M600.58,286.87c-43.92-3-24.83-59.74,17-83,60.08-33.47,206.55-133.1,17.08-164.31C875.82,40.84,768.41,298.45,600.58,286.87Z" transform="translate(-237.53 -39.34)"/><path class="cls-8" d="M600.58,286.87c-25.1-1-9.19-34.65,1-40.42,121.81-68.66,244.2-186.34,33-206.92C875.82,40.84,768.69,293.34,600.58,286.87Z" transform="translate(-237.53 -39.34)"/><path class="cls-24" d="M600.58,286.87c-25.07-1.54,23.69-7.24,52.14-23,136.86-75.76,121.06-146,99.38-187C820.86,147.17,734.34,295.11,600.58,286.87Z" transform="translate(-237.53 -39.34)"/><path class="cls-24" d="M763.13,90.86C981.51,231.11,732.39,280.26,648.77,283,1062.72,288.93,812.33,117.82,763.13,90.86Z" transform="translate(-237.53 -39.34)"/><path class="cls-7" d="M762.51,91.07C839.74,147.13,816.88,226.69,648.77,283,897.85,243.31,855.76,142.21,762.51,91.07Z" transform="translate(-237.53 -39.34)"/><path class="cls-8" d="M517.37,182.45c60.09-33.47,246.15-86,117.27-142.92C665.91,86.65,604.9,128.7,517.37,182.45Z" transform="translate(-237.53 -39.34)"/><g class="cls-15"><path class="cls-25" d="M922,205.91c-14.13,12.19,20.39,13.55,28.68,17,3.7,3.82,12.37,6.45,30.27,5.27-.1-.16-.17-.3-.26-.46,7.7-5.66,67.52-4.34,49.62-21.15Z" transform="translate(-237.53 -39.34)"/></g><path class="cls-19" d="M997.24,166.5c7.18,13.05-11.34,42.8-31.43,55.78,16.19,3.36,16.42-2.84,23.34-3.57C1052.84,212,1019.74,178.34,997.24,166.5Z" transform="translate(-237.53 -39.34)"/><path class="cls-20" d="M928.29,208c-11.16-1.27-5.64-15.5,5.28-21,15.69-7.84,61.65-20.18,31.51-35.07C1021.37,154.06,970.92,212.85,928.29,208Z" transform="translate(-237.53 -39.34)"/><path class="cls-19" d="M928.29,208c-4.76-.54-6.48-3.44-6-7,.58-4.81-.55,3.37,15.16-2.72,25.22-9.78,67.72-30.76,27.68-46.3C1021.37,154.06,970.92,212.85,928.29,208Z" transform="translate(-237.53 -39.34)"/><path class="cls-18" d="M922.24,201c.62,3.95,4.12,7.34,19.47.36,33.32-15.16,67-39.36,23.37-49.38,51.9,2,27.2,63.51-12.61,67.3C946.24,214.19,918.28,218.49,922.24,201Z" transform="translate(-237.53 -39.34)"/><path class="cls-17" d="M949.77,211.49a36.31,36.31,0,0,1-16,.2,31.93,31.93,0,0,1-11.55-5c2.9,10.86,24.85,8.17,30.29,12.58a40.8,40.8,0,0,0,5.66-1A17.6,17.6,0,0,1,949.77,211.49Z" transform="translate(-237.53 -39.34)"/><path class="cls-20" d="M950.22,217.41c-8.7-9.69-2.29-18.34,8.63-23.79,15.69-7.84,54.15-31.55,6.23-41.67C1037.1,159,961.18,214.15,950.22,217.41Z" transform="translate(-237.53 -39.34)"/><path class="cls-19" d="M981,223.54c-47.93,3.15-29.7-21-27-22.33,31.82-16.1,64.73-41.6,11.15-49.26,55.45,2.79,36.27,54.46.58,61.89C961.8,214.64,961.56,215.12,981,223.54Z" transform="translate(-237.53 -39.34)"/><path class="cls-18" d="M981,223.54c-34.9,1.05-21.26-10.53-13.83-14.22,35.74-17.74,32.52-35.81,27.46-46.52C1021.68,205.81,968.69,204.78,981,223.54Z" transform="translate(-237.53 -39.34)"/><path class="cls-18" d="M997.24,166.5c65.9,40.73-22.39,44.85-17.13,57.06,6.27-7,58.45,1.88,51.28-26.42C1028,183.79,1000.89,168.37,997.24,166.5Z" transform="translate(-237.53 -39.34)"/><path class="cls-20" d="M997.07,166.54c32.44,27.57-17,45-17.12,55.44C991.67,206.3,1053.05,198.74,997.07,166.54Z" transform="translate(-237.53 -39.34)"/><path class="cls-19" d="M933.57,187c15.69-7.84,63.7-19.1,31.51-35.07C972.51,164.31,956.48,174.33,933.57,187Z" transform="translate(-237.53 -39.34)"/><path class="cls-17" d="M981.3,209c28.93-18.45,18.34-35.45,13.28-46.16,23.71,37.63-13.89,41.55-15.45,54.51C978.9,219.16,974.12,213.54,981.3,209Z" transform="translate(-237.53 -39.34)"/><path class="cls-17" d="M983,218.63c-2.41,1.57-3.65,3.17-2.89,4.93,5.47-6.1,45.92-.12,51.35-17.33C1022.14,216.28,996.18,216.37,983,218.63Z" transform="translate(-237.53 -39.34)"/><g class="cls-15"><path class="cls-26" d="M355.26,200.49c-14.14,12.19,20.38,13.55,28.67,17,3.71,3.83,12.37,6.46,30.27,5.28-.1-.16-.16-.3-.26-.46,7.7-5.66,67.52-4.34,49.63-21.15Z" transform="translate(-237.53 -39.34)"/></g><path class="cls-19" d="M430.49,161.07c7.18,13.06-11.34,42.81-31.42,55.79,16.18,3.36,16.41-2.84,23.33-3.57C486.09,206.55,453,172.92,430.49,161.07Z" transform="translate(-237.53 -39.34)"/><path class="cls-20" d="M361.54,202.56c-11.15-1.27-5.64-15.5,5.28-21,15.69-7.84,61.66-20.18,31.51-35.08C454.62,148.64,404.17,207.43,361.54,202.56Z" transform="translate(-237.53 -39.34)"/><path class="cls-19" d="M361.54,202.56c-4.76-.54-6.48-3.44-6.05-7,.58-4.81-.55,3.37,15.16-2.72,25.22-9.79,67.72-30.76,27.68-46.31C454.62,148.64,404.17,207.43,361.54,202.56Z" transform="translate(-237.53 -39.34)"/><path class="cls-18" d="M355.49,195.55c.63,3.95,4.13,7.34,19.47.36,33.32-15.16,67-39.36,23.37-49.39,51.9,2,27.2,63.52-12.61,67.31C379.49,208.77,351.54,213.07,355.49,195.55Z" transform="translate(-237.53 -39.34)"/><path class="cls-17" d="M383,206.07a36.32,36.32,0,0,1-16,.2,31.85,31.85,0,0,1-11.55-5c2.89,10.86,24.84,8.17,30.28,12.58a40.54,40.54,0,0,0,5.66-1A17.58,17.58,0,0,1,383,206.07Z" transform="translate(-237.53 -39.34)"/><path class="cls-20" d="M383.48,212c-8.71-9.69-2.3-18.34,8.62-23.79,15.69-7.84,54.15-31.55,6.23-41.68C470.36,153.55,394.43,208.73,383.48,212Z" transform="translate(-237.53 -39.34)"/><path class="cls-19" d="M414.2,218.12c-47.93,3.15-29.7-21-27-22.33,31.82-16.1,64.73-41.6,11.15-49.27,55.45,2.8,36.27,54.47.58,61.9C395.05,209.22,394.82,209.7,414.2,218.12Z" transform="translate(-237.53 -39.34)"/><path class="cls-18" d="M414.2,218.12c-34.89,1-21.25-10.53-13.83-14.22,35.74-17.74,32.52-35.81,27.47-46.52C454.93,200.39,401.94,199.36,414.2,218.12Z" transform="translate(-237.53 -39.34)"/><path class="cls-18" d="M430.49,161.07c65.9,40.73-22.38,44.86-17.12,57.07,6.26-7,58.44,1.88,51.27-26.42C461.26,178.37,434.14,163,430.49,161.07Z" transform="translate(-237.53 -39.34)"/><path class="cls-20" d="M430.33,161.12c32.43,27.57-17,45-17.13,55.44C424.92,200.88,486.31,193.32,430.33,161.12Z" transform="translate(-237.53 -39.34)"/><path class="cls-19" d="M366.82,181.6c15.69-7.84,63.7-19.1,31.51-35.08C405.76,158.89,389.74,168.91,366.82,181.6Z" transform="translate(-237.53 -39.34)"/><path class="cls-17" d="M414.55,203.54c28.94-18.45,18.34-35.45,13.29-46.16,23.7,37.63-13.9,41.55-15.46,54.51C412.16,213.74,407.38,208.12,414.55,203.54Z" transform="translate(-237.53 -39.34)"/><path class="cls-17" d="M416.25,213.21c-2.4,1.57-3.64,3.16-2.88,4.93,5.47-6.1,45.91-.12,51.34-17.33C455.39,210.86,429.43,211,416.25,213.21Z" transform="translate(-237.53 -39.34)"/><g class="cls-15"><path class="cls-27" d="M367.44,250.5a15.32,15.32,0,0,1-5.86,1.3c-13.75.38-26.42,1.66-40.24-.66-6.31-1.06-12.58-2.36-18.81-3.78h-18.1c-2.5,2.78-7.9,0-7.48,4-.68,11.66,36.46,19.82,48.32,18.14,12.73-1.8,27.59,3.44,34.39,4.5A96.19,96.19,0,0,0,355,263.14c6.27-.2,17.76-4.11,18.18-4.77C375.53,252.85,372,251.37,367.44,250.5Z" transform="translate(-237.53 -39.34)"/></g><path class="cls-17" d="M286.6,234.28c8.16-4.94,3.33-12.4,7.37-13.94,12.08,3.11,52.85-16.27,59.19-9.16,0,0,15.8,18.47-16.19,34.79C324.7,232.63,277.8,241.3,286.6,234.28Z" transform="translate(-237.53 -39.34)"/><path class="cls-18" d="M356.57,254.28c-37.89,19.74-38.42-15.05-30-22.29,14.35-1.47,21.46-7.07,39.42-6.47,2.87.09,6.1-.37,7-2.08C362.35,236.52,366.52,248.14,356.57,254.28Z" transform="translate(-237.53 -39.34)"/><path class="cls-17" d="M304.5,195.71c8.17-4.94,7.45-7.59,16.31-5.3,12.09,3.12,21.26.51,27.6,7.61,0,0-8.09,14.66-16.46,17.32C319.67,202,295.71,202.73,304.5,195.71Z" transform="translate(-237.53 -39.34)"/><path class="cls-19" d="M303.79,196c-3.29,1.8-10.54,4.26-11.09,7.44,3.15-1.84,7.2-5.28,23.11,6.89,16.52,12.66,42.12,1.12,35.28-8.84-9.17-13.36-9.51-1-11.36-.28C311.89,212.73,310.52,192.35,303.79,196Z" transform="translate(-237.53 -39.34)"/><path class="cls-19" d="M328.34,167.58C317,186,339,184.65,339.69,200.39,351.83,175.86,318.89,187,328.34,167.58Z" transform="translate(-237.53 -39.34)"/><path class="cls-18" d="M328.34,167.58c-9.54,15.84,12.09,18.61,11.35,32.81C321.28,192.06,315.36,182.61,328.34,167.58Z" transform="translate(-237.53 -39.34)"/><path class="cls-19" d="M328.34,167.58c-20,13.63-26,25.95-5.77,31.17,12.08,3.12,13.82-.68,17.12,1.64,0,0,1.63-4.54-5.82-8C325.31,188.36,317.18,181.7,328.34,167.58Z" transform="translate(-237.53 -39.34)"/><path class="cls-20" d="M327.35,168.38c-4,4.47-25.27,16.41,4.26,27.61C317.76,186.65,317.79,180.52,327.35,168.38Z" transform="translate(-237.53 -39.34)"/><path class="cls-18" d="M310.09,188.08c-.14,4.43,3.72,8,12.59,10.28,12.08,3.12,13.19-.6,17,2,0,0-2.66.52-11,3.18C319.76,206.4,307.15,199.31,310.09,188.08Z" transform="translate(-237.53 -39.34)"/><path class="cls-20" d="M328.34,167.58c-4.78,12.8,10.43,9,13.58,20.57C338.7,179.39,320.68,183,328.34,167.58Z" transform="translate(-237.53 -39.34)"/><path class="cls-18" d="M294,219.78c2.2-5.25-2.24-15.79-1.34-16.32,3.15-1.84,7.19-6.26,23.09,5.92,16.53,12.65,42.14,2.09,35.3-7.87,5.91,6.88-4.63,16.29-6.18,17.6C319.64,240.53,292.43,223.62,294,219.78Z" transform="translate(-237.53 -39.34)"/><path class="cls-19" d="M293.69,220.33c-11.05-.37-17,5-20.1,11.57s18.23,19.8,42.77,18.95,35.51,17.67,40.71,20.34c-3.77-11.53-16-33.43-26.63-36.84S293,232,293.69,220.33Z" transform="translate(-237.53 -39.34)"/><path class="cls-20" d="M292.7,203.46c3.15-1.84,7.18-5,23.09,7.15,16.53,12.65,43.24.75,35.3-9.1,4,8.43-14.67,9.83-27,6.2C310.78,203.81,297.92,196.9,292.7,203.46Z" transform="translate(-237.53 -39.34)"/><path class="cls-20" d="M349.76,260.73c-2.08-2.61-18.64-15.65-41.54-16.85-21.66-1.14-45.88-17.22-18.11-22.7-7.66,6.73,1.82,14.49,14.89,15.66C319.81,238.17,332.15,231.9,349.76,260.73Z" transform="translate(-237.53 -39.34)"/><path class="cls-18" d="M278.49,248.62c-.56-5.31-4.61-4.05-5.05-14.31,1.84,6.93,21.6,15.65,43.41,14.89,24.53-.85,35,19.32,40.22,22-6.8-1.06-19.3-6.34-32-4.54C313.19,268.33,277.8,260.28,278.49,248.62Z" transform="translate(-237.53 -39.34)"/><path class="cls-19" d="M353.16,211.18c-1.39,8.58-19.38,18.83-26.58,20.81,17.84,3.66,21.46-7.07,39.42-6.47C375.6,225.84,376.37,212,353.16,211.18Z" transform="translate(-237.53 -39.34)"/><path class="cls-20" d="M353.16,211.18c13.78,2.66,17.31,7,13.11,10.17-3.23,2.44-13.21,3.66-13.27,6,0,0,9.31-1.36,14.59-1.18C377.18,226.44,376.37,212,353.16,211.18Z" transform="translate(-237.53 -39.34)"/><path class="cls-18" d="M345.38,248.31c2.08,3.16,7.05,11.56,7.13,12.13,6.28-.2,18-3.69,18.43-4.35,3.09-7.32,8.27-9.18,9.24-17.92C381,230.44,361.47,250,345.38,248.31Z" transform="translate(-237.53 -39.34)"/><path class="cls-19" d="M345.54,248.56c13.21-3.51,18.31-7.88,20.19-12a16,16,0,0,1,3-6.61c5,.33,12.62.54,11.45,8.26S355.56,247.88,345.54,248.56Z" transform="translate(-237.53 -39.34)"/><path class="cls-17" d="M345.54,248.56c13.21-3.51,18.31-7.88,20.19-12a16,16,0,0,1,3-6.61l.9-1.64c-8.54,1.79-3.8,14-26.71,16.67Z" transform="translate(-237.53 -39.34)"/><path class="cls-17" d="M278.49,248.62c-.28-2.66-1.43-3.67-2.57-5.3,24.68,10.76,3.23,15.68,47.85,19.88,24.14,2.27,28.1,5.32,33.3,8-6.8-1.06-19.3-6.34-32-4.54C313.19,268.33,277.8,260.28,278.49,248.62Z" transform="translate(-237.53 -39.34)"/><g class="cls-15"><path class="cls-28" d="M1086.65,255.27a15.51,15.51,0,0,1-5.86,1.29c-13.76.38-26.42,1.67-40.24-.65-6.32-1.07-12.58-2.36-18.81-3.78h-18.1c-2.51,2.77-7.9,0-7.48,4-.69,11.67,36.46,19.83,48.32,18.15,12.72-1.81,27.59,3.44,34.39,4.5a95.72,95.72,0,0,0-4.65-10.89c6.28-.21,17.77-4.11,18.19-4.77C1094.74,257.61,1091.25,256.14,1086.65,255.27Z" transform="translate(-237.53 -39.34)"/></g><path class="cls-17" d="M1005.81,239.05c8.16-4.94,3.32-12.4,7.37-14,12.08,3.12,52.85-16.26,59.19-9.16,0,0,15.8,18.48-16.19,34.8C1043.91,237.39,997,246.06,1005.81,239.05Z" transform="translate(-237.53 -39.34)"/><path class="cls-18" d="M1075.78,259c-37.89,19.74-38.42-15.05-30-22.28,14.35-1.47,21.46-7.08,39.42-6.48,2.87.1,6.09-.36,7-2.07C1081.56,241.29,1085.73,252.9,1075.78,259Z" transform="translate(-237.53 -39.34)"/><path class="cls-17" d="M1023.71,200.48c8.17-4.94,7.45-7.59,16.31-5.3,12.09,3.11,21.25.5,27.6,7.61,0,0-8.1,14.65-16.47,17.32C1038.88,206.76,1014.92,207.49,1023.71,200.48Z" transform="translate(-237.53 -39.34)"/><path class="cls-19" d="M1023,200.78c-3.3,1.81-10.54,4.27-11.09,7.45,3.15-1.84,7.2-5.29,23.1,6.89,16.53,12.65,42.13,1.12,35.29-8.84-9.17-13.37-9.51-1.05-11.36-.29C1031.1,217.49,1029.73,197.11,1023,200.78Z" transform="translate(-237.53 -39.34)"/><path class="cls-19" d="M1047.55,172.34c-11.39,18.46,10.69,17.07,11.35,32.81C1071,180.62,1038.1,191.73,1047.55,172.34Z" transform="translate(-237.53 -39.34)"/><path class="cls-18" d="M1047.55,172.34c-9.55,15.84,12.09,18.61,11.35,32.81C1040.49,196.82,1034.57,187.37,1047.55,172.34Z" transform="translate(-237.53 -39.34)"/><path class="cls-19" d="M1047.55,172.34c-20,13.64-26,25.95-5.77,31.18,12.08,3.11,13.82-.69,17.12,1.63,0,0,1.63-4.53-5.83-8C1044.52,193.13,1036.39,186.47,1047.55,172.34Z" transform="translate(-237.53 -39.34)"/><path class="cls-20" d="M1046.56,173.15c-4,4.47-25.27,16.4,4.26,27.61C1037,191.41,1037,185.28,1046.56,173.15Z" transform="translate(-237.53 -39.34)"/><path class="cls-18" d="M1029.3,192.84c-.14,4.43,3.72,8,12.58,10.29,12.09,3.11,13.2-.61,17,2,0,0-2.66.52-11,3.18C1039,211.17,1026.36,204.07,1029.3,192.84Z" transform="translate(-237.53 -39.34)"/><path class="cls-20" d="M1047.55,172.34c-4.78,12.8,10.43,9,13.58,20.57C1057.91,184.16,1039.89,187.79,1047.55,172.34Z" transform="translate(-237.53 -39.34)"/><path class="cls-18" d="M1013.25,224.55c2.2-5.26-2.25-15.8-1.34-16.32,3.15-1.84,7.19-6.26,23.09,5.91,16.53,12.66,42.14,2.1,35.3-7.86,5.9,6.87-4.63,16.29-6.18,17.6C1038.85,245.29,1011.64,228.39,1013.25,224.55Z" transform="translate(-237.53 -39.34)"/><path class="cls-19" d="M1012.9,225.09c-11-.37-17,5-20.1,11.58s18.23,19.8,42.76,19,35.51,17.66,40.72,20.34c-3.77-11.53-16-33.43-26.63-36.85S1012.21,236.75,1012.9,225.09Z" transform="translate(-237.53 -39.34)"/><path class="cls-20" d="M1011.91,208.23c3.15-1.84,7.18-5,23.09,7.14,16.53,12.65,43.24.75,35.3-9.09,4,8.43-14.67,9.82-27,6.19C1030,208.58,1017.13,201.66,1011.91,208.23Z" transform="translate(-237.53 -39.34)"/><path class="cls-20" d="M1069,265.49c-2.09-2.6-18.64-15.64-41.54-16.85-21.67-1.14-45.88-17.22-18.11-22.69-7.66,6.73,1.81,14.48,14.89,15.66C1039,242.93,1051.35,236.67,1069,265.49Z" transform="translate(-237.53 -39.34)"/><path class="cls-18" d="M997.7,253.38c-.56-5.3-4.61-4-5.06-14.31,1.85,6.93,21.61,15.65,43.42,14.89,24.53-.85,35,19.32,40.22,22-6.8-1.06-19.3-6.35-32-4.54C1032.4,273.1,997,265,997.7,253.38Z" transform="translate(-237.53 -39.34)"/><path class="cls-19" d="M1072.37,215.94c-1.39,8.58-19.38,18.83-26.58,20.82,17.84,3.65,21.46-7.08,39.42-6.48C1094.8,230.6,1095.58,216.72,1072.37,215.94Z" transform="translate(-237.53 -39.34)"/><path class="cls-20" d="M1072.37,215.94c13.77,2.66,17.3,7,13.11,10.18-3.23,2.43-13.21,3.66-13.27,5.95,0,0,9.31-1.36,14.59-1.18C1096.39,231.21,1095.58,216.72,1072.37,215.94Z" transform="translate(-237.53 -39.34)"/><path class="cls-18" d="M1064.59,253.08c2.08,3.16,7.05,11.55,7.13,12.13,6.28-.21,18-3.7,18.43-4.36,3.09-7.31,8.27-9.17,9.24-17.91C1100.25,235.21,1080.67,254.8,1064.59,253.08Z" transform="translate(-237.53 -39.34)"/><path class="cls-19" d="M1064.75,253.33c13.21-3.51,18.3-7.89,20.19-12a16.09,16.09,0,0,1,3-6.62c5,.34,12.62.55,11.45,8.27S1074.77,252.65,1064.75,253.33Z" transform="translate(-237.53 -39.34)"/><path class="cls-17" d="M1064.75,253.33c13.21-3.51,18.3-7.89,20.19-12a16.09,16.09,0,0,1,3-6.62l.9-1.63c-8.54,1.79-3.8,14-26.71,16.66Z" transform="translate(-237.53 -39.34)"/><path class="cls-17" d="M997.7,253.38c-.28-2.65-1.43-3.66-2.57-5.29,24.68,10.76,3.22,15.68,47.84,19.87,24.14,2.27,28.1,5.32,33.31,8-6.8-1.06-19.3-6.35-32-4.54C1032.4,273.1,997,265,997.7,253.38Z" transform="translate(-237.53 -39.34)"/><g class="cls-15"><path class="cls-29" d="M338.37,290.35c-17.65,15.22,25.46,16.92,35.81,21.22,4.62,4.78,15.45,8.06,37.8,6.59-.13-.2-.21-.38-.33-.58,9.62-7.06,84.31-5.42,62-26.41Z" transform="translate(-237.53 -39.34)"/></g><path class="cls-19" d="M432.31,241.13c9,16.3-14.15,53.45-39.23,69.66,20.21,4.2,20.49-3.55,29.14-4.46C501.75,297.92,460.41,255.92,432.31,241.13Z" transform="translate(-237.53 -39.34)"/><path class="cls-20" d="M346.22,292.94c-13.93-1.59-7.05-19.36,6.59-26.18,19.6-9.79,77-25.19,39.35-43.79C462.45,225.61,399.46,299,346.22,292.94Z" transform="translate(-237.53 -39.34)"/><path class="cls-19" d="M346.22,292.94c-5.94-.68-8.09-4.3-7.55-8.76.72-6-.69,4.22,18.93-3.4,31.49-12.21,84.56-38.4,34.56-57.81C462.45,225.61,399.46,299,346.22,292.94Z" transform="translate(-237.53 -39.34)"/><path class="cls-18" d="M338.67,284.18c.78,4.94,5.15,9.16,24.3.45,41.62-18.93,83.65-49.15,29.19-61.66,64.81,2.43,34,79.3-15.75,84C368.63,300.69,333.73,306.06,338.67,284.18Z" transform="translate(-237.53 -39.34)"/><path class="cls-17" d="M373.05,297.32a45.56,45.56,0,0,1-20,.25,39.76,39.76,0,0,1-14.42-6.27c3.61,13.57,31,10.2,37.81,15.71a49.94,49.94,0,0,0,7.07-1.21A21.91,21.91,0,0,1,373.05,297.32Z" transform="translate(-237.53 -39.34)"/><path class="cls-20" d="M373.61,304.71c-10.87-12.1-2.86-22.89,10.77-29.71,19.6-9.79,67.62-39.4,7.78-52C482.1,231.74,387.29,300.64,373.61,304.71Z" transform="translate(-237.53 -39.34)"/><path class="cls-19" d="M412,312.37c-59.85,3.94-37.09-26.2-33.75-27.89,39.74-20.1,80.84-52,13.93-61.51,69.24,3.48,45.29,68,.72,77.28C388.06,301.26,387.77,301.85,412,312.37Z" transform="translate(-237.53 -39.34)"/><path class="cls-18" d="M412,312.37c-43.57,1.31-26.54-13.16-17.27-17.76,44.63-22.15,40.6-44.71,34.29-58.09C462.83,290.22,396.67,288.94,412,312.37Z" transform="translate(-237.53 -39.34)"/><path class="cls-18" d="M432.31,241.13c82.3,50.86-27.94,56-21.37,71.27,7.82-8.74,73,2.34,64-33C470.74,262.73,436.88,243.48,432.31,241.13Z" transform="translate(-237.53 -39.34)"/><path class="cls-20" d="M432.11,241.19c40.51,34.43-21.18,56.21-21.39,69.23C425.37,290.84,502,281.39,432.11,241.19Z" transform="translate(-237.53 -39.34)"/><path class="cls-19" d="M352.81,266.76c19.6-9.79,79.55-23.84,39.35-43.79C401.44,238.41,381.43,250.91,352.81,266.76Z" transform="translate(-237.53 -39.34)"/><path class="cls-17" d="M412.42,294.16c36.12-23,22.89-44.26,16.58-57.64,29.6,47-17.35,51.88-19.3,68.06C409.42,306.9,403.45,299.87,412.42,294.16Z" transform="translate(-237.53 -39.34)"/><path class="cls-17" d="M414.54,306.24c-3,1.95-4.56,3.95-3.6,6.16,6.83-7.63,57.33-.16,64.11-21.65C463.41,303.3,431,303.41,414.54,306.24Z" transform="translate(-237.53 -39.34)"/><g class="cls-15"><path class="cls-30" d="M862.8,290.35c-17.65,15.22,25.46,16.92,35.81,21.22,4.63,4.78,15.45,8.06,37.8,6.59-.13-.2-.21-.38-.33-.58,9.62-7.06,84.31-5.42,62-26.41Z" transform="translate(-237.53 -39.34)"/></g><path class="cls-19" d="M956.75,241.13c9,16.3-14.16,53.45-39.24,69.66,20.21,4.2,20.49-3.55,29.14-4.46C1026.18,297.92,984.84,255.92,956.75,241.13Z" transform="translate(-237.53 -39.34)"/><path class="cls-20" d="M870.65,292.94c-13.93-1.59-7-19.36,6.59-26.18,19.6-9.79,77-25.19,39.36-43.79C986.88,225.61,923.89,299,870.65,292.94Z" transform="translate(-237.53 -39.34)"/><path class="cls-19" d="M870.65,292.94c-5.94-.68-8.09-4.3-7.55-8.76.72-6-.69,4.22,18.93-3.4,31.49-12.21,84.56-38.4,34.57-57.81C986.88,225.61,923.89,299,870.65,292.94Z" transform="translate(-237.53 -39.34)"/><path class="cls-18" d="M863.1,284.18c.78,4.94,5.15,9.16,24.31.45C929,265.7,971.05,235.48,916.6,223c64.8,2.43,33.95,79.3-15.76,84C893.06,300.69,858.16,306.06,863.1,284.18Z" transform="translate(-237.53 -39.34)"/><path class="cls-17" d="M897.48,297.32a45.56,45.56,0,0,1-20,.25A39.76,39.76,0,0,1,863,291.3c3.61,13.57,31,10.2,37.81,15.71a49.94,49.94,0,0,0,7.07-1.21A21.91,21.91,0,0,1,897.48,297.32Z" transform="translate(-237.53 -39.34)"/><path class="cls-20" d="M898,304.71c-10.87-12.1-2.86-22.89,10.77-29.71,19.6-9.79,67.62-39.4,7.79-52C1006.53,231.74,911.72,300.64,898,304.71Z" transform="translate(-237.53 -39.34)"/><path class="cls-19" d="M936.41,312.37c-59.85,3.94-37.09-26.2-33.75-27.89,39.74-20.1,80.84-52,13.94-61.51,69.23,3.48,45.29,68,.71,77.28C912.5,301.26,912.2,301.85,936.41,312.37Z" transform="translate(-237.53 -39.34)"/><path class="cls-18" d="M936.41,312.37c-43.57,1.31-26.54-13.16-17.27-17.76,44.63-22.15,40.6-44.71,34.3-58.09C987.26,290.22,921.1,288.94,936.41,312.37Z" transform="translate(-237.53 -39.34)"/><path class="cls-18" d="M956.75,241.13c82.29,50.86-28,56-21.38,71.27,7.82-8.74,73,2.34,64-33C995.17,262.73,961.31,243.48,956.75,241.13Z" transform="translate(-237.53 -39.34)"/><path class="cls-20" d="M956.54,241.19c40.51,34.43-21.18,56.21-21.39,69.23C949.8,290.84,1026.45,281.39,956.54,241.19Z" transform="translate(-237.53 -39.34)"/><path class="cls-19" d="M877.24,266.76c19.6-9.79,79.55-23.84,39.36-43.79C925.87,238.41,905.86,250.91,877.24,266.76Z" transform="translate(-237.53 -39.34)"/><path class="cls-17" d="M936.85,294.16c36.13-23,22.89-44.26,16.59-57.64,29.59,47-17.36,51.88-19.31,68.06C933.86,306.9,927.88,299.87,936.85,294.16Z" transform="translate(-237.53 -39.34)"/><path class="cls-17" d="M939,306.24c-3,1.95-4.55,3.95-3.6,6.16,6.83-7.63,57.33-.16,64.11-21.65C987.84,303.3,955.42,303.41,939,306.24Z" transform="translate(-237.53 -39.34)"/><g class="cls-15"><path class="cls-31" d="M587.58,316.92c-17.65,15.22,25.46,16.91,35.81,21.22,4.63,4.78,15.45,8.06,37.8,6.59-.13-.2-.21-.38-.33-.58,9.62-7.07,84.31-5.42,62-26.41Z" transform="translate(-237.53 -39.34)"/></g><path class="cls-19" d="M681.53,267.7c9,16.3-14.16,53.45-39.24,69.66,20.21,4.2,20.49-3.55,29.14-4.46C751,324.49,709.62,282.49,681.53,267.7Z" transform="translate(-237.53 -39.34)"/><path class="cls-20" d="M595.43,319.51c-13.93-1.59-7-19.36,6.59-26.18,19.6-9.79,77-25.19,39.36-43.8C711.66,252.18,648.67,325.59,595.43,319.51Z" transform="translate(-237.53 -39.34)"/><path class="cls-19" d="M595.43,319.51c-5.94-.68-8.09-4.3-7.55-8.76.72-6-.69,4.21,18.93-3.4,31.49-12.21,84.56-38.4,34.57-57.82C711.66,252.18,648.67,325.59,595.43,319.51Z" transform="translate(-237.53 -39.34)"/><path class="cls-18" d="M587.88,310.75c.78,4.94,5.15,9.16,24.31.45,41.61-18.93,83.64-49.15,29.19-61.67,64.8,2.44,34,79.31-15.76,84C617.84,327.26,582.94,332.62,587.88,310.75Z" transform="translate(-237.53 -39.34)"/><path class="cls-17" d="M622.26,323.89a45.56,45.56,0,0,1-20,.25,39.76,39.76,0,0,1-14.42-6.27c3.61,13.56,31,10.2,37.81,15.7a49.93,49.93,0,0,0,7.07-1.2A21.91,21.91,0,0,1,622.26,323.89Z" transform="translate(-237.53 -39.34)"/><path class="cls-20" d="M622.82,331.28c-10.87-12.1-2.86-22.9,10.77-29.71,19.6-9.79,67.62-39.4,7.79-52C731.31,258.31,636.5,327.21,622.82,331.28Z" transform="translate(-237.53 -39.34)"/><path class="cls-19" d="M661.19,338.94c-59.85,3.93-37.09-26.2-33.75-27.89,39.74-20.1,80.84-51.95,13.94-61.52,69.23,3.49,45.29,68,.71,77.29C637.27,327.82,637,328.42,661.19,338.94Z" transform="translate(-237.53 -39.34)"/><path class="cls-18" d="M661.19,338.94c-43.57,1.31-26.54-13.16-17.27-17.76,44.63-22.15,40.6-44.71,34.3-58.09C712,316.79,645.88,315.51,661.19,338.94Z" transform="translate(-237.53 -39.34)"/><path class="cls-18" d="M681.53,267.7c82.29,50.86-27.95,56-21.38,71.26,7.82-8.73,73,2.35,64-33C720,289.3,686.09,270,681.53,267.7Z" transform="translate(-237.53 -39.34)"/><path class="cls-20" d="M681.32,267.76C721.83,302.19,660.14,324,659.93,337,674.58,317.41,751.23,308,681.32,267.76Z" transform="translate(-237.53 -39.34)"/><path class="cls-19" d="M602,293.33c19.6-9.79,79.55-23.85,39.36-43.8C650.65,265,630.64,277.48,602,293.33Z" transform="translate(-237.53 -39.34)"/><path class="cls-17" d="M661.63,320.73c36.13-23,22.89-44.26,16.59-57.64,29.59,47-17.36,51.88-19.31,68.06C658.64,333.47,652.66,326.44,661.63,320.73Z" transform="translate(-237.53 -39.34)"/><path class="cls-17" d="M663.75,332.81c-3,1.95-4.55,3.95-3.6,6.15,6.83-7.62,57.33-.15,64.11-21.64C712.62,329.87,680.2,330,663.75,332.81Z" transform="translate(-237.53 -39.34)"/><g class="cls-15"><path class="cls-32" d="M565.25,319.12a15.41,15.41,0,0,1-5.86,1.3c-13.76.38-26.43,1.66-40.25-.66-6.31-1.06-12.57-2.36-18.81-3.78h-18.1c-2.5,2.78-7.89,0-7.47,4-.69,11.66,36.45,19.82,48.31,18.14,12.73-1.8,27.59,3.44,34.39,4.5a94.33,94.33,0,0,0-4.64-10.89c6.28-.2,17.76-4.11,18.18-4.77C573.34,321.47,569.84,320,565.25,319.12Z" transform="translate(-237.53 -39.34)"/></g><path class="cls-17" d="M484.4,302.9c8.17-4.94,3.33-12.4,7.37-13.94,12.08,3.11,52.85-16.27,59.2-9.16,0,0,15.79,18.47-16.19,34.79C522.5,301.25,475.61,309.92,484.4,302.9Z" transform="translate(-237.53 -39.34)"/><path class="cls-18" d="M554.37,322.89c-37.89,19.75-38.42-15.05-30-22.28,14.34-1.47,21.46-7.07,39.42-6.47,2.86.09,6.09-.37,7-2.08C560.15,305.14,564.33,316.76,554.37,322.89Z" transform="translate(-237.53 -39.34)"/><path class="cls-17" d="M502.31,264.33c8.16-4.94,7.44-7.59,16.31-5.3,12.08,3.11,21.25.51,27.59,7.61,0,0-8.09,14.66-16.46,17.32C517.47,270.62,493.51,271.35,502.31,264.33Z" transform="translate(-237.53 -39.34)"/><path class="cls-19" d="M501.6,264.64c-3.3,1.8-10.55,4.26-11.1,7.44,3.15-1.84,7.2-5.28,23.11,6.89,16.53,12.65,42.12,1.12,35.28-8.84-9.17-13.36-9.5-1.05-11.35-.28C509.69,281.35,508.32,261,501.6,264.64Z" transform="translate(-237.53 -39.34)"/><path class="cls-19" d="M526.15,236.2c-11.4,18.45,10.69,17.07,11.34,32.81C549.64,244.48,516.69,255.59,526.15,236.2Z" transform="translate(-237.53 -39.34)"/><path class="cls-18" d="M526.15,236.2C516.6,252,538.23,254.81,537.49,269,519.08,260.68,513.17,251.23,526.15,236.2Z" transform="translate(-237.53 -39.34)"/><path class="cls-19" d="M526.15,236.2c-20,13.63-26,25.95-5.78,31.17,12.09,3.12,13.82-.68,17.12,1.64,0,0,1.63-4.54-5.82-8C523.11,257,515,250.32,526.15,236.2Z" transform="translate(-237.53 -39.34)"/><path class="cls-20" d="M525.16,237c-4,4.47-25.28,16.41,4.25,27.61C515.56,255.26,515.59,249.14,525.16,237Z" transform="translate(-237.53 -39.34)"/><path class="cls-18" d="M507.89,256.7c-.14,4.43,3.72,8,12.59,10.28,12.08,3.12,13.19-.6,17,2,0,0-2.66.51-11,3.18C517.56,275,505,267.93,507.89,256.7Z" transform="translate(-237.53 -39.34)"/><path class="cls-20" d="M526.15,236.2c-4.78,12.8,10.42,9,13.57,20.57C536.5,248,518.48,251.64,526.15,236.2Z" transform="translate(-237.53 -39.34)"/><path class="cls-18" d="M491.84,288.4c2.21-5.25-2.24-15.79-1.34-16.32,3.15-1.84,7.19-6.26,23.1,5.92,16.52,12.65,42.13,2.09,35.29-7.87,5.91,6.87-4.63,16.29-6.17,17.6C517.45,309.15,490.23,292.24,491.84,288.4Z" transform="translate(-237.53 -39.34)"/><path class="cls-19" d="M491.49,289c-11.05-.37-17,5-20.1,11.57s18.24,19.8,42.77,19,35.51,17.67,40.71,20.34c-3.77-11.53-16-33.43-26.63-36.84S490.81,300.61,491.49,289Z" transform="translate(-237.53 -39.34)"/><path class="cls-20" d="M490.5,272.08c3.15-1.84,7.19-5,23.09,7.15,16.53,12.65,43.24.75,35.3-9.1,4,8.43-14.66,9.83-27,6.2C508.58,272.43,495.72,265.52,490.5,272.08Z" transform="translate(-237.53 -39.34)"/><path class="cls-20" d="M547.56,329.35c-2.08-2.61-18.64-15.65-41.53-16.85-21.67-1.14-45.89-17.22-18.12-22.7-7.66,6.73,1.82,14.49,14.89,15.66C517.62,306.79,530,300.52,547.56,329.35Z" transform="translate(-237.53 -39.34)"/><path class="cls-18" d="M476.29,317.24c-.56-5.31-4.61-4.05-5.05-14.31,1.84,6.93,21.6,15.65,43.41,14.89,24.53-.86,35,19.32,40.22,22-6.8-1.06-19.29-6.34-32-4.54C511,337,475.6,328.9,476.29,317.24Z" transform="translate(-237.53 -39.34)"/><path class="cls-19" d="M551,279.8c-1.4,8.58-19.39,18.83-26.58,20.81,17.84,3.66,21.46-7.07,39.42-6.47C573.4,294.45,574.18,280.57,551,279.8Z" transform="translate(-237.53 -39.34)"/><path class="cls-20" d="M551,279.8c13.77,2.66,17.3,7,13.1,10.17-3.23,2.43-13.21,3.66-13.26,6,0,0,9.3-1.36,14.58-1.19C575,295.06,574.18,280.57,551,279.8Z" transform="translate(-237.53 -39.34)"/><path class="cls-18" d="M543.18,316.93c2.08,3.16,7.05,11.55,7.14,12.13,6.27-.2,18-3.69,18.43-4.35,3.09-7.32,8.26-9.18,9.23-17.92C578.84,299.06,559.27,318.66,543.18,316.93Z" transform="translate(-237.53 -39.34)"/><path class="cls-19" d="M543.35,317.18c13.2-3.51,18.3-7.88,20.19-12a16.06,16.06,0,0,1,3-6.61c5,.33,12.63.54,11.45,8.26S553.37,316.5,543.35,317.18Z" transform="translate(-237.53 -39.34)"/><path class="cls-17" d="M543.35,317.18c13.2-3.51,18.3-7.88,20.19-12a16.06,16.06,0,0,1,3-6.61l.9-1.64c-8.53,1.79-3.8,14-26.7,16.67Z" transform="translate(-237.53 -39.34)"/><path class="cls-17" d="M476.29,317.24c-.28-2.66-1.43-3.67-2.57-5.3,24.68,10.76,3.23,15.68,47.85,19.88,24.14,2.27,28.1,5.32,33.3,8-6.8-1.06-19.29-6.34-32-4.54C511,337,475.6,328.9,476.29,317.24Z" transform="translate(-237.53 -39.34)"/><g class="cls-15"><path class="cls-33" d="M832.92,319.12a15.32,15.32,0,0,1-5.86,1.3c-13.76.38-26.42,1.66-40.24-.66C780.5,318.7,774.24,317.4,768,316h-18.1c-2.51,2.78-7.9,0-7.48,4-.69,11.66,36.46,19.82,48.32,18.14,12.72-1.8,27.58,3.44,34.38,4.5a94.33,94.33,0,0,0-4.64-10.89c6.28-.2,17.77-4.11,18.19-4.77C841,321.47,837.52,320,832.92,319.12Z" transform="translate(-237.53 -39.34)"/></g><path class="cls-17" d="M752.08,302.9c8.16-4.94,3.32-12.4,7.37-13.94,12.08,3.11,52.85-16.27,59.19-9.16,0,0,15.8,18.47-16.19,34.79C790.18,301.25,743.28,309.92,752.08,302.9Z" transform="translate(-237.53 -39.34)"/><path class="cls-18" d="M822,322.89c-37.88,19.75-38.41-15.05-30-22.28,14.35-1.47,21.46-7.07,39.42-6.47,2.87.09,6.09-.37,7-2.08C827.83,305.14,832,316.76,822,322.89Z" transform="translate(-237.53 -39.34)"/><path class="cls-17" d="M770,264.33c8.17-4.94,7.45-7.59,16.31-5.3,12.09,3.11,21.25.51,27.6,7.61,0,0-8.1,14.66-16.47,17.32C785.15,270.62,761.18,271.35,770,264.33Z" transform="translate(-237.53 -39.34)"/><path class="cls-19" d="M769.27,264.64c-3.3,1.8-10.54,4.26-11.09,7.44,3.15-1.84,7.2-5.28,23.1,6.89,16.53,12.65,42.13,1.12,35.29-8.84-9.17-13.36-9.51-1.05-11.36-.28C777.37,281.35,776,261,769.27,264.64Z" transform="translate(-237.53 -39.34)"/><path class="cls-19" d="M793.82,236.2c-11.39,18.45,10.69,17.07,11.35,32.81C817.31,244.48,784.37,255.59,793.82,236.2Z" transform="translate(-237.53 -39.34)"/><path class="cls-18" d="M793.82,236.2C784.27,252,805.91,254.81,805.17,269,786.76,260.68,780.84,251.23,793.82,236.2Z" transform="translate(-237.53 -39.34)"/><path class="cls-19" d="M793.82,236.2c-20,13.63-26,25.95-5.77,31.17,12.08,3.12,13.82-.68,17.12,1.64,0,0,1.63-4.54-5.83-8C790.79,257,782.66,250.32,793.82,236.2Z" transform="translate(-237.53 -39.34)"/><path class="cls-20" d="M792.83,237c-4.05,4.47-25.27,16.41,4.26,27.61C783.24,255.26,783.27,249.14,792.83,237Z" transform="translate(-237.53 -39.34)"/><path class="cls-18" d="M775.57,256.7c-.14,4.43,3.72,8,12.58,10.28,12.09,3.12,13.2-.6,17,2,0,0-2.66.51-11,3.18C785.23,275,772.63,267.93,775.57,256.7Z" transform="translate(-237.53 -39.34)"/><path class="cls-20" d="M793.82,236.2c-4.78,12.8,10.43,9,13.58,20.57C804.18,248,786.16,251.64,793.82,236.2Z" transform="translate(-237.53 -39.34)"/><path class="cls-18" d="M759.52,288.4c2.2-5.25-2.25-15.79-1.34-16.32,3.15-1.84,7.19-6.26,23.09,5.92,16.53,12.65,42.14,2.09,35.3-7.87,5.9,6.87-4.63,16.29-6.18,17.6C785.12,309.15,757.91,292.24,759.52,288.4Z" transform="translate(-237.53 -39.34)"/><path class="cls-19" d="M759.17,289c-11-.37-17,5-20.1,11.57s18.23,19.8,42.76,19,35.51,17.67,40.72,20.34c-3.77-11.53-16-33.43-26.63-36.84S758.48,300.61,759.17,289Z" transform="translate(-237.53 -39.34)"/><path class="cls-20" d="M758.18,272.08c3.15-1.84,7.18-5,23.09,7.15,16.53,12.65,43.24.75,35.3-9.1,4,8.43-14.67,9.83-27,6.2C776.26,272.43,763.39,265.52,758.18,272.08Z" transform="translate(-237.53 -39.34)"/><path class="cls-20" d="M815.24,329.35c-2.09-2.61-18.64-15.65-41.54-16.85-21.67-1.14-45.88-17.22-18.11-22.7-7.66,6.73,1.82,14.49,14.89,15.66C785.29,306.79,797.62,300.52,815.24,329.35Z" transform="translate(-237.53 -39.34)"/><path class="cls-18" d="M744,317.24c-.56-5.31-4.61-4.05-5.06-14.31,1.85,6.93,21.61,15.65,43.42,14.89,24.53-.86,35,19.32,40.22,22-6.8-1.06-19.3-6.34-32-4.54C778.67,337,743.28,328.9,744,317.24Z" transform="translate(-237.53 -39.34)"/><path class="cls-19" d="M818.64,279.8c-1.39,8.58-19.38,18.83-26.58,20.81,17.84,3.66,21.46-7.07,39.42-6.47C841.07,294.45,841.85,280.57,818.64,279.8Z" transform="translate(-237.53 -39.34)"/><path class="cls-20" d="M818.64,279.8c13.77,2.66,17.3,7,13.11,10.17-3.23,2.43-13.21,3.66-13.27,6,0,0,9.31-1.36,14.59-1.19C842.66,295.06,841.85,280.57,818.64,279.8Z" transform="translate(-237.53 -39.34)"/><path class="cls-18" d="M810.86,316.93c2.08,3.16,7,11.55,7.13,12.13,6.28-.2,18-3.69,18.43-4.35,3.09-7.32,8.27-9.18,9.24-17.92C846.52,299.06,826.94,318.66,810.86,316.93Z" transform="translate(-237.53 -39.34)"/><path class="cls-19" d="M811,317.18c13.21-3.51,18.3-7.88,20.19-12a16,16,0,0,1,3-6.61c5,.33,12.62.54,11.45,8.26S821,316.5,811,317.18Z" transform="translate(-237.53 -39.34)"/><path class="cls-17" d="M811,317.18c13.21-3.51,18.3-7.88,20.19-12a16,16,0,0,1,3-6.61l.9-1.64c-8.54,1.79-3.8,14-26.71,16.67Z" transform="translate(-237.53 -39.34)"/><path class="cls-17" d="M744,317.24c-.28-2.66-1.43-3.67-2.57-5.3,24.68,10.76,3.22,15.68,47.84,19.88,24.14,2.27,28.1,5.32,33.31,8-6.8-1.06-19.3-6.34-32-4.54C778.67,337,743.28,328.9,744,317.24Z" transform="translate(-237.53 -39.34)"/></g></g></svg>