<svg id="Layer_1" data-name="Layer 1" xmlns="http://www.w3.org/2000/svg" xmlns:xlink="http://www.w3.org/1999/xlink" viewBox="0 0 966.38 660.54"><defs><style>.cls-1{fill:url(#linear-gradient);}.cls-2{fill:url(#linear-gradient-2);}.cls-10,.cls-3,.cls-9{fill:#fff;}.cls-3{opacity:0.2;}.cls-4{fill:#e04000;}.cls-5{fill:#ff000f;}.cls-6{fill:#870001;opacity:0.7;}.cls-7{fill:url(#linear-gradient-3);}.cls-8{fill:url(#linear-gradient-4);}.cls-9{opacity:0.15;}.cls-10{opacity:0.4;}.cls-11{fill:url(#linear-gradient-5);}</style><linearGradient id="linear-gradient" x1="854.45" y1="479.91" x2="930.39" y2="572.73" gradientTransform="translate(0.37 -0.6) rotate(0.03)" gradientUnits="userSpaceOnUse"><stop offset="0" stop-color="#ff4b00"/><stop offset="0.25" stop-color="#ff5000"/><stop offset="0.57" stop-color="#fe5f00"/><stop offset="0.9" stop-color="#fc7800"/><stop offset="1" stop-color="#fc8000"/></linearGradient><linearGradient id="linear-gradient-2" x1="718.53" y1="554.1" x2="1151.98" y2="554.1" gradientTransform="translate(0.37 -0.6) rotate(0.03)" gradientUnits="userSpaceOnUse"><stop offset="0" stop-color="#c31b00"/><stop offset="0.31" stop-color="#c72000"/><stop offset="0.7" stop-color="#d32f00"/><stop offset="1" stop-color="#e04000"/></linearGradient><linearGradient id="linear-gradient-3" x1="743.02" y1="445.92" x2="1004.61" y2="302.46" gradientUnits="userSpaceOnUse"><stop offset="0" stop-color="#ff5900"/><stop offset="0.26" stop-color="#ff5e00"/><stop offset="0.57" stop-color="#fd6d00"/><stop offset="0.91" stop-color="#fb8600"/><stop offset="1" stop-color="#fa8d00"/></linearGradient><linearGradient id="linear-gradient-4" x1="792.74" y1="401.82" x2="1140.96" y2="401.82" gradientTransform="matrix(1, 0, 0, 1, 0, 0)" xlink:href="#linear-gradient-2"/><linearGradient id="linear-gradient-5" x1="389.95" y1="272.47" x2="746.13" y2="536.29" gradientUnits="userSpaceOnUse"><stop offset="0" stop-color="#fa8a00"/><stop offset="0.3" stop-color="#fc7f00"/><stop offset="1" stop-color="#ff6a00"/></linearGradient></defs><path class="cls-1" d="M1152.43,523.52c0,77.27-117.43,139.85-262.25,139.77S628,600.52,628.09,523.26,745.54,383.4,890.35,383.48,1152.47,446.26,1152.43,523.52Z" transform="translate(-186.05 -43.55)"/><path class="cls-2" d="M770.3,591.29s94.41,22.84,110.46,22.82c77.17-.19,295-14.3,222.54-172.14,0,0,77.69,52.12,37,123.67-36.49,64.17-170.47,102.91-266,100.24-11-.31-79.53-3.67-136.65-28.8S770.3,591.29,770.3,591.29Z" transform="translate(-186.05 -43.55)"/><path class="cls-3" d="M1056.27,577.47c-27.63,15.7-59.52,16.72-63.59,9.55s27.71-9.82,55.33-25.54,41.46-35.48,45.56-28.29S1083.92,561.77,1056.27,577.47Z" transform="translate(-186.05 -43.55)"/><path class="cls-4" d="M1115.94,518.07c-7.94,9.13-28.33,4.4-45.53-10.56s-24.72-34.5-16.8-43.64,28.35-4.41,45.56,10.56S1123.89,508.93,1115.94,518.07Z" transform="translate(-186.05 -43.55)"/><path class="cls-4" d="M1016,420.2c-1.62,13.25-25.81,21.23-54,17.81s-49.78-17-48.16-30.21,25.76-21.26,54-17.83S1017.61,406.94,1016,420.2Z" transform="translate(-186.05 -43.55)"/><path class="cls-4" d="M1003.79,547.74c4.15,14.86-8.57,31.38-28.39,36.91s-39.26-2-43.4-16.88,8.57-31.37,28.39-36.91S999.66,532.91,1003.79,547.74Z" transform="translate(-186.05 -43.55)"/><path class="cls-5" d="M994.76,531.8c9.23,15.13-8,42.88-35.59,42.72-24.11-.13-42.31-17.11-33.12-32.52s24.07-19.22,33.71-21.85S990.36,524.62,994.76,531.8Z" transform="translate(-186.05 -43.55)"/><path class="cls-6" d="M954.86,521.49s-24,12-28.78,20.51.52,21-1.11,15.69,9.81,26.3,46.78,15.07C1009.53,561.27,1005.31,509.61,954.86,521.49Z" transform="translate(-186.05 -43.55)"/><path class="cls-5" d="M1051.61,458.19s37.86-14.29,50,8.27,17,44.41-1.61,45.34-30.5-9.77-38.31-16.59S1038.4,461.63,1051.61,458.19Z" transform="translate(-186.05 -43.55)"/><path class="cls-6" d="M1099.49,472.5s-5,26-16,23.73-31.16-24.76-35.34-29.12,1.14,22.45,23.27,36,46.69,12.43,40.19-11.52C1106,470.68,1101.58,466.46,1099.49,472.5Z" transform="translate(-186.05 -43.55)"/><path class="cls-7" d="M1141.3,371.27c0,77.27-117.37,139.9-262.15,139.9S617,448.54,617,371.27s117.38-139.9,262.2-139.9S1141.3,294,1141.3,371.27Z" transform="translate(-186.05 -43.55)"/><path class="cls-8" d="M843.67,461.48s336.13,18.88,248.44-171.73c0,0,77.74,52.07,37.09,123.65S926.65,525,832,511.19v0C737.32,497.34,843.67,461.48,843.67,461.48Z" transform="translate(-186.05 -43.55)"/><path class="cls-9" d="M1090.22,330.27c-4.75,21.9-46.63,22.56-93,12.53s-77-43.19-72.24-65.09,43-24.23,89.38-14.21S1095,308.39,1090.22,330.27Z" transform="translate(-186.05 -43.55)"/><path class="cls-9" d="M1085.59,324.32c-4.41,14-26-3.87-55.19-14.95s-54.32-15-50-29.05,32.75-14.18,59.35-4.11C1075.56,289.75,1090,310.27,1085.59,324.32Z" transform="translate(-186.05 -43.55)"/><path class="cls-3" d="M1065,411.39c-28.88,21.89-64.79,27.85-70.46,20.35s29.85-15.28,58.72-37.18,41.58-46.33,47.28-38.83S1093.92,389.48,1065,411.39Z" transform="translate(-186.05 -43.55)"/><path class="cls-4" d="M1095.55,359.43c-7,9.86-27.77,7.15-46.37-6.06s-28-31.92-21-41.79,27.78-7.16,46.34,6.05S1102.57,349.56,1095.55,359.43Z" transform="translate(-186.05 -43.55)"/><path class="cls-4" d="M993.19,257c0,13.35-23,24.24-51.42,24.28s-51.49-10.72-51.5-24.07,23-24.25,51.39-24.3S993.16,243.67,993.19,257Z" transform="translate(-186.05 -43.55)"/><path class="cls-4" d="M964.2,393.34c4.15,14.85-8.57,31.38-28.38,36.92s-39.25-2-43.41-16.86S901,382,920.78,376.48,960,378.51,964.2,393.34Z" transform="translate(-186.05 -43.55)"/><path class="cls-5" d="M887,243.83s29.7-42.4,58.76-27.3,50.06,34.65,31.06,49.08-39.29,11.65-52.45,10.09S875.57,257,887,243.83Z" transform="translate(-186.05 -43.55)"/><path class="cls-6" d="M947.94,224.42s13.46,31,.26,36.59-50.8-3.66-58.35-5.27,17.4,22.9,50.54,21.22,58.32-20.56,34.15-41.16C953.47,217.82,945.78,216.53,947.94,224.42Z" transform="translate(-186.05 -43.55)"/><path class="cls-10" d="M941.13,218.22s-11.25-6.38-22.19,2-32.05,27.51-13.37,21.67S951.88,227.38,941.13,218.22Z" transform="translate(-186.05 -43.55)"/><path class="cls-5" d="M959.36,379.14c9.22,15.13-8.06,42.88-35.58,42.73-24.13-.14-42.33-17.12-33.12-32.52s24.06-19.22,33.72-21.85S955,372,959.36,379.14Z" transform="translate(-186.05 -43.55)"/><path class="cls-6" d="M919.47,368.43s-24.06,12-28.8,20.51.52,20.95-1.1,15.69,9.79,26.3,46.76,15.06C974.13,408.2,969.9,356.54,919.47,368.43Z" transform="translate(-186.05 -43.55)"/><path class="cls-5" d="M1030,307.08s36.3-17.91,50.52,3.37,21.29,42.54,2.81,45.27S1052.06,349,1043.63,343,1017.21,311.79,1030,307.08Z" transform="translate(-186.05 -43.55)"/><path class="cls-6" d="M1079.06,316.66s-2.47,26.31-13.59,25.16-33.42-21.58-38-25.53,3.33,22.24,26.66,33.53,47.68,7.82,38.89-15.37C1085.32,314.21,1080.54,310.45,1079.06,316.66Z" transform="translate(-186.05 -43.55)"/><path class="cls-10" d="M1076.73,309.84a16.24,16.24,0,0,0-16-6.92c-10.63,1.66-32.29,6.81-17.29,9.84S1080.65,320.15,1076.73,309.84Z" transform="translate(-186.05 -43.55)"/><path class="cls-11" d="M862.14,381.07c0,178.39-151,323-337.22,323s-337.2-144.63-337.2-323S338.66,43.55,524.92,43.55C736,43.55,862.14,202.68,862.14,381.07Z" transform="translate(-186.05 -43.55)"/><path class="cls-4" d="M523.26,43.55c-3.36,0-6.68.17-10,.27C703,49.42,816.12,195,816.12,358c0,166.22-140.69,301-314.21,301S187.72,524.26,187.72,358c0-4,.15-7.91.3-11.87a323.67,323.67,0,0,0-2,34.9c0,178.39,151,323,337.21,323S862.14,562.58,862.14,384.18,734.34,43.55,523.26,43.55Z" transform="translate(-186.05 -43.55)"/><path class="cls-3" d="M641.53,386.35C588.35,494.59,401.32,534.2,333.65,476,282.14,431.6,238.82,326.2,292,218S515.63,56.4,608.35,102.71C727.59,162.26,694.72,278.1,641.53,386.35Z" transform="translate(-186.05 -43.55)"/><path class="cls-3" d="M785.5,251.85c22.25,66,17.55,133.28.4,139.06s-15-54.05-37.27-120.08-53.58-113.76-36.44-119.55S763.24,185.83,785.5,251.85Z" transform="translate(-186.05 -43.55)"/><path class="cls-3" d="M210.93,391.3c6.91,91.23,76.74,177.51,94,161.16,13.18-12.51-48.75-71.54-55.66-162.79s18.45-164.82,7.57-164.79C233,225,204.06,300.06,210.93,391.3Z" transform="translate(-186.05 -43.55)"/><path class="cls-3" d="M459.92,261.29c-75,58.23-125.51,119.35-152.31,84.82s4.77-125.54,79.74-183.76,165-61.63,191.81-27.1S534.91,203.06,459.92,261.29Z" transform="translate(-186.05 -43.55)"/><path class="cls-10" d="M214.9,373.88c.54,58.88,41.71,150.22,52.81,139.69,8.49-8-30.09-74.2-34.52-132.92s15.72-129.29,8.71-129.26C226.59,251.44,214.29,308.88,214.9,373.88Z" transform="translate(-186.05 -43.55)"/><path class="cls-4" d="M727,187c-8.3,19.05-45.55,21.16-83.18,4.73s-61.45-45.17-53.15-64.22,45.56-21.15,83.21-4.73S735.29,168,727,187Z" transform="translate(-186.05 -43.55)"/><path class="cls-4" d="M460.05,125.39c13.38,15.86.12,49.1-29.63,74.18s-64.73,32.6-78.11,16.73-.15-49.1,29.59-74.21S446.65,109.52,460.05,125.39Z" transform="translate(-186.05 -43.55)"/><path class="cls-4" d="M303.6,396.08c19.82-6.19,45.29,18.93,56.85,56.09s4.91,72.31-14.93,78.5-45.29-18.94-56.89-56.09S283.76,402.25,303.6,396.08Z" transform="translate(-186.05 -43.55)"/><path class="cls-4" d="M610.34,375.93c0,34.72-31.1,62.88-69.46,62.88s-69.49-28.16-69.49-62.88S502.51,313,540.88,313,610.34,341.2,610.34,375.93Z" transform="translate(-186.05 -43.55)"/><path class="cls-4" d="M565,600.62c.52,26.06-24.18,47.71-55.16,48.31s-56.48-20-57-46.12S477,555.08,508,554.48,564.48,574.53,565,600.62Z" transform="translate(-186.05 -43.55)"/><path class="cls-4" d="M792.51,469c20.58,25.61,13.76,65.25-15.22,88.53s-69.16,21.38-89.74-4.22-13.81-65.28,15.19-88.55S771.92,443.4,792.51,469Z" transform="translate(-186.05 -43.55)"/><path class="cls-5" d="M347.1,199.64s-6.61-69.26,36.28-79.15,81.36-8.24,74.49,23.08-30,46.17-44.81,56.07S346.83,223.07,347.1,199.64Z" transform="translate(-186.05 -43.55)"/><path class="cls-6" d="M392.45,126.67s40.81,20,32.15,37.19-55.11,40.54-64.26,45.51,37.76,8.18,70.19-22.42,41.7-71.84-1-71.84C392.35,115.11,383.38,120.49,392.45,126.67Z" transform="translate(-186.05 -43.55)"/><path class="cls-10" d="M380.08,126.26s-17.07,3.3-20.89,21.44-8.79,56.07,5.22,33.8S399.06,126.26,380.08,126.26Z" transform="translate(-186.05 -43.55)"/><path class="cls-5" d="M595.37,119.74s56.9-40,86.73-7.65,47.44,66.63,16.82,76.16-55-3.2-70.9-11.19S574.88,131.1,595.37,119.74Z" transform="translate(-186.05 -43.55)"/><path class="cls-6" d="M681.21,123s2.86,45.34-16.39,46.33-62.5-27.82-71.35-33.31,11.59,36.87,54.2,49.9,83.07.67,62-36.41C691.22,117.23,682.1,112.09,681.21,123Z" transform="translate(-186.05 -43.55)"/><path class="cls-10" d="M675.43,112.09s-11.28-13.2-28.94-7.56-53.07,20.13-26.79,21.29S684.83,128.56,675.43,112.09Z" transform="translate(-186.05 -43.55)"/><path class="cls-5" d="M599.27,368.88c0,30.05-28.26,54.41-63.07,54.41s-63.08-24.36-63.08-54.41,28.24-54.42,63.08-54.42S599.27,338.82,599.27,368.88Z" transform="translate(-186.05 -43.55)"/><path class="cls-6" d="M599.27,368.88c0,30.05-28.26,54.41-63.07,54.41s-63.08-24.36-63.08-54.41,28.24-54.42,63.08-54.42S599.27,338.82,599.27,368.88Z" transform="translate(-186.05 -43.55)"/><path class="cls-5" d="M587.72,368.57c0,24.75-23.28,44.83-52,44.83s-52-20.08-52-44.83,23.26-44.82,52-44.82S587.72,343.82,587.72,368.57Z" transform="translate(-186.05 -43.55)"/><path class="cls-10" d="M568.73,342.49c3.18,7.63-16.87,4.19-36.49,12.32s-33,28.27-36.14,20.66,0-28.26,24.35-40.27C543.69,323.75,565.58,334.87,568.73,342.49Z" transform="translate(-186.05 -43.55)"/><path class="cls-5" d="M292.1,400.32s-42.82,54.83-12,86.26,64.11,50.72,75.19,20.62-.42-55.07-7.6-71.38S304.48,380.43,292.1,400.32Z" transform="translate(-186.05 -43.55)"/><path class="cls-6" d="M291.06,486.23s45.14,5.13,47.13-14-24.66-63.81-29.69-72.95,36.22,13.42,47.09,56.67-3.5,83-39.48,60C284.77,495.94,280.12,486.58,291.06,486.23Z" transform="translate(-186.05 -43.55)"/><path class="cls-10" d="M280.41,479.93S267.8,468,274.35,450.61s22.76-52,22.58-25.66S296.41,490.13,280.41,479.93Z" transform="translate(-186.05 -43.55)"/><path class="cls-5" d="M757.4,441.43c11.7,9.49,38.07,68,.15,99.35-33.21,27.44-77.62,25-82.69-6.64s11-53.93,21.18-68.58S745.72,431.94,757.4,441.43Z" transform="translate(-186.05 -43.55)"/><path class="cls-6" d="M757.41,441.43c11.69,9.49,38.07,68,.15,99.35-33.21,27.44-77.62,25-82.7-6.64s11-53.93,21.19-68.58S745.73,431.94,757.41,441.43Z" transform="translate(-186.05 -43.55)"/><path class="cls-5" d="M556.85,582.35c8.61,23.56-23.11,57.25-61.25,49.37-33.4-6.89-53.94-35.51-36.91-54.33s38.74-19.95,52.82-20.93S552.76,571.16,556.85,582.35Z" transform="translate(-186.05 -43.55)"/><path class="cls-6" d="M504.34,557s9,27.12,0,37.63-50.74,12-51.52,4.27,6.27,39.21,60.68,33.91C569.12,627.34,577.63,554.48,504.34,557Z" transform="translate(-186.05 -43.55)"/></svg>