<?xml version="1.0" encoding="utf-8"?>
<!-- Generator: Adobe Illustrator 24.3.0, SVG Export Plug-In . SVG Version: 6.00 Build 0)  -->
<svg version="1.1" id="Layer_1" xmlns="http://www.w3.org/2000/svg" xmlns:xlink="http://www.w3.org/1999/xlink" x="0px" y="0px"
	 viewBox="0 0 644.2 658.3" style="enable-background:new 0 0 644.2 658.3;" xml:space="preserve">
<style type="text/css">
	.st0{fill:#FAFFFD;}
</style>
<path class="st0" d="M488.1,220.5c0.4,0.4,0.7,0.9,1,1.4c0.4,0.7,0.9,1.4,1.4,2.1c0.6,0.7,1.1,1.5,1.5,2.3c0.5,0.8,1.1,1.6,1.6,2.5
	s1,1.8,1.6,2.7c1.1,1.8,1.8,3.7,2.3,5.8c0.3,1.8,0.9,3.5,1.7,5.1c0.5,1.2,1.2,2.3,1.9,3.4c1.2,0.7,2.3,0,3.4-0.8
	c0.5-1,1.1-2.1,1.6-3.3c1.1-2.4,2.2-4.9,3.2-7.7c1.2-2.8,2.1-5.7,3.1-8.8c1.7-5.4,3.4-11.2,4.8-17.1c0.8-0.5,1.6-1.3,2.6-1.9
	c1.1-0.7,2.2-1.5,3.2-2.4c1.2-1,2.7-1.7,4.3-2c1.7-0.3,3.2-0.8,4.6-1.2c1.4-0.4,2.7-0.9,4-1.4c1.3-0.5,2.5-1.2,3.7-2
	c-0.1-0.2-1.8,0-4.2,0.5c-3,0.6-5.9,1.7-8.5,3.3c-0.7,0.5-1.4,0.9-2.2,1.2c-0.7,0.3-1.5,0.6-2.2,0.9c-0.7,0.2-1.5,0.5-2.2,0.9
	c-0.6,0.4-1.1,0.8-1.7,1.3c-0.4,0.3-0.8,0.7-1.1,1.2c0.9-3.8,1.7-7.1,2.7-10.4s1.9-6.4,3-9.4s2.1-5.9,2.9-8.8s1.5-5.5,2.2-8
	s1.3-4.7,1.7-6.8s1-3.8,1.3-5.2c0.2-0.7,0.3-1.4,0.5-1.9c4.9,4.6-2.5,18.6-3.8,23.6c-1.7,6.1-3.8,11.8,3.9,11.3
	c5.3-0.4,14.8,1.7,10,8.9c-3.5,5.3-9.9,9.7-15.5,12.6c-2.8,1.4-4.9,2.2-6.3,4.9c-1,2-2.5,7.1-0.3,8.5c1.4,0.9,6.3-0.8,8-0.6
	c2.6,0.2,6.6,1.5,7.9,4c0.4,0.8,0.5,1.6,0.5,2.5c3.4-0.7,6.8-1.1,10.3-1.1c0.6,0,1.2,0.1,1.9,0.1c10.4-28,9-76.9-12.1-84.8
	s-54.1,28.4-64.2,55.6c-7.5,20.1,7.2,45.2,15.3,56.8l0.8-0.7c0.3-0.2,1.8-1.7,4.3-3.7c0.1-2.9,1.7-5.7,1.2-8.9
	c-1.1-7.7-9.4-12.3-10.2-19.7C482.9,220.5,485.2,219.7,488.1,220.5z M501.7,221.7c-3-6.6-8.5-12.8-10.2-20
	c-1.5-6.2,2.8-14.7,10.2-10.9c3.6,1.8,6.1,15.1,10.5,12.5c1.5-0.9,3.3-7.1,3.6-8.8c0.5-2.9-0.5-5.6-1.7-8.5
	c-1.9-4.6-9.5-12.4-6.1-17.5c1.5-2.3,5.7-3.4,8-2.1c2.5,1.5,2.4,6.3,5.8,5.9c0.1-3.2,3.3-20.1,9.1-16.9c-0.2,0.6-0.5,1.3-0.9,2.1
	c-1.1,2.8-2.6,6.8-4.1,11.8c-0.8,2.4-1.6,5.1-2.3,8s-1.4,5.9-2,9c-1.4,6.6-3.3,13-5.6,19.3c-2.3,6.2-4.3,12.4-6.3,18.3
	c0.1-1.1,0-2.1-0.2-3.2c-0.2-0.9-0.4-1.8-0.7-2.7c-0.3-1-0.7-2-1.2-2.9c-1-2-1.8-4.2-2.5-6.3c-1.4-4-3.2-7.8-5.4-11.4
	c-1.8-2.9-3.2-4.8-3.2-4.8c-0.2,0.1,0,0.7,0.3,1.6c0.4,1.3,0.9,2.7,1.5,3.9c0.7,1.8,1.6,3.6,2.6,5.3c0.5,0.9,1,1.9,1.6,2.9
	s1.2,2,1.8,2.9c1.2,1.9,2,4,2.5,6.2c0.3,1,0.5,2,0.6,3c0.2,1,0.5,1.8,0.7,2.6c0.5,1.6,0.7,3.1,1,4c-1.9,6.2-3.6,11.5-5.4,16
	c-0.6,1.8-1.3,3.4-1.9,4.9c-0.3-1.1-0.8-2.4-1.2-3.9c-0.6-1.7-1.3-3.3-2.2-4.9c-1-1.8-1.7-3.7-2.2-5.7c-0.3-1-0.7-2-1.1-3
	c-0.4-1-0.8-1.9-1.4-2.8c-0.4-0.9-1-1.7-1.6-2.5c-0.3-0.4-0.6-0.7-0.9-1c1.7,1,3.3,2.2,4.6,3.7c1.5,1.9,3.7,7.3,6.9,5.6
	C506.1,229.2,502.6,223.9,501.7,221.7L501.7,221.7z"/>
<path class="st0" d="M494.3,264.2c0,0,10,46,37.5,54.8c27.5,8.8,76.5,5.1,83.3-16.4c6.8-21.5-31-52.7-58.5-61.5
	S494.3,264.2,494.3,264.2z M604.5,299.1c-4.1,4.7-18.3-2-23.4-3.2c-6.1-1.4-12-3.2-11.1,4.5c0.6,5.3-1,14.9-8.4,10.4
	c-5.4-3.3-10.1-9.5-13.3-14.9c-1.5-2.7-2.5-4.8-5.2-6.1c-2-0.9-7.2-2.1-8.5,0.1c-0.8,1.4,1,6.3,1,8c-0.1,2.6-1.2,6.7-3.6,8
	c-4.9,2.9-11.8-5-14.6-8.3c-7.8-8.8-9.1-23.1-19.7-30c-0.3-0.8,4.6-3.6,6.4-3.9c3.2-0.5,6.5,1.5,10.1,0.8
	c7.6-1.4,11.8-9.9,19.2-11.1c4.5-0.7,5.4,1.6,4.8,4.4c-0.4,0.4-0.8,0.8-1.3,1.1c-0.7,0.4-1.4,0.9-2,1.5c-0.7,0.6-1.5,1.1-2.2,1.6
	c-0.8,0.6-1.6,1.2-2.5,1.7c-0.9,0.5-1.8,1.1-2.6,1.7c-1.7,1.1-3.6,2-5.6,2.6c-1.8,0.4-3.5,1.1-5.1,2c-1.1,0.6-2.2,1.3-3.3,2
	c-2.2-0.3-4.4-0.9-6.5-1.8c-1-0.5-2-1-3-1.7c-0.7-0.4-1.1-0.7-1.1-0.7c-0.2,0.2,0.1,0.5,0.7,1c0.8,0.9,1.7,1.6,2.7,2.3
	c1.5,1,3.1,1.9,4.7,2.7c2.1,1.1,4.2,2.1,6.4,2.9c2.6,1.1,5.2,2.1,7.8,2.9c2.8,1,5.8,1.8,8.9,2.7c5.5,1.5,11.4,2.8,17.3,3.9
	c0.5,0.8,1.4,1.5,2,2.5s1.6,2,2.6,3.1c1.1,1.2,1.8,2.7,2.2,4.2c0.4,1.6,1,3.1,1.5,4.6c0.4,1.4,1,2.7,1.7,3.9
	c0.6,1.3,1.3,2.5,2.2,3.6c0.2-0.1,0-1.8-0.7-4.1c-0.8-3-2-5.8-3.6-8.4c-0.5-0.6-0.9-1.4-1.3-2.1c-0.4-0.7-0.7-1.5-1-2.2
	c-0.3-0.7-0.6-1.5-1-2.1s-1-1.1-1.4-1.6c-0.4-0.4-0.8-0.8-1.2-1.1c3.8,0.8,7.2,1.5,10.5,2.2s6.5,1.6,9.5,2.5
	c3.1,0.9,6.1,1.8,8.9,2.5s5.6,1.3,8,1.8s4.8,1,6.8,1.4s3.8,0.8,5.3,1c0.7,0.2,1.4,0.3,2,0.4C604.7,298.7,604.6,298.9,604.5,299.1z
	 M568.5,270.3c-1.7,3.6-14.8,6.8-12,11.1c0.9,1.5,7.3,3,9,3.2c2.9,0.3,5.7-0.8,8.3-2.1c4.6-2.1,12-10.1,17.2-6.9
	c2.4,1.4,3.7,5.6,2.4,8s-6.2,2.7-5.6,6c3.2,0,20.2,2.4,17.3,8.4c-0.6-0.2-1.3-0.5-2.1-0.8c-2.9-0.9-7-2.3-12-3.5
	c-2.5-0.6-5.2-1.3-8-2c-2.8-0.7-6-1-9.1-1.6c-6.6-1.1-13.2-2.6-19.5-4.6c-6.3-2-12.6-3.7-18.5-5.5c1.1,0,2.1-0.1,3.2-0.4
	c0.9-0.2,1.8-0.5,2.7-0.8c1-0.4,1.9-0.8,2.8-1.4c2-1.1,4.1-2,6.2-2.8c3.9-1.5,7.7-3.5,11.1-5.9c2.9-1.9,4.7-3.4,4.7-3.4
	s-0.6,0-1.6,0.4c-1.3,0.5-2.6,1-3.8,1.7c-1.8,0.8-3.5,1.8-5.2,2.8c-0.9,0.5-1.9,1.1-2.8,1.7s-1.9,1.2-2.8,1.9
	c-1.8,1.3-3.9,2.2-6.1,2.8c-1,0.3-2,0.5-3,0.8c-1,0.2-1.7,0.5-2.6,0.8c-1.5,0.6-3,0.9-3.9,1.2c-6.3-1.5-11.7-3-16.3-4.5
	c-1.8-0.5-3.4-1.2-4.9-1.7c1.1-0.3,2.3-0.9,3.8-1.4c1.7-0.7,3.3-1.5,4.8-2.5c1.8-1.1,3.7-1.9,5.7-2.5c1-0.4,2-0.7,2.9-1.2
	c0.9-0.5,1.9-1,2.7-1.5c0.9-0.5,1.7-1,2.4-1.7l1-0.9c-0.9,1.8-2,3.4-3.4,4.7c-1.9,1.7-7.1,4.1-5.2,7.1c2.1,3.3,7.2-0.3,9.3-1.4
	c6.5-3.3,12.4-9.1,19.5-11.2C563.2,258.8,571.9,262.6,568.5,270.3L568.5,270.3z"/>
<path class="st0" d="M51.8,561.5c4.1,21,6.7,34.6,6.7,34.6c3.7,33.1,117,62.2,261.3,62.2c140.1,0,254.4-26.3,261-59.2l7.7-37.2
	c-73.4,26-192.5,34.2-267.7,34.2C245.2,596.2,125.1,587.9,51.8,561.5z"/>
<path class="st0" d="M416.1,173.3c-27.9-8.1-57.6,4.6-68.5,30.7c-11.9,28.2,2.6,61.2,32.3,73.7s63.5-0.1,75.4-28.3
	c10.7-25.3,0-54.4-23.9-69.2c-2.8,6.1-5.4,12.2-7.7,18.1c-1.3,3.2-4.4,5.4-7.8,5.4c-1,0-2-0.2-3-0.5c-4.7-2.3-6.5-6.8-4.9-11
	C410.4,186,413.1,179.7,416.1,173.3z M358.7,216.3c-1.5,4.6-8.7,2.2-7.1-2.4c3.9-11.5,8.5-21.7,18.7-28.9c7.5-5.3,17.7-9.1,27-7.6
	c4.7,0.7,4.3,8.3-0.4,7.5C365.4,180.1,362.5,205,358.7,216.3L358.7,216.3z M438.1,246.8c1.9-4.5,9-2.1,7.1,2.4
	c-7.9,18.9-30.2,27.1-49.5,23.7c-4.7-0.8-4.4-8.3,0.4-7.5C411.8,268.2,431.3,262.8,438.1,246.8z M412.4,193.8
	C436.3,132.2,489.6,54.2,563,29.9c-0.1-1.1,0.4-2.2,1.2-3c2.5-2.4,5.5-2.9,8.7-3.1c3.7-1.1,7.7-1.3,11.5-0.6
	c2.1,0.3,3.5,2.2,3.2,4.3c0,0.3-0.1,0.6-0.2,0.9c-1,3.4,0.6,9.1-4.8,9.4c-0.7,0-1.4-0.1-2-0.4c-0.8-0.6-1.7-1-2.7-1
	c-2.7-0.2-5.4-0.3-8.1-0.1c-0.7,0-1.3,0-2,0.1c-72.5,22.5-125,99.3-148.5,160c-0.7,2-2.9,3-4.8,2.3c-2-0.7-3-2.9-2.3-4.8
	c0-0.1,0-0.1,0.1-0.2L412.4,193.8z"/>
<path class="st0" d="M442.5,217l-0.5-1.3c-0.3-0.8-0.9-2-1.5-3.3c-0.7-1.5-1.6-3-2.6-4.4c-1.1-1.6-2-3.4-2.7-5.2
	c-0.4-0.9-0.8-1.9-1.3-2.7c-0.5-0.9-1-1.7-1.6-2.5c-0.5-0.8-1.1-1.5-1.7-2.1c-0.6-0.6-1.2-1.2-1.8-1.7c-1-0.7-2-1.4-3.1-2
	c-0.8-0.4-1.2-0.6-1.2-0.6s0.2,0.5,0.8,1.2c0.3,0.3,0.7,0.7,1.1,1.2s0.9,0.8,1.4,1.4s1,1.2,1.5,1.8s1.1,1.3,1.7,2s1.2,1.4,1.7,2.2
	c0.6,0.8,1.2,1.6,1.8,2.4c1.2,1.6,2.1,3.3,2.7,5.2c0.5,1.7,1.2,3.3,2.2,4.7c0.6,1.1,1.3,2,2.2,3c0.6,0.7,0.9,1,0.9,1L442.5,217z"/>
<path class="st0" d="M574.1,289.6c0.7,0.2,1.5,0.4,2.2,0.4c0.5-0.1,1.1-0.2,1.7-0.3c0.6-0.2,1.1-0.5,1.6-0.9c1-0.7,2.1-1.3,3.3-1.7
	c2.1-0.8,4.1-1.9,5.8-3.4c0.7-0.6,1.3-1,1.7-1.4c-0.8-0.5-1.8-0.5-2.5,0c-1,0.4-2,0.9-2.8,1.6c-1,0.7-1.9,1.5-2.7,2.4
	c-0.9,0.8-2,1.4-3.2,1.6c-1,0.1-2,0.2-2.9,0.5c-0.8,0.3-1.7,0.3-2.2,0.5C573.2,289.3,573.5,289.4,574.1,289.6z"/>
<path class="st0" d="M635.5,301.2c-3.6-4.7-7.5-9.1-11.8-13.2c1.8,6.1,2,12,0.2,17.3c-8,25.3-60.2,27.3-60.2,27.3
	c-12.5,0-24.8-1.7-34.7-4.8c-9.8-3.2-17.7-9.8-23.9-17.8c-4.4,4.6-9.7,8.1-15.6,10.5c-13.6,5.5-28.2,8.3-42.8,8.2
	c-6.8,0-13.1-0.5-19.2-1c-5.8-0.5-11.3-0.9-16.9-0.9c-8.1-0.1-16.2,1-24.1,3.3c-36.4,10.5-66.2,15.3-94,15.3
	c-22.5,0.2-44.8-3.5-66.1-10.8c-7.3-2.7-14.5-6-21.4-9.7c-5.2-2.8-10.7-5.3-16.2-7.5c-7.5-2.7-11.8-2.8-19.8-3.1
	c-3.5-0.2-7.3-0.3-11.8-0.7c-15.3-1.2-41.1-14.9-46.8-33.5c-1.4-4.5-1.7-9.4-0.8-15.3l3.9-27c-38.8,12.4-71,28.7-92.4,48.8
	c-35.8,33.7-24.9,195.6,20.2,195.6c31.2,0,5.4-42.4,38.6-42.6c11.9-0.1,26.8,9.6,34.2,19.8c9.7,13.2,8.5,60.7,26.8,63
	c22.5,2.9,21.7-53.9,37.1-64.6c30.2-20.8,56,9.9,66.6,35.2c6,14.3,15.9,33.6,26.3,32.7c11.1-1,18.2-23,25.9-36.4
	c19-32.8,62.5-25.5,79.2,3.3c12.4,21.4,18.8,62.4,43.2,73.2c34.7,15.4,57.5-15.2,62.2-43.7c4.2-25.9,3.8-69.9,26.6-87.8
	c33.6-26.3,52.2,12.2,81.7,17.2C630.2,458.7,659.4,332.5,635.5,301.2z M321.1,383.7c-126.9,0-234.9-22.5-275.7-38.5
	c55.4,11.8,157,30.8,273.3,30.8c124,0,225.2-20.8,277.6-33.9C560.5,359.3,454.2,383.7,321.1,383.7z"/>
<path class="st0" d="M200.9,162.3c0.2,0.7,0.6,1.2,1.2,1.5c4.7,0,5.2,0,5.6-0.2c1.2-0.4,1.8-0.5,2.3-0.7c1.6-0.6,2.5-1,3.4-1.4
	c0.6-0.3,1.3-0.5,1.9-0.8c51.8-21.9,83.9-3.8,103.6,3.6c3.3,1.3,6.7,2.3,10.1,2.7c5.9,0.5,13.1,1.4,20.8,2.2
	c13.8-11.5,31.3-17.8,49.3-17.8c3.6,0,7.2,0.2,10.7,0.7c4-7.8,8.4-15.6,13.2-23.4c-10.2-13.5-32.9-24.6-45.2-33
	c-15.1-10.2-58.6-66.8-26.5-82.9c0.4-0.2,0.9-0.3,1.3-0.4c7.1-2.4,9.7,8.5,13.1,16.1C363.3,3.3,344.9-8.6,317.8,7
	c-26,15-22,35.8-17.2,56.5c6.1,26.9-8.4,31.3-36.1,38.7c-0.9,0.3-1.7,0.6-2.6,1c-3.9,1.7-7.8,3.7-11.4,6l-3,1.9l-0.9,0.5
	c-0.8,0.5-1.6,1-2.5,1.5c-0.4,0.3-0.8,0.5-1.2,0.8c-0.7,0.5-1.5,1-2.2,1.4c-0.4,0.3-0.9,0.6-1.3,0.9c-0.7,0.5-1.4,1-2.1,1.4
	c-0.5,0.3-0.9,0.6-1.4,0.9c-0.6,0.4-1.3,0.9-1.9,1.3s-1,0.6-1.4,1s-1.2,0.8-1.7,1.2s-1,0.7-1.5,1s-0.9,0.6-1.4,0.9s-1,0.7-1.5,1
	c-0.3,0.3-0.7,0.5-1,0.7c-0.5,0.3-0.9,0.7-1.4,1c-1.1,0.8-1.5,1-1.8,1.3c-0.9,0.6-1.2,0.8-1.4,1c-2.8,3-5.4,6.3-7.8,9.6
	c-0.4,0.6-0.8,1-1.1,1.4c-0.6,0.8-0.9,1.2-1.2,1.6c-0.3,0.3-0.5,0.7-0.7,1l-1.7,2.4c-0.6,0.8-0.9,1.3-1.2,1.8
	c-0.6,0.9-0.9,1.4-1.2,1.8c-0.5,0.9-0.8,1.4-1.1,1.9l-1.1,1.9c-0.9,1.6-1.7,3.3-2.4,5.1c-0.2,0.6-0.3,1-0.5,1.4
	c-0.1,0.4-0.2,0.9-0.2,1.3C200.8,160.9,200.8,161.6,200.9,162.3z"/>
<path class="st0" d="M236.7,236.1c2.6,0.3,5.2,0.6,7.8,0.8c3.4,0.2,6,0.4,8.7,0.4c0.4,0,0.8,0,1.2,0c2.7,0,5.4,0,8.2,0
	c0.3,0,0.7,0,1,0c2.9-0.1,5.8-0.2,8.9-0.5c19.2-1.5,35.8-8.2,51.7-16.1c0.4-8.3,2.3-16.5,5.5-24.1c1.4-3.2,3-6.3,4.8-9.3
	c-2.5-0.3-5-0.5-7.2-0.7c-4.7-0.5-9.3-1.7-13.7-3.4l-1.2-0.4c-2.5-0.9-4.9-1.9-7.5-2.9c-11.5-4.6-24.6-10-41.8-10
	c-12.8,0-26,2.9-40.2,9l-1,0.4c-1.9,0.8-3.1,1.3-4.2,1.7l-3.8,1.3c0,0-2.6,0.7-3.4,0.9l-1.5,0.2l-2.7,0.3l-2,0.1c-1,0-2,0-2.9-0.1
	l-1.3-0.2c-1.3-0.3-2.6-0.6-3.8-1l-2.3-0.9L193,181c-0.4-0.2-0.8-0.5-1.1-0.7c-0.6,1.1-1.2,2.2-1.7,3.4
	C178.2,212.4,199.5,231.2,236.7,236.1z"/>
<path class="st0" d="M151.4,261.9c0.8,0.3,1.5,0.6,2.3,0.8c1.3,0.5,2.2,1,3.2,0.9c0.6-0.1,1.2-0.3,1.7-0.7
	c19.7-23.7,62.5,4.2,76.2,11.7c28,15.5,82.2,18,123,12.9c-16-11-27.3-27.5-31.8-46.3c-15.8,7.4-32.5,13.3-52,14.8
	c-3.3,0.2-6.5,0.5-9.7,0.5c0,0-4.9,0.1-6.8,0.1h-4.5c-3.2-0.1-6.2-0.2-9-0.4c-3.4-0.2-6-0.5-8.5-0.8h-2.1l-1.3-0.5
	c-23.8-3.5-41.7-12-52.7-24.7C150.4,232.8,133.2,254.1,151.4,261.9z"/>
<path class="st0" d="M485.7,272l-1.5-2.1l-3.1,2.1l1.7-4.2l-3.2-4.6c-1.8-2.6-3.7-5.6-5.7-8.9c-0.3,0.8-0.5,1.7-0.8,2.5
	c-11.5,27.4-38.8,45-69.5,45c-3.5,0-7-0.3-10.4-0.8l-15.6,3c-17.4,3.4-38.4,5.2-59.1,5.2c-22.7,0-65.1-2.3-93-17.7l-3.9-2.2
	c-8.1-4.6-31.9-18.1-44.7-19.2c0,0-0.5,5.1-1.5,6.3c-2.8,3.4-5,8.4-16.2,7.3c-2.1-0.3-4.1-0.8-6.1-1.3c-1.5-0.3-3.1-0.7-4.6-1.2
	l-1.2-0.4c-1.2-0.5-2.2-0.8-3.1-1.2l-1-0.5c-5.7-2.4-10.6-6.4-14-11.6c-0.5,2.3-0.4,4.6,0.1,6.8c2.6,8.5,19.5,19,29.8,19.8
	c15,1.2,22.2-0.3,36.6,4.8c13.2,4.8,24.2,12.4,37.5,17.1c48.7,17.2,99.8,9.1,148.3-4.8c40-11.5,61.6,6.8,101.2-9
	c5-2,9.2-5.5,12.2-10c-3.3-6.9-5.9-14-8-21.4L485.7,272z"/>
<path class="st0" d="M368.9,524.2c-3.2-8.3-6.2-16.2-9.2-21.5c-5.3-9.1-15.7-15.3-25.8-15.3c-5.8,0-14,2.1-19.7,12
	c-1.8,3-3.5,6.5-5.2,10.2c-7.4,15.2-16.6,34.2-35.9,35.9c-0.8,0-2.3,0.1-2.3,0.1c-22,0-34.9-23.9-43.6-44.7
	c-7.2-17.2-19.5-30.2-28.6-30.2c-3,0.2-5.9,1.2-8.3,2.9c-2.2,3.3-5.2,13.7-7,20c-5.3,18.7-12.5,43.6-33.8,47.9
	c50.3,7.9,109.4,12.2,171.4,12.2c20.5,0,40.5-0.6,60.3-1.5C376.1,542.9,372.3,533.2,368.9,524.2z"/>
<path class="st0" d="M103.6,489.5c-1.3-6.3-3.4-16-4.9-18.6c-4.8-6.5-14.4-11.7-18.3-11.7c-0.5,1.8-0.9,3.6-1.1,5.4
	c-1.5,10.2-5.6,36.9-37.2,37.2c0.7,3.8,1.5,7.6,2.2,11.3c12.2,5.9,30.3,12.6,57,18.9c8,1.9,16.4,3.7,25.1,5.3
	C111.6,527.9,107.1,506.2,103.6,489.5z"/>
<path class="st0" d="M593.1,471.6c-2.1,0-4.3-0.2-6.3-0.5c-14.4-2.4-25.7-9.9-35.7-16.4c-7.5-5-14.7-9.7-19.9-9.7
	c-3,0-6.6,1.7-10.9,5c-11.8,9.2-14.8,36.8-17,56.9c-0.8,6.8-1.5,13.2-2.4,18.7c-0.8,5.1-2.1,10.1-3.8,15c15.3-2.5,29.8-5.3,43.2-8.5
	c26.2-6.2,44.2-12.7,56.3-18.6l9.1-44.1C601.7,470.8,597.5,471.5,593.1,471.6z"/>
</svg>
