<svg xmlns="http://www.w3.org/2000/svg" xmlns:xlink="http://www.w3.org/1999/xlink" viewBox="0 0 627.85 687.91"><defs><style>.cls-1{isolation:isolate;}.cls-2{mix-blend-mode:multiply;fill:url(#radial-gradient);}.cls-3{fill:url(#linear-gradient);}.cls-4,.cls-9{opacity:0.3;}.cls-5{fill:url(#linear-gradient-2);}.cls-6{fill:#3d150b;}.cls-7{fill:url(#radial-gradient-2);}.cls-8{fill:#512013;}.cls-9{mix-blend-mode:screen;}.cls-10{fill:#64332f;}.cls-11{fill:url(#linear-gradient-3);}.cls-12{fill:url(#linear-gradient-4);}.cls-13{fill:url(#linear-gradient-5);}.cls-14{fill:url(#linear-gradient-6);}.cls-15{fill:url(#linear-gradient-7);}.cls-16,.cls-21,.cls-25,.cls-26,.cls-42,.cls-43,.cls-44,.cls-45,.cls-46,.cls-47,.cls-48,.cls-49,.cls-50,.cls-51,.cls-52,.cls-53,.cls-54,.cls-55,.cls-56,.cls-57,.cls-58,.cls-59{opacity:0.6;}.cls-16{fill:url(#radial-gradient-3);}.cls-17{fill:#fff5fe;}.cls-18{fill:#fffafe;}.cls-19{fill:#fcdefa;}.cls-20{fill:#e2ace1;}.cls-21{fill:url(#radial-gradient-4);}.cls-22{fill:url(#linear-gradient-8);}.cls-23{fill:url(#linear-gradient-9);}.cls-24{fill:url(#radial-gradient-5);}.cls-25{fill:url(#radial-gradient-6);}.cls-26{fill:url(#radial-gradient-7);}.cls-27{fill:url(#linear-gradient-10);}.cls-28{fill:url(#linear-gradient-11);}.cls-29{fill:url(#radial-gradient-8);}.cls-30{fill:url(#linear-gradient-12);}.cls-31{fill:url(#linear-gradient-13);}.cls-32{fill:url(#linear-gradient-14);}.cls-33{fill:url(#linear-gradient-15);}.cls-34{fill:url(#linear-gradient-16);}.cls-35{fill:url(#linear-gradient-17);}.cls-36{fill:url(#linear-gradient-18);}.cls-37{fill:url(#linear-gradient-19);}.cls-38{fill:url(#linear-gradient-20);}.cls-39{fill:#632d1a;}.cls-40{fill:url(#radial-gradient-9);}.cls-41{opacity:0.4;fill:url(#radial-gradient-10);}.cls-42{fill:url(#radial-gradient-11);}.cls-43{fill:url(#radial-gradient-12);}.cls-44{fill:url(#radial-gradient-13);}.cls-45{fill:url(#radial-gradient-14);}.cls-46{fill:url(#radial-gradient-15);}.cls-47{fill:url(#radial-gradient-16);}.cls-48{fill:url(#radial-gradient-17);}.cls-49{fill:url(#radial-gradient-18);}.cls-50{fill:url(#radial-gradient-19);}.cls-51{fill:url(#radial-gradient-20);}.cls-52{fill:url(#radial-gradient-21);}.cls-53{fill:url(#radial-gradient-22);}.cls-54{fill:url(#radial-gradient-23);}.cls-55{fill:url(#radial-gradient-24);}.cls-56{fill:url(#radial-gradient-25);}.cls-57{fill:url(#radial-gradient-26);}.cls-58{fill:url(#radial-gradient-27);}.cls-59{fill:url(#radial-gradient-28);}</style><radialGradient id="radial-gradient" cx="670.27" cy="1246.76" r="292.64" gradientTransform="translate(-405.07 239.94) scale(1.07 0.29)" gradientUnits="userSpaceOnUse"><stop offset="0.36"/><stop offset="0.43" stop-color="#050505"/><stop offset="0.51" stop-color="#121212"/><stop offset="0.59" stop-color="#292929"/><stop offset="0.68" stop-color="#494949"/><stop offset="0.77" stop-color="#727272"/><stop offset="0.86" stop-color="#a5a5a5"/><stop offset="0.95" stop-color="#dfdfdf"/><stop offset="1" stop-color="#fff"/></radialGradient><linearGradient id="linear-gradient" x1="461.8" y1="515.82" x2="768.67" y2="569.6" gradientUnits="userSpaceOnUse"><stop offset="0" stop-color="#8e5d3f"/><stop offset="1" stop-color="#552f1c"/></linearGradient><linearGradient id="linear-gradient-2" x1="383.65" y1="549.33" x2="979.52" y2="549.33" gradientUnits="userSpaceOnUse"><stop offset="0" stop-color="#3d150b"/><stop offset="1" stop-color="#340d07"/></linearGradient><radialGradient id="radial-gradient-2" cx="681.07" cy="563.12" r="220.38" gradientUnits="userSpaceOnUse"><stop offset="0.56" stop-color="#3d150b"/><stop offset="1" stop-color="#340d07"/></radialGradient><linearGradient id="linear-gradient-3" x1="896.32" y1="515.15" x2="897.13" y2="569.97" gradientUnits="userSpaceOnUse"><stop offset="0" stop-color="#3d140b"/><stop offset="0.48" stop-color="#40170e"/><stop offset="0.66" stop-color="#441a12"/><stop offset="1" stop-color="#64332f"/></linearGradient><linearGradient id="linear-gradient-4" x1="850.32" y1="511.82" x2="849.52" y2="568.26" xlink:href="#linear-gradient-3"/><linearGradient id="linear-gradient-5" x1="480.73" y1="516.06" x2="475.09" y2="569.27" xlink:href="#linear-gradient-3"/><linearGradient id="linear-gradient-6" x1="644.63" y1="543.6" x2="648.66" y2="621.8" xlink:href="#linear-gradient-3"/><linearGradient id="linear-gradient-7" x1="546.14" y1="499.05" x2="542.11" y2="531.3" xlink:href="#linear-gradient-3"/><radialGradient id="radial-gradient-3" cx="907.89" cy="413.32" r="27.1" gradientTransform="translate(31.89 21.34) scale(0.96)" xlink:href="#radial-gradient-2"/><radialGradient id="radial-gradient-4" cx="457.13" cy="413.32" r="27.1" gradientTransform="translate(31.89 21.34) scale(0.96)" xlink:href="#radial-gradient-2"/><linearGradient id="linear-gradient-8" x1="498.64" y1="335.32" x2="807.1" y2="387.52" xlink:href="#linear-gradient"/><linearGradient id="linear-gradient-9" x1="445.24" y1="381.07" x2="915.39" y2="381.07" xlink:href="#linear-gradient-2"/><radialGradient id="radial-gradient-5" cx="680.72" cy="391.94" r="173.88" xlink:href="#radial-gradient-2"/><radialGradient id="radial-gradient-6" cx="858.8" cy="239.99" r="27.1" gradientTransform="translate(126.16 76.9) scale(0.84)" xlink:href="#radial-gradient-2"/><radialGradient id="radial-gradient-7" cx="456.55" cy="232.5" r="27.1" gradientTransform="translate(126.16 76.9) scale(0.84)" xlink:href="#radial-gradient-2"/><linearGradient id="linear-gradient-10" x1="541.31" y1="217.75" x2="746.95" y2="249.38" xlink:href="#linear-gradient"/><linearGradient id="linear-gradient-11" x1="509.05" y1="251" x2="853.53" y2="251" xlink:href="#linear-gradient-2"/><radialGradient id="radial-gradient-8" cx="680.99" cy="258.97" r="127.4" xlink:href="#radial-gradient-2"/><linearGradient id="linear-gradient-12" x1="658.46" y1="229.14" x2="664.1" y2="286.38" xlink:href="#linear-gradient-3"/><linearGradient id="linear-gradient-13" x1="515.04" y1="341.81" x2="502.14" y2="400.66" xlink:href="#linear-gradient-3"/><linearGradient id="linear-gradient-14" x1="549.07" y1="343.72" x2="538.59" y2="388.87" xlink:href="#linear-gradient-3"/><linearGradient id="linear-gradient-15" x1="841.59" y1="344.75" x2="835.14" y2="398.76" xlink:href="#linear-gradient-3"/><linearGradient id="linear-gradient-16" x1="709.77" y1="372.96" x2="705.74" y2="431.01" xlink:href="#linear-gradient-3"/><linearGradient id="linear-gradient-17" x1="785.87" y1="336.01" x2="793.12" y2="370.68" xlink:href="#linear-gradient-3"/><linearGradient id="linear-gradient-18" x1="805.97" y1="223.21" x2="806.78" y2="277.23" xlink:href="#linear-gradient-3"/><linearGradient id="linear-gradient-19" x1="558.64" y1="208.49" x2="573.15" y2="267.34" xlink:href="#linear-gradient-3"/><linearGradient id="linear-gradient-20" x1="778.17" y1="212.59" x2="779.78" y2="257.74" xlink:href="#linear-gradient-3"/><radialGradient id="radial-gradient-9" cx="620.21" cy="-917.82" r="103.3" gradientTransform="translate(553.45 360.1) rotate(-8.72) scale(0.28)" gradientUnits="userSpaceOnUse"><stop offset="0.49" stop-color="#bf1f1f"/><stop offset="0.58" stop-color="#b91e1e"/><stop offset="0.7" stop-color="#a71b1b"/><stop offset="0.84" stop-color="#8a1517"/><stop offset="1" stop-color="#620e10"/><stop offset="1" stop-color="#610e10"/></radialGradient><radialGradient id="radial-gradient-10" cx="619.61" cy="-942.11" r="86.83" gradientTransform="translate(553.45 360.1) rotate(-8.72) scale(0.28)" gradientUnits="userSpaceOnUse"><stop offset="0" stop-color="#ff5620"/><stop offset="1" stop-color="#d81b21"/></radialGradient><radialGradient id="radial-gradient-11" cx="470.93" cy="288.44" r="27.1" gradientTransform="translate(31.89 21.34) scale(0.96)" xlink:href="#radial-gradient-2"/><radialGradient id="radial-gradient-12" cx="882.12" cy="288.44" r="27.1" gradientTransform="translate(31.89 21.34) scale(0.96)" xlink:href="#radial-gradient-2"/><radialGradient id="radial-gradient-13" cx="519.01" cy="305.02" r="27.1" gradientTransform="translate(31.89 21.34) scale(0.96)" xlink:href="#radial-gradient-2"/><radialGradient id="radial-gradient-14" cx="840.8" cy="300.62" r="27.1" gradientTransform="translate(31.89 21.34) scale(0.96)" xlink:href="#radial-gradient-2"/><radialGradient id="radial-gradient-15" cx="577.82" cy="313.1" r="27.1" gradientTransform="translate(31.89 21.34) scale(0.96)" xlink:href="#radial-gradient-2"/><radialGradient id="radial-gradient-16" cx="782.28" cy="311.76" r="27.1" gradientTransform="translate(31.89 21.34) scale(0.96)" xlink:href="#radial-gradient-2"/><radialGradient id="radial-gradient-17" cx="644.85" cy="316.12" r="27.1" gradientTransform="translate(31.89 21.34) scale(0.96)" xlink:href="#radial-gradient-2"/><radialGradient id="radial-gradient-18" cx="713.2" cy="316.31" r="27.1" gradientTransform="translate(31.89 21.34) scale(0.96)" xlink:href="#radial-gradient-2"/><radialGradient id="radial-gradient-19" cx="409" cy="438.3" r="27.1" gradientTransform="translate(31.89 21.34) scale(0.96)" xlink:href="#radial-gradient-2"/><radialGradient id="radial-gradient-20" cx="953.77" cy="439.69" r="27.1" gradientTransform="translate(31.89 21.34) scale(0.96)" xlink:href="#radial-gradient-2"/><radialGradient id="radial-gradient-21" cx="918.58" cy="458.25" r="27.1" gradientTransform="translate(31.89 21.34) scale(0.96)" xlink:href="#radial-gradient-2"/><radialGradient id="radial-gradient-22" cx="445.08" cy="461.04" r="27.1" gradientTransform="translate(31.89 21.34) scale(0.96)" xlink:href="#radial-gradient-2"/><radialGradient id="radial-gradient-23" cx="867.01" cy="471.34" r="27.1" gradientTransform="translate(31.89 21.34) scale(0.96)" xlink:href="#radial-gradient-2"/><radialGradient id="radial-gradient-24" cx="504.61" cy="474.46" r="27.1" gradientTransform="translate(31.89 21.34) scale(0.96)" xlink:href="#radial-gradient-2"/><radialGradient id="radial-gradient-25" cx="798.7" cy="480.52" r="27.1" gradientTransform="translate(31.89 21.34) scale(0.96)" xlink:href="#radial-gradient-2"/><radialGradient id="radial-gradient-26" cx="572.24" cy="481.74" r="27.1" gradientTransform="translate(31.89 21.34) scale(0.96)" xlink:href="#radial-gradient-2"/><radialGradient id="radial-gradient-27" cx="722.76" cy="483.48" r="27.1" gradientTransform="translate(31.89 21.34) scale(0.96)" xlink:href="#radial-gradient-2"/><radialGradient id="radial-gradient-28" cx="644.99" cy="483.11" r="27.1" gradientTransform="translate(31.89 21.34) scale(0.96)" xlink:href="#radial-gradient-2"/></defs><g class="cls-1"><g id="Layer_1" data-name="Layer 1"><ellipse class="cls-2" cx="313.92" cy="602.75" rx="313.92" ry="85.16"/><path class="cls-3" d="M971.77,636.3c0,34.39-135.87,75.21-296.43,75.21s-285-40.82-285-75.21c0-8.68-12.48-154.34-3.27-186.34,17.71-39,172.15-19.1,288.44-19.1,120.67,0,278.28-29.64,299.64,21.09C984.56,474.27,971.77,628.58,971.77,636.3Z" transform="translate(-369.08 -40.05)"/><g class="cls-4"><path class="cls-5" d="M966.56,579.17c2.1.35,6.09-2.08,6.33-4.62,1.57-16.58,2.83-25.29,3.78-37.94.63-8.4,1.37-16.8,1.71-25.22.16-3.8,2.62-22-.23-24.43-2.4-2-5.86-2.32-8.49-4.21-9-6.51-25.8-7.78-37.26-10.83C885,459.28,837.14,456.15,787.32,452q-13.65-1.14-27.27-1.87c-28.73,1.54-57.55,2.85-84.53,2.85-28.11,0-58.45-1-88.56-2.11q-43,2.44-85.85,6.94a384,384,0,0,0-61.54,11.82c-12.13,3.29-42.81,8-50.25,16a25.18,25.18,0,0,0-5.52,9.86A394.76,394.76,0,0,0,386,548.38c.8,7.44-.27,16.59,1.93,23.72,2.39,7.75,9.11,6,12-.27,3.56-7.64,3.45-21.12,3.27-29.43-.08-4.15-2.92-23.54,3.61-24.62,4.68-.78,8.3,15.41,13.05,17.89,7.74,4,16.84,3.93,24.45,8.7,14.54,9.12,14.53,65.48,41.8,46.38,9-6.3,10.05-16.83,12.91-26.57,2.16-7.37,4.69-16.8,14.36-13.94,5.76,1.7,8.11,7.59,12.78,10.67,16.07,10.62,32.89-4.49,42.18-16.53,3.81-5,6.81-11.58,13.89-11.63,14.18-.1,20.07,14.31,26,24.61,7.27,12.71,8.89,27.19,9.25,41.6s1.51,32.47,13.68,42.15c10.68,8.49,32.22,11.35,41.62-.54,11.71-14.8,5.52-40.31,5.68-57.69.07-7-1.48-15.37,6.46-18.8,6.93-3,13.45,2.07,16.53,8.16,2.37,4.66,2.72,10.6,8.61,12.08,19.57,4.91,19.92-56.69,43.94-39.69,8.44,6,12.61,9.25,22.44,3,8-5.09,14.8-13.69,24.62-15.51,27.22-5,15,47,39.53,48.5,11.49.69,21-18.06,29.83-5.84,6.8,9.4,10,23.33,19.85,30.14,8.51,5.87,20.9,7,30.53,3.54,18.6-6.71,15.08-27.66,11.64-42.69-1.82-7.92-4.83-17.12-4-25.3,1.43-14.21,8.94-4.46,15.67-1.23,9.81,4.71,13.15-4.37,16.57-11.37,4.22-8.64,8-1.66,7.07,5.6-1.2,9.32-7.15,17.1-7.76,27C959.71,565.49,958.74,577.87,966.56,579.17Z" transform="translate(-369.08 -40.05)"/></g><path class="cls-6" d="M981.44,437.56c7,17,1.3,41-.74,58.61-1.74,15-5.76,30.92-1.22,45.64,1.69,5.47,7.51,14.2,3.68,20-3.3,5-10.27,4.45-14.19.39-9-9.29,9.14-57.8-5.72-58.05-7.62-.13-5.67,8.69-6.28,13.25s-1.41,13.15-8.09,13.34c-6.87.2-6.12-7.64-8.09-12.39-8.42-20.34-13.65,3.29-13.93,13.36-.44,16.17,6.1,35.92-.24,51.23-6,14.6-19.14,20.81-33,12.33a33.29,33.29,0,0,1-13.54-16.46c-2.23-5.47-3.36-16.7-9-20.05-7.34-4.33-14.27,2.62-20.9,5.27-28.6,11.42-21.49-19.27-23.94-35.67-2.39-16-15.91-20.09-29.41-13.74-14.39,6.79-22.07,27.59-41.1,23.15-6.36-1.48-12.63-8.9-19.87-6.87-14.21,4-5.15,30.59-23.25,30.84-13.71.18-19.92-40.18-33.75-16.15-5.67,9.84-2,22.86-1.24,33.4.94,13.38,1.64,30-3.91,42.46-10.83,24.42-38.27,15.8-50-2.54-14.7-22.92,4.77-56.13-13.9-79-8.74-10.69-19-24.48-34.69-20.83-11.21,2.62-17.58,13.46-27.69,18.14-13.4,6.19-21.77-2.46-34.49-1.64-8.57.55-14,10.06-15.61,17.17-2.87,13-7.61,40.6-28.66,26.74-15.83-10.42-3.36-40-20.65-48.93-7.71-4-17.77,3.08-25.11-3.21-6.83-5.85-3.51-18.48-11.3-23.86C395.83,492.73,396.16,526.33,396,534c-.2,7.89,1.06,49.78-15.86,32.09-6.2-6.48-1.91-15.47.43-22.51,10.58-31.78-10.75-84.74,7.12-110.42,7.49-10.76,38.34-17.06,50.54-21.49,20.31-7.37,40.45-12.94,61.89-15.92,58.94-8.19,118-12.93,177.48-12.93,37,0,73.53,1,110.36,5.09,50.09,5.58,98.2,9.79,145.89,26.82,11.53,4.12,28.39,5.82,37.48,14.59C974.61,432.54,979.25,432.26,981.44,437.56Z" transform="translate(-369.08 -40.05)"/><path class="cls-7" d="M975.84,553.86c-2.66-1.58-5.13-3.37-5.88-5.85-1.72-5.65.18-11.54,1.08-17.07,1.51-9.31,6.22-26.73-2.38-33.74C953,484.47,956.82,521,948.56,516.61c-7.1-3.73-12.42-28-22.42-10.61-6.93,12.07-5.44,28.08-4.15,41.27,1,10.13.88,27.78-10.73,32.35-6.19,2.44-15.9.84-21.11-3.17-10.18-7.83-8.6-21.41-12.89-32.09-6.55-16.3-14.22,9.87-23.93,12.21-14.4,3.47-16.81-11.88-19.65-21.27C829.79,522.45,818,493,799.79,498.51,781.85,504,774,542.39,751.3,526.69c-10.9-7.54-19.94-7.1-26.07,5.73-3.19,6.68-10.29,27.69-20.88,16.67-7.05-7.33-1.64-23.38-9.82-29.41C671,502.32,674,575.61,673.8,581.42c-.41,10.23-1.42,25.8-12.51,30.38-16.21,6.68-29.31-8.52-32.81-22.26a583.62,583.62,0,0,1-11.88-62c-1.27-9-4.78-15.83-12.09-21.46-12.33-9.5-27.66-1-36.55,8.93-8.6,9.6-16.58,18.78-30.52,19.06-10.25.2-17.16-8.34-21.23-16.4-2.38-4.69-3.67-9.86-9.35-6.61-4.21,2.41-6.58,9.9-8.09,14.14-3.52,9.87-4,23.08-9.75,32-8.16,12.66-22.16,10.53-26.14-3.89-2.09-7.57-.63-15.94-2.9-23.33-5.34-17.41-24.15,1.35-33.05-8-4.87-5.12-4.73-13.58-7.11-19.92s-7.46-13.9-15.34-12c-15.74,3.89-8,46.37-11.34,57.35-1.11,3.68-2.65,11.16-5.11,14.11-1.32,1.59-8.17,5.09-9.85,1.88a12,12,0,0,0,1.93,2.75C397,583.81,395.77,541.92,396,534c.19-7.7-.14-41.3,15.54-30.48,7.79,5.38,4.48,18,11.3,23.86,7.34,6.29,17.4-.78,25.11,3.21,17.29,8.94,4.82,38.51,20.65,48.93,21.05,13.86,25.79-13.79,28.66-26.74,1.57-7.11,7-16.62,15.61-17.17,12.72-.82,21.09,7.83,34.49,1.64,10.11-4.68,16.48-15.52,27.69-18.14,15.68-3.65,26,10.14,34.69,20.83,18.67,22.83-.8,56,13.9,79,11.76,18.34,39.2,27,50,2.54,5.55-12.5,4.85-29.08,3.91-42.46-.74-10.54-4.43-23.56,1.24-33.4,13.83-24,20,16.33,33.75,16.15,18.1-.25,9-26.86,23.25-30.84,7.24-2,13.51,5.39,19.87,6.87,19,4.44,26.71-16.36,41.1-23.15,13.5-6.35,27-2.23,29.41,13.74,2.57,17.18-4.52,47,23.94,35.67,6.63-2.65,13.56-9.6,20.9-5.27,5.68,3.35,6.81,14.58,9,20.05a33.24,33.24,0,0,0,13.54,16.46c13.89,8.48,27,2.27,33-12.33,6.34-15.31-.2-35.06.24-51.23.28-10.07,5.51-33.7,13.93-13.36,2,4.75,1.22,12.59,8.09,12.39,6.68-.19,7.48-8.78,8.09-13.34s-1.34-13.38,6.28-13.25c14.85.25-3.19,45.38,4.66,57.63,2.82,4.4,14.33,6.32,16.05-.66C984.2,558.12,979.81,556.23,975.84,553.86Z" transform="translate(-369.08 -40.05)"/><path class="cls-8" d="M982.35,442c0,31.34-139.74,51.52-304.87,51.52S384.36,473.31,384.36,442s128-62,293.12-62S982.35,410.62,982.35,442Z" transform="translate(-369.08 -40.05)"/><g class="cls-9"><path class="cls-10" d="M723.13,478.81c-160.2-.41-284.31-18.93-284.23-47.22,0-13,26.37-25.8,70.33-35.8-72.05,10.47-118.07,27.31-118.13,44.52-.08,28.29,124,46.81,284.24,47.22,103.49.26,196.66-7.11,249.73-20C871.71,475,800.3,479,723.13,478.81Z" transform="translate(-369.08 -40.05)"/></g><path class="cls-11" d="M907.72,577.73c14.41-3.55,13.74-25.73,13.37-33.92-1.79-39.49-7.54-17.51-20-18.95-11.88-1.37-23.47-17.78-29.38-25.7C878.26,517.35,873.29,586.21,907.72,577.73Z" transform="translate(-369.08 -40.05)"/><path class="cls-12" d="M852.59,556.73c9.61-1.92,17-21.38,24.71-27,21-15.43-19.13-8-27.3-9.44-7.77-1.4-29.14-12.93-32.7-18.4C839,524.11,831.53,561,852.59,556.73Z" transform="translate(-369.08 -40.05)"/><path class="cls-13" d="M472,563.45c-10.22-2.52-9.74-18.25-9.48-24.05,1.27-28,5.35-12.42,14.21-13.44,8.42-1,16.64-12.6,20.83-18.22C492.93,520.63,496.46,569.47,472,563.45Z" transform="translate(-369.08 -40.05)"/><path class="cls-14" d="M657.82,612.56c16.4-2.84,15.63-27.5,15.21-36.61-2-43.94-8.57-20-22.79-22.55-13.51-2.42-26.69-21.51-33.42-30.76C624.31,543.32,618.65,619.34,657.82,612.56Z" transform="translate(-369.08 -40.05)"/><path class="cls-15" d="M578.89,503.32c-16.63,8.95-20.32,26.67-34.43,29.12-18.73,3.24-27.2-12.46-31.77-32Z" transform="translate(-369.08 -40.05)"/><path class="cls-16" d="M867.65,410.2c-8.86,7.64,12.77,8.49,18,10.65,2.32,2.4,7.75,4,19,3.31-.07-.11-.11-.2-.17-.3,4.83-3.54,42.3-2.72,31.09-13.25Z" transform="translate(-369.08 -40.05)"/><path class="cls-17" d="M914.78,385.51c4.5,8.18-7.1,26.82-19.69,34.95,10.14,2.1,10.28-1.78,14.62-2.24C949.61,414,928.88,392.93,914.78,385.51Z" transform="translate(-369.08 -40.05)"/><path class="cls-18" d="M871.59,411.5c-7-.8-3.54-9.71,3.3-13.13,9.83-4.91,38.63-12.64,19.75-22C929.9,377.72,898.29,414.55,871.59,411.5Z" transform="translate(-369.08 -40.05)"/><path class="cls-17" d="M871.59,411.5c-3-.34-4.07-2.16-3.79-4.39.36-3-.35,2.11,9.5-1.71,15.79-6.13,42.42-19.26,17.34-29C929.9,377.72,898.29,414.55,871.59,411.5Z" transform="translate(-369.08 -40.05)"/><path class="cls-19" d="M867.8,407.11c.39,2.47,2.58,4.59,12.19.22,20.88-9.49,42-24.65,14.65-30.93,32.51,1.22,17,39.78-7.91,42.16C882.83,415.39,865.32,418.08,867.8,407.11Z" transform="translate(-369.08 -40.05)"/><path class="cls-20" d="M885.05,413.7a22.87,22.87,0,0,1-10,.12,19.86,19.86,0,0,1-7.24-3.14c1.82,6.8,15.57,5.11,19,7.88a26.06,26.06,0,0,0,3.55-.61A10.94,10.94,0,0,1,885.05,413.7Z" transform="translate(-369.08 -40.05)"/><path class="cls-18" d="M885.33,417.41c-5.46-6.07-1.44-11.49,5.4-14.91,9.83-4.91,33.92-19.76,3.91-26.1C939.75,380.8,892.19,415.36,885.33,417.41Z" transform="translate(-369.08 -40.05)"/><path class="cls-17" d="M904.58,421.25c-30,2-18.61-13.14-16.93-14,19.93-10.09,40.55-26.06,7-30.86,34.73,1.75,22.72,34.12.36,38.77C892.58,415.67,892.43,416,904.58,421.25Z" transform="translate(-369.08 -40.05)"/><path class="cls-19" d="M904.58,421.25c-21.86.66-13.32-6.6-8.67-8.91,22.39-11.11,20.37-22.43,17.21-29.14C930.09,410.14,896.9,409.49,904.58,421.25Z" transform="translate(-369.08 -40.05)"/><path class="cls-19" d="M914.78,385.51c41.28,25.52-14,28.1-10.73,35.75,3.93-4.38,36.62,1.18,32.13-16.55C934.06,396.34,917.07,386.69,914.78,385.51Z" transform="translate(-369.08 -40.05)"/><path class="cls-18" d="M914.68,385.54c20.32,17.27-10.63,28.2-10.73,34.73C911.29,410.45,949.75,405.71,914.68,385.54Z" transform="translate(-369.08 -40.05)"/><path class="cls-17" d="M874.89,398.37c9.83-4.91,39.91-12,19.75-22C899.29,384.14,889.25,390.42,874.89,398.37Z" transform="translate(-369.08 -40.05)"/><path class="cls-20" d="M904.8,412.11c18.12-11.55,11.48-22.2,8.32-28.91,14.85,23.57-8.71,26-9.69,34.14C903.29,418.5,900.3,415,904.8,412.11Z" transform="translate(-369.08 -40.05)"/><path class="cls-20" d="M905.86,418.17c-1.51,1-2.28,2-1.81,3.09,3.43-3.82,28.77-.08,32.17-10.86C930.38,416.7,914.12,416.75,905.86,418.17Z" transform="translate(-369.08 -40.05)"/><path class="cls-21" d="M435.86,410.2c-8.86,7.64,12.77,8.49,18,10.65,2.32,2.4,7.74,4,19,3.31-.07-.11-.11-.2-.17-.3,4.83-3.54,42.3-2.72,31.09-13.25Z" transform="translate(-369.08 -40.05)"/><path class="cls-17" d="M483,385.51c4.5,8.18-7.1,26.82-19.68,34.95,10.14,2.1,10.28-1.78,14.61-2.24C517.82,414,497.09,392.93,483,385.51Z" transform="translate(-369.08 -40.05)"/><path class="cls-18" d="M439.8,411.5c-7-.8-3.54-9.71,3.3-13.13,9.83-4.91,38.63-12.64,19.75-22C498.11,377.72,466.51,414.55,439.8,411.5Z" transform="translate(-369.08 -40.05)"/><path class="cls-17" d="M439.8,411.5c-3-.34-4.06-2.16-3.79-4.39.36-3-.35,2.11,9.5-1.71,15.79-6.13,42.42-19.26,17.34-29C498.11,377.72,466.51,414.55,439.8,411.5Z" transform="translate(-369.08 -40.05)"/><path class="cls-19" d="M436,407.11c.39,2.47,2.58,4.59,12.19.22,20.88-9.49,42-24.65,14.65-30.93,32.51,1.22,17,39.78-7.91,42.16C451,415.39,433.53,418.08,436,407.11Z" transform="translate(-369.08 -40.05)"/><path class="cls-20" d="M453.26,413.7a22.87,22.87,0,0,1-10.05.12,19.86,19.86,0,0,1-7.24-3.14c1.82,6.8,15.57,5.11,19,7.88a26.06,26.06,0,0,0,3.55-.61A11,11,0,0,1,453.26,413.7Z" transform="translate(-369.08 -40.05)"/><path class="cls-18" d="M453.54,417.41c-5.45-6.07-1.44-11.49,5.4-14.91,9.83-4.91,33.93-19.76,3.91-26.1C508,380.8,460.4,415.36,453.54,417.41Z" transform="translate(-369.08 -40.05)"/><path class="cls-17" d="M472.79,421.25c-30,2-18.61-13.14-16.93-14,19.93-10.09,40.55-26.06,7-30.86,34.73,1.75,22.72,34.12.36,38.77C460.79,415.67,460.64,416,472.79,421.25Z" transform="translate(-369.08 -40.05)"/><path class="cls-19" d="M472.79,421.25c-21.86.66-13.32-6.6-8.67-8.91,22.39-11.11,20.37-22.43,17.21-29.14C498.3,410.14,465.11,409.49,472.79,421.25Z" transform="translate(-369.08 -40.05)"/><path class="cls-19" d="M483,385.51c41.29,25.52-14,28.1-10.73,35.75,3.93-4.38,36.62,1.18,32.13-16.55C502.27,396.34,485.28,386.69,483,385.51Z" transform="translate(-369.08 -40.05)"/><path class="cls-18" d="M482.89,385.54c20.32,17.27-10.63,28.2-10.73,34.73C479.5,410.45,518,405.71,482.89,385.54Z" transform="translate(-369.08 -40.05)"/><path class="cls-17" d="M443.1,398.37c9.83-4.91,39.91-12,19.75-22C467.5,384.14,457.46,390.42,443.1,398.37Z" transform="translate(-369.08 -40.05)"/><path class="cls-20" d="M473,412.11c18.12-11.55,11.48-22.2,8.32-28.91,14.85,23.57-8.71,26-9.68,34.14C471.51,418.5,468.51,415,473,412.11Z" transform="translate(-369.08 -40.05)"/><path class="cls-20" d="M474.07,418.17c-1.51,1-2.28,2-1.81,3.09,3.43-3.82,28.77-.08,32.17-10.86C498.59,416.7,482.33,416.75,474.07,418.17Z" transform="translate(-369.08 -40.05)"/><path class="cls-22" d="M451.35,411.74c0,27.13,107.21,59.34,233.89,59.34s224.87-32.21,224.87-59.34c0-6.85,9.84-85.17,2.58-110.42-14-30.81-135.83-15.07-227.59-15.07-95.21,0-219.57-23.38-236.42,16.65C441.26,320.5,451.35,405.65,451.35,411.74Z" transform="translate(-369.08 -40.05)"/><g class="cls-4"><path class="cls-23" d="M455.46,404.61c-1.65.28-4.8-1.64-5-3.65-1.24-13.08-2.23-19.95-3-29.93-.5-6.63-1.08-13.25-1.35-19.9-.13-3-2.07-17.38.18-19.28,1.89-1.61,4.62-1.82,6.7-3.32,7.13-5.14,20.36-6.13,29.4-8.54,37.42-10,75.16-12.44,114.47-15.71q10.77-.88,21.51-1.47c22.67,1.21,45.41,2.25,66.7,2.25,22.18,0,46.12-.81,69.87-1.66q33.93,1.94,67.74,5.47a303.28,303.28,0,0,1,48.56,9.33c9.57,2.59,33.78,6.28,39.65,12.58a20,20,0,0,1,4.36,7.78,311.56,311.56,0,0,1-1.78,41.76c-.62,5.87.22,13.09-1.52,18.71-1.89,6.12-7.18,4.77-9.5-.21-2.81-6-2.72-16.66-2.58-23.22.07-3.28,2.31-18.57-2.85-19.43-3.68-.61-6.54,12.16-10.29,14.12-6.11,3.18-13.29,3.1-19.3,6.87-11.47,7.19-11.46,51.65-33,36.59-7.11-5-7.93-13.28-10.19-21-1.71-5.81-3.7-13.25-11.33-11-4.54,1.34-6.4,6-10.09,8.43-12.68,8.38-26-3.55-33.27-13-3-3.91-5.38-9.14-11-9.18-11.18-.07-15.83,11.29-20.48,19.42-5.74,10-7,21.46-7.31,32.83s-1.18,25.61-10.79,33.25c-8.43,6.7-25.42,8.95-32.84-.42-9.23-11.68-4.35-31.81-4.48-45.52,0-5.49,1.17-12.13-5.1-14.84-5.46-2.36-10.6,1.64-13,6.44-1.86,3.68-2.14,8.36-6.79,9.53-15.45,3.88-15.72-44.72-34.67-31.31-6.66,4.71-9.95,7.29-17.7,2.39-6.35-4-11.68-10.8-19.43-12.23-21.48-4-11.82,37.09-31.19,38.26-9.06.55-16.56-14.25-23.54-4.6-5.37,7.41-7.87,18.41-15.66,23.78-6.72,4.63-16.49,5.53-24.09,2.79-14.67-5.29-11.89-21.82-9.18-33.68,1.43-6.25,3.81-13.51,3.16-20-1.13-11.2-7.05-3.51-12.36-1-7.74,3.71-10.38-3.45-13.08-9-3.33-6.82-6.31-1.32-5.57,4.41.94,7.36,5.63,13.5,6.12,21.29C460.87,393.82,461.64,403.59,455.46,404.61Z" transform="translate(-369.08 -40.05)"/></g><path class="cls-6" d="M443.72,292.88c-5.55,13.41-1,32.35.59,46.24,1.37,11.8,4.54,24.4,1,36-1.33,4.31-5.93,11.19-2.9,15.79,2.6,3.95,8.1,3.51,11.19.31,7.08-7.33-7.2-45.61,4.52-45.81,6-.1,4.47,6.86,4.95,10.46s1.12,10.38,6.38,10.53c5.43.15,4.83-6,6.38-9.79,6.65-16,10.78,2.61,11,10.55.35,12.76-4.81,28.34.19,40.42,4.76,11.52,15.1,16.42,26.06,9.73a26.24,26.24,0,0,0,10.68-13c1.76-4.31,2.65-13.17,7.14-15.82,5.79-3.41,11.26,2.07,16.49,4.16,22.56,9,16.95-15.2,18.89-28.14,1.88-12.61,12.55-15.86,23.2-10.84,11.35,5.35,17.41,21.77,32.43,18.26,5-1.17,10-7,15.68-5.42,11.21,3.14,4.06,24.14,18.34,24.33,10.82.15,15.72-31.7,26.63-12.74,4.47,7.76,1.57,18,1,26.35-.74,10.56-1.29,23.64,3.08,33.51,8.55,19.26,30.2,12.46,39.48-2,11.6-18.08-3.77-44.29,11-62.3,6.89-8.44,15-19.31,27.37-16.43,8.84,2.06,13.86,10.62,21.85,14.31,10.57,4.88,17.17-1.95,27.21-1.3,6.76.44,11.07,7.94,12.31,13.55,2.27,10.22,6,32,22.62,21.1,12.48-8.22,2.65-31.55,16.29-38.61,6.09-3.15,14,2.43,19.81-2.53,5.39-4.62,2.77-14.58,8.92-18.83,12.37-8.53,12.11,18,12.26,24.06s-.83,39.27,12.51,25.31c4.89-5.11,1.51-12.2-.34-17.76-8.34-25.07,8.48-66.86-5.62-87.12-5.9-8.49-30.25-13.46-39.87-16.95a237.07,237.07,0,0,0-48.83-12.57c-46.51-6.46-93.1-10.2-140-10.2-29.21,0-58,.79-87.07,4-39.53,4.4-77.48,7.72-115.12,21.16-9.09,3.25-22.39,4.59-29.57,11.51C449.11,288.92,445.46,288.69,443.72,292.88Z" transform="translate(-369.08 -40.05)"/><path class="cls-24" d="M448.14,384.64c2.1-1.25,4.05-2.66,4.64-4.62,1.36-4.46-.14-9.1-.85-13.46-1.19-7.35-4.91-21.1,1.88-26.62,12.33-10.05,9.34,18.74,15.86,15.31,5.6-2.95,9.79-22.12,17.69-8.37,5.46,9.52,4.29,22.15,3.27,32.56-.78,8-.69,21.92,8.47,25.53,4.88,1.92,12.54.66,16.66-2.51,8-6.17,6.78-16.89,10.16-25.32,5.17-12.86,11.22,7.79,18.88,9.64,11.37,2.74,13.27-9.38,15.51-16.78,3.07-10.14,12.35-33.39,26.74-29,14.15,4.29,20.36,34.62,38.26,22.23,8.6-5.95,15.73-5.6,20.57,4.52,2.52,5.27,8.12,21.85,16.48,13.16,5.55-5.79,1.29-18.45,7.74-23.21,18.59-13.7,16.17,44.13,16.35,48.72.33,8.07,1.13,20.36,9.88,24,12.79,5.28,23.12-6.72,25.89-17.56a462.12,462.12,0,0,0,9.37-49c1-7.08,3.77-12.5,9.54-16.94,9.73-7.5,21.82-.8,28.84,7,6.78,7.58,13.08,14.82,24.08,15.05,8.08.16,13.54-6.59,16.75-12.94,1.87-3.71,2.89-7.78,7.37-5.22,3.33,1.91,5.2,7.81,6.39,11.16,2.77,7.79,3.17,18.21,7.69,25.23,6.44,10,17.48,8.3,20.63-3.08,1.64-6,.5-12.57,2.29-18.41,4.21-13.73,19.05,1.07,26.07-6.3,3.85-4,3.73-10.71,5.62-15.72s5.88-11,12.09-9.43c12.42,3.07,6.34,36.58,8.95,45.25.88,2.9,2.09,8.8,4,11.13,1,1.26,6.44,4,7.77,1.48a9.45,9.45,0,0,1-1.53,2.17c-13.34,14-12.35-19.09-12.51-25.31s.11-32.59-12.26-24.06c-6.15,4.25-3.53,14.21-8.92,18.83-5.79,5-13.72-.62-19.81,2.53-13.64,7.06-3.8,30.39-16.29,38.61C831.78,415.85,828,394,825.77,383.81c-1.24-5.61-5.55-13.11-12.31-13.55-10-.65-16.64,6.18-27.21,1.3-8-3.69-13-12.25-21.85-14.31-12.37-2.88-20.48,8-27.37,16.43-14.74,18,.63,44.22-11,62.3-9.28,14.47-30.93,21.27-39.48,2-4.37-9.87-3.82-22.95-3.08-33.51.59-8.31,3.49-18.59-1-26.35-10.91-19-15.81,12.89-26.63,12.74-14.28-.19-7.13-21.19-18.34-24.33-5.72-1.6-10.67,4.25-15.68,5.42-15,3.51-21.08-12.91-32.43-18.26-10.65-5-21.32-1.77-23.2,10.84-2,13.55,3.56,37.1-18.89,28.14-5.23-2.09-10.7-7.57-16.49-4.16-4.49,2.65-5.38,11.51-7.14,15.82a26.24,26.24,0,0,1-10.68,13c-11,6.69-21.3,1.79-26.06-9.73-5-12.08.16-27.66-.19-40.42-.22-7.94-4.35-26.59-11-10.55-1.55,3.76-1,9.94-6.38,9.79-5.26-.15-5.89-6.93-6.38-10.53s1.06-10.56-4.95-10.46c-11.72.2,2.51,35.81-3.68,45.48-2.23,3.47-11.31,5-12.66-.52C441.54,388,445,386.51,448.14,384.64Z" transform="translate(-369.08 -40.05)"/><path class="cls-8" d="M443,296.35C443,321.09,553.27,337,683.56,337s231.27-15.92,231.27-40.66-101-48.92-231.27-48.92S443,271.62,443,296.35Z" transform="translate(-369.08 -40.05)"/><g class="cls-9"><path class="cls-10" d="M712,325.43c-126.4-.33-224.33-14.94-224.26-37.26,0-10.26,20.81-20.36,55.49-28.25-56.85,8.26-93.16,21.55-93.2,35.13-.07,22.32,97.86,36.93,224.26,37.25,81.66.21,155.17-5.6,197-15.76C829.2,322.38,772.86,325.58,712,325.43Z" transform="translate(-369.08 -40.05)"/></g><path class="cls-25" d="M821.27,273.27c-7.8,6.73,11.26,7.48,15.84,9.38,2,2.11,6.83,3.57,16.71,2.92-.06-.09-.09-.17-.15-.26,4.26-3.12,37.28-2.4,27.4-11.68Z" transform="translate(-369.08 -40.05)"/><path class="cls-17" d="M862.81,251.51c4,7.2-6.26,23.63-17.35,30.8,8.94,1.85,9.06-1.57,12.89-2C893.51,276.62,875.23,258.05,862.81,251.51Z" transform="translate(-369.08 -40.05)"/><path class="cls-18" d="M824.75,274.41c-6.16-.7-3.12-8.56,2.91-11.57,8.66-4.33,34-11.14,17.4-19.37C876.13,244.64,848.28,277.1,824.75,274.41Z" transform="translate(-369.08 -40.05)"/><path class="cls-17" d="M824.75,274.41c-2.63-.3-3.59-1.9-3.35-3.87.32-2.65-.3,1.86,8.38-1.5,13.92-5.4,37.38-17,15.28-25.57C876.13,244.64,848.28,277.1,824.75,274.41Z" transform="translate(-369.08 -40.05)"/><path class="cls-19" d="M821.4,270.54c.35,2.18,2.28,4,10.75.2,18.4-8.37,37-21.73,12.91-27.27,28.65,1.08,15,35.07-7,37.16C834.65,277.84,819.22,280.21,821.4,270.54Z" transform="translate(-369.08 -40.05)"/><path class="cls-20" d="M836.61,276.35a20.21,20.21,0,0,1-8.86.11,17.65,17.65,0,0,1-6.38-2.77c1.6,6,13.72,4.51,16.72,6.94a21.53,21.53,0,0,0,3.13-.53A9.65,9.65,0,0,1,836.61,276.35Z" transform="translate(-369.08 -40.05)"/><path class="cls-18" d="M836.85,279.62c-4.8-5.35-1.26-10.12,4.77-13.14,8.66-4.33,29.89-17.42,3.44-23C884.82,247.36,842.9,277.82,836.85,279.62Z" transform="translate(-369.08 -40.05)"/><path class="cls-17" d="M853.82,283c-26.46,1.74-16.4-11.58-14.92-12.33,17.57-8.88,35.74-23,6.16-27.2,30.61,1.55,20,30.07.32,34.18C843.25,278.09,843.12,278.35,853.82,283Z" transform="translate(-369.08 -40.05)"/><path class="cls-19" d="M853.82,283c-19.27.58-11.74-5.81-7.64-7.85,19.74-9.79,18-19.77,15.17-25.68C876.3,273.21,847.05,272.65,853.82,283Z" transform="translate(-369.08 -40.05)"/><path class="cls-19" d="M862.81,251.51C899.2,274,850.45,276.27,853.36,283c3.46-3.87,32.27,1,28.31-14.59C879.8,261.06,864.83,252.54,862.81,251.51Z" transform="translate(-369.08 -40.05)"/><path class="cls-18" d="M862.72,251.53c17.91,15.22-9.37,24.86-9.46,30.61C859.74,273.49,893.63,269.31,862.72,251.53Z" transform="translate(-369.08 -40.05)"/><path class="cls-17" d="M827.66,262.84c8.66-4.33,35.17-10.54,17.4-19.37C849.16,250.3,840.31,255.83,827.66,262.84Z" transform="translate(-369.08 -40.05)"/><path class="cls-20" d="M854,275c16-10.18,10.13-19.57,7.34-25.48,13.08,20.77-7.68,22.94-8.54,30.09C852.69,280.58,850.05,277.48,854,275Z" transform="translate(-369.08 -40.05)"/><path class="cls-20" d="M855,280.29c-1.33.87-2,1.75-1.59,2.73,3-3.37,25.35-.07,28.34-9.57C876.56,279,862.23,279,855,280.29Z" transform="translate(-369.08 -40.05)"/><path class="cls-26" d="M481.69,266.94c-7.8,6.73,11.26,7.48,15.83,9.39,2.05,2.11,6.83,3.56,16.72,2.91-.06-.09-.1-.17-.15-.26,4.25-3.12,37.28-2.4,27.4-11.68Z" transform="translate(-369.08 -40.05)"/><path class="cls-17" d="M523.23,245.18c4,7.21-6.26,23.63-17.35,30.8,8.94,1.86,9.06-1.57,12.88-2C553.93,270.29,535.65,251.72,523.23,245.18Z" transform="translate(-369.08 -40.05)"/><path class="cls-18" d="M485.16,268.09c-6.16-.71-3.11-8.56,2.92-11.58,8.66-4.33,34-11.14,17.4-19.36C536.55,238.32,508.7,270.77,485.16,268.09Z" transform="translate(-369.08 -40.05)"/><path class="cls-17" d="M485.16,268.09c-2.62-.3-3.58-1.9-3.34-3.88.32-2.65-.3,1.87,8.37-1.5,13.93-5.4,37.39-17,15.29-25.56C536.55,238.32,508.7,270.77,485.16,268.09Z" transform="translate(-369.08 -40.05)"/><path class="cls-19" d="M481.82,264.21c.35,2.19,2.28,4.06,10.75.2,18.4-8.37,37-21.73,12.91-27.26,28.65,1.08,15,35.06-7,37.16C495.07,271.51,479.64,273.89,481.82,264.21Z" transform="translate(-369.08 -40.05)"/><path class="cls-20" d="M497,270a20,20,0,0,1-8.85.11,17.4,17.4,0,0,1-6.38-2.77c1.6,6,13.72,4.51,16.72,6.95a23,23,0,0,0,3.13-.54A9.72,9.72,0,0,1,497,270Z" transform="translate(-369.08 -40.05)"/><path class="cls-18" d="M497.27,273.29c-4.8-5.35-1.27-10.12,4.77-13.13,8.66-4.33,29.89-17.42,3.44-23C545.24,241,503.32,271.49,497.27,273.29Z" transform="translate(-369.08 -40.05)"/><path class="cls-17" d="M514.24,276.68c-26.47,1.74-16.4-11.59-14.92-12.33,17.57-8.89,35.74-23,6.16-27.2,30.61,1.54,20,30.07.31,34.17C503.66,271.76,503.53,272,514.24,276.68Z" transform="translate(-369.08 -40.05)"/><path class="cls-19" d="M514.24,276.68c-19.27.58-11.74-5.82-7.64-7.86,19.73-9.79,17.95-19.76,15.16-25.68C536.72,266.89,507.47,266.32,514.24,276.68Z" transform="translate(-369.08 -40.05)"/><path class="cls-19" d="M523.23,245.18c36.38,22.49-12.36,24.76-9.45,31.51,3.45-3.86,32.26,1,28.31-14.59C540.22,254.73,525.25,246.22,523.23,245.18Z" transform="translate(-369.08 -40.05)"/><path class="cls-18" d="M523.14,245.21c17.91,15.22-9.37,24.85-9.46,30.61C520.16,267.16,554.05,263,523.14,245.21Z" transform="translate(-369.08 -40.05)"/><path class="cls-17" d="M488.08,256.51c8.66-4.33,35.17-10.54,17.4-19.36C509.58,244,500.73,249.5,488.08,256.51Z" transform="translate(-369.08 -40.05)"/><path class="cls-20" d="M514.43,268.63c16-10.19,10.12-19.57,7.33-25.49,13.09,20.78-7.67,22.94-8.53,30.1C513.11,274.26,510.47,271.15,514.43,268.63Z" transform="translate(-369.08 -40.05)"/><path class="cls-20" d="M515.37,274c-1.33.86-2,1.74-1.59,2.72,3-3.37,25.35-.07,28.34-9.57C537,272.67,522.64,272.72,515.37,274Z" transform="translate(-369.08 -40.05)"/><path class="cls-27" d="M849.05,273.48c0,19.88-78.55,38.82-171.37,38.82s-165.6-13.62-165.6-33.5c0-5-6.38-67.72-1.06-86.22,10.24-22.58,99.53-11.05,166.76-11.05,69.76,0,160.88-17.13,173.23,12.2C856.44,206.63,849.05,269,849.05,273.48Z" transform="translate(-369.08 -40.05)"/><g class="cls-4"><path class="cls-28" d="M846,268.26c1.21.2,3.52-1.21,3.65-2.68.91-9.58,1.64-14.62,2.19-21.93.36-4.86.79-9.71,1-14.58.09-2.2,1.51-12.73-.13-14.13-1.39-1.17-3.39-1.33-4.91-2.43-5.23-3.76-14.92-4.49-21.55-6.26-27.41-7.3-55.07-9.11-83.87-11.51q-7.89-.65-15.76-1.07c-16.61.88-33.27,1.64-48.87,1.64-16.25,0-33.79-.59-51.2-1.22q-24.86,1.42-49.63,4a222.59,222.59,0,0,0-35.58,6.83c-7,1.9-24.75,4.6-29,9.22a14.51,14.51,0,0,0-3.19,5.7,226.7,226.7,0,0,0,1.3,30.6c.46,4.3-.16,9.59,1.11,13.71,1.39,4.48,5.27,3.49,7-.16,2.06-4.42,2-12.21,1.89-17,0-2.4-1.69-13.61,2.09-14.24,2.7-.44,4.8,8.91,7.54,10.35,4.48,2.33,9.74,2.27,14.14,5,8.41,5.27,8.4,37.85,24.16,26.81,5.21-3.64,5.81-9.73,7.47-15.36,1.25-4.26,2.71-9.71,8.3-8.06,3.33,1,4.69,4.39,7.39,6.17,9.29,6.14,19-2.6,24.38-9.56,2.21-2.86,3.94-6.7,8-6.72,8.19-.06,11.6,8.27,15,14.22,4.21,7.35,5.15,15.73,5.36,24.06s.87,18.77,7.91,24.37c6.17,4.9,18.62,6.55,24.05-.32,6.77-8.56,3.19-23.3,3.29-33.35,0-4-.86-8.89,3.73-10.87,4-1.73,7.78,1.2,9.56,4.72,1.37,2.69,1.57,6.12,5,7,11.32,2.84,11.52-32.77,25.41-22.94,4.88,3.45,7.29,5.34,13,1.75,4.65-2.94,8.56-7.91,14.23-9,15.74-2.91,8.66,27.17,22.86,28,6.64.41,12.13-10.44,17.25-3.37,3.93,5.43,5.76,13.49,11.47,17.42a20.34,20.34,0,0,0,17.65,2c10.75-3.88,8.71-16,6.73-24.68-1.05-4.58-2.8-9.9-2.32-14.63.83-8.21,5.17-2.57,9.06-.7,5.67,2.72,7.6-2.53,9.58-6.58,2.44-5,4.62-1,4.08,3.24-.69,5.38-4.13,9.88-4.48,15.59C842.07,260.35,841.51,267.51,846,268.26Z" transform="translate(-369.08 -40.05)"/></g><path class="cls-6" d="M854.64,186.39c4.07,9.83.75,23.7-.43,33.88-1,8.65-3.33,17.87-.71,26.39,1,3.16,4.35,8.2,2.13,11.57-1.91,2.9-5.93,2.58-8.2.23-5.18-5.37,5.28-33.42-3.31-33.57-4.4-.07-3.27,5-3.63,7.67s-.82,7.6-4.68,7.71-3.53-4.42-4.67-7.17c-4.87-11.75-7.9,1.91-8,7.73-.26,9.35,3.52,20.77-.14,29.62-3.5,8.44-11.07,12-19.1,7.12a19.18,19.18,0,0,1-7.83-9.51c-1.29-3.16-1.94-9.65-5.23-11.59-4.24-2.5-8.24,1.51-12.08,3-16.53,6.6-12.42-11.13-13.84-20.62-1.38-9.23-9.2-11.61-17-7.94-8.32,3.92-12.76,16-23.76,13.38-3.67-.85-7.3-5.14-11.49-4-8.21,2.3-3,17.69-13.44,17.83-7.92.11-11.51-23.23-19.51-9.34-3.28,5.69-1.15,13.22-.72,19.31.55,7.74.95,17.32-2.26,24.55-6.26,14.12-22.12,9.13-28.92-1.47-8.5-13.25,2.76-32.45-8-45.65-5.05-6.18-11-14.15-20.05-12-6.48,1.51-10.16,7.78-16,10.49-7.75,3.58-12.59-1.43-19.94-.95-5,.32-8.11,5.82-9,9.92-1.66,7.49-4.4,23.48-16.57,15.46-9.15-6-1.95-23.11-11.94-28.28-4.46-2.31-10.27,1.78-14.52-1.86-3.94-3.38-2-10.68-6.53-13.79-9.07-6.26-8.87,13.17-9,17.62s.62,28.78-9.16,18.55c-3.58-3.75-1.11-8.94.25-13,6.11-18.37-6.22-49,4.11-63.83,4.33-6.22,22.17-9.86,29.22-12.42a174.51,174.51,0,0,1,35.78-9.21A745.12,745.12,0,0,1,679,154.76c21.4,0,42.5.58,63.79,2.94,29,3.23,56.78,5.66,84.35,15.51,6.66,2.38,16.41,3.36,21.67,8.43C850.69,183.49,853.37,183.32,854.64,186.39Z" transform="translate(-369.08 -40.05)"/><path class="cls-29" d="M851.4,253.62c-1.54-.91-3-2-3.4-3.38-1-3.27.1-6.67.62-9.87.88-5.38,3.6-15.45-1.37-19.5-9-7.36-6.85,13.73-11.62,11.22-4.11-2.16-7.18-16.21-13-6.14-4,7-3.15,16.24-2.4,23.86.57,5.86.51,16.06-6.2,18.71-3.59,1.41-9.2.48-12.21-1.84-5.88-4.52-5-12.38-7.45-18.55-3.79-9.42-9.27,6.11-14.89,7.47-8.32,2-8.66-7.28-10.3-12.7-2.25-7.43-9.05-24.47-19.6-21.28-10.37,3.15-14.91,25.37-28,16.29-6.3-4.35-11.53-4.1-15.07,3.32-1.85,3.86-5.95,16-12.08,9.64-4.07-4.24-.94-13.52-5.67-17-13.62-10-11.85,32.34-12,35.7-.24,5.91-.82,14.91-7.24,17.56-9.37,3.86-16.94-4.93-19-12.87a337.51,337.51,0,0,1-6.86-35.87,17.72,17.72,0,0,0-7-12.41c-7.13-5.49-16-.58-21.13,5.16-5,5.56-9.59,10.86-17.65,11-5.92.12-9.92-4.82-12.27-9.48-1.37-2.71-2.12-5.7-5.41-3.82-2.43,1.4-3.8,5.72-4.68,8.17-2,5.71-2.32,13.35-5.63,18.49-4.72,7.32-12.81,6.08-15.11-2.25-1.21-4.38-.37-9.22-1.68-13.49-3.09-10.07-14,.78-19.1-4.62-2.82-3-2.74-7.85-4.12-11.52s-4.31-8-8.86-6.91c-9.1,2.25-4.65,26.81-6.56,33.16-.64,2.12-1.53,6.45-3,8.16-.76.91-4.72,2.94-5.69,1.08a7,7,0,0,0,1.12,1.59c9.78,10.22,9-14,9.16-18.55s-.08-23.88,9-17.62c4.5,3.11,2.59,10.41,6.53,13.79,4.25,3.64,10.06-.45,14.52,1.86,10,5.17,2.79,22.26,11.94,28.28,12.17,8,14.91-8,16.57-15.46.91-4.1,4.06-9.6,9-9.92,7.35-.48,12.19,4.53,19.94.95,5.85-2.71,9.53-9,16-10.49,9.06-2.11,15,5.86,20.05,12,10.8,13.2-.46,32.4,8,45.65,6.8,10.6,22.66,15.59,28.92,1.47,3.21-7.23,2.81-16.81,2.26-24.55-.43-6.09-2.56-13.62.72-19.31,8-13.89,11.59,9.45,19.51,9.34,10.46-.14,5.23-15.53,13.44-17.83,4.19-1.17,7.82,3.12,11.49,4,11,2.57,15.44-9.46,23.76-13.38,7.8-3.67,15.62-1.29,17,7.94,1.42,9.49-2.69,27.22,13.84,20.62,3.84-1.53,7.84-5.54,12.08-3.05,3.29,2,3.94,8.44,5.23,11.6a19.18,19.18,0,0,0,7.83,9.51c8,4.91,15.6,1.32,19.1-7.12,3.66-8.85-.12-20.27.14-29.62.15-5.82,3.18-19.48,8-7.73,1.14,2.75.7,7.28,4.67,7.17s4.33-5.08,4.68-7.71-.77-7.74,3.63-7.67c8.59.15-1.84,26.24,2.7,33.32,1.63,2.55,8.28,3.66,9.27-.38C856.23,256.09,853.7,255,851.4,253.62Z" transform="translate(-369.08 -40.05)"/><path class="cls-8" d="M855.16,188.93c0,18.13-80.79,29.79-176.25,29.79s-169.45-11.66-169.45-29.79,74-35.84,169.45-35.84S855.16,170.81,855.16,188.93Z" transform="translate(-369.08 -40.05)"/><g class="cls-9"><path class="cls-10" d="M705.47,209.6c-92.62-.23-164.37-10.94-164.32-27.29,0-7.52,15.24-14.92,40.66-20.71-41.66,6.06-68.26,15.8-68.29,25.74,0,16.36,71.7,27.07,164.32,27.3,59.83.15,113.69-4.11,144.37-11.55C791.36,207.37,750.08,209.72,705.47,209.6Z" transform="translate(-369.08 -40.05)"/></g><path class="cls-30" d="M667.42,287.79c8.87-1.67,8.46-16.17,8.23-21.52-1.1-25.83-4.64-11.76-12.33-13.26-7.31-1.42-14.44-12.65-18.08-18.08C649.29,247.09,646.24,291.78,667.42,287.79Z" transform="translate(-369.08 -40.05)"/><path class="cls-31" d="M501.89,403.48c-11.37-2.81-10.84-20.31-10.55-26.77,1.41-31.15,6-13.82,15.81-14.95,9.37-1.08,18.51-14,23.18-20.28C525.13,355.83,529.06,410.17,501.89,403.48Z" transform="translate(-369.08 -40.05)"/><path class="cls-32" d="M545.39,386.91c-7.58-1.52-13.45-16.87-19.5-21.31-16.6-12.17,15.1-6.28,21.55-7.45,6.13-1.1,23-10.2,25.79-14.52C556.1,361.17,562,390.23,545.39,386.91Z" transform="translate(-369.08 -40.05)"/><path class="cls-33" d="M845.65,392.21c8.06-2,7.68-14.4,7.48-19-1-22.09-4.22-9.8-11.21-10.6-6.64-.77-13.13-9.95-16.44-14.38C829.17,358.42,826.38,397,845.65,392.21Z" transform="translate(-369.08 -40.05)"/><path class="cls-34" d="M699.06,431c-12.93-2.24-12.33-21.7-12-28.89,1.61-34.67,6.77-15.78,18-17.79,10.67-1.92,21.07-17,26.38-24.27C725.51,376.33,730,436.31,699.06,431Z" transform="translate(-369.08 -40.05)"/><path class="cls-35" d="M761.35,344.76c13.11,7.07,16,21.05,27.16,23,14.78,2.56,21.46-9.83,25.07-25.23Z" transform="translate(-369.08 -40.05)"/><path class="cls-36" d="M812.42,267.28c7.71-1.29,7.21-10.09,7-14.22-1-19.93-4-9.08-10.72-10.23-6.35-1.1-12.56-9.76-15.72-14C796.51,238.26,794,270.35,812.42,267.28Z" transform="translate(-369.08 -40.05)"/><path class="cls-37" d="M561.51,257.87c-5.82-1-5.47-8.23-5.34-11.61.66-16.3,3-7.43,8.06-8.4,4.79-.91,9.44-8,11.82-11.45C573.42,234.09,575.43,260.32,561.51,257.87Z" transform="translate(-369.08 -40.05)"/><path class="cls-38" d="M775.81,254.31c-5.95-1-3.37-14.46-8.07-21.86-8.26-13,6.9,2.11,12.06,1.22,4.9-.84,9.69-7.52,12.13-10.75C789.21,230.15,790,256.68,775.81,254.31Z" transform="translate(-369.08 -40.05)"/><path class="cls-6" d="M747,170.78a21.2,21.2,0,0,1-8.09,1.79c-19,.53-36.5,2.3-55.58-.9-8.72-1.47-17.37-3.26-26-5.22h-25c-3.46,3.83-10.91,0-10.33,5.56-1,16.1,50.35,27.37,66.73,25.05,17.57-2.49,38.09,4.75,47.49,6.22a132.46,132.46,0,0,0-6.41-15c8.66-.28,24.53-5.68,25.11-6.59C758.21,174,753.39,172,747,170.78Z" transform="translate(-369.08 -40.05)"/><path class="cls-20" d="M635.39,148.38c11.28-6.82,4.6-17.12,10.18-19.26,16.68,4.31,73-22.46,81.75-12.64,0,0,21.82,25.51-22.36,48.05C688,146.1,623.24,158.07,635.39,148.38Z" transform="translate(-369.08 -40.05)"/><path class="cls-19" d="M732,176c-52.33,27.27-53.06-20.78-41.41-30.77,19.81-2,29.64-9.77,54.44-8.94,4,.13,8.41-.5,9.64-2.87C740,151.48,745.77,167.52,732,176Z" transform="translate(-369.08 -40.05)"/><path class="cls-19" d="M660.12,95.12c11.27-6.82,10.28-10.48,22.52-7.33,16.69,4.31,28.28-3.27,38.11,10.52,0,0-11.18,20.24-22.73,23.91C681.06,103.79,648,104.81,660.12,95.12Z" transform="translate(-369.08 -40.05)"/><path class="cls-19" d="M645.67,128.36c3-7.26-3.1-21.81-1.86-22.54,4.36-2.54,9.93-8.64,31.9,8.17,22.83,17.47,58.19,2.89,48.75-10.86,8.15,9.49-6.4,22.49-8.53,24.3C681,157,643.44,133.66,645.67,128.36Z" transform="translate(-369.08 -40.05)"/><path class="cls-17" d="M645.19,129.11c-15.27-.51-23.52,6.9-27.77,16s25.18,27.35,59.07,26.17,49,24.4,56.22,28.1c-5.21-15.93-22.06-46.17-36.77-50.89S644.24,145.22,645.19,129.11Z" transform="translate(-369.08 -40.05)"/><path class="cls-18" d="M722.62,184.9c-2.88-3.6-25.74-21.6-57.36-23.27-29.93-1.57-63.37-23.78-25-31.34-10.58,9.3,2.51,20,20.56,21.63C681.26,153.75,698.29,145.09,722.62,184.9Z" transform="translate(-369.08 -40.05)"/><path class="cls-19" d="M624.19,168.18c-.77-7.33-6.36-5.59-7-19.76,2.55,9.57,29.84,21.61,60,20.56,33.88-1.18,48.36,26.68,55.54,30.38-9.39-1.47-26.64-8.77-44.22-6.28C672.11,195.4,623.24,184.28,624.19,168.18Z" transform="translate(-369.08 -40.05)"/><path class="cls-17" d="M727.32,116.48c-1.93,11.84-26.77,26-36.71,28.74,24.64,5.05,29.64-9.77,54.44-8.94C758.3,136.72,759.37,117.54,727.32,116.48Z" transform="translate(-369.08 -40.05)"/><path class="cls-18" d="M727.32,116.48c19,3.67,23.89,9.68,18.1,14-4.46,3.36-18.24,5.05-18.32,8.22,0,0,12.85-1.87,20.14-1.63C760.49,137.56,759.37,117.54,727.32,116.48Z" transform="translate(-369.08 -40.05)"/><path class="cls-19" d="M716.57,167.76c2.87,4.36,9.74,16,9.85,16.75,8.67-.28,24.87-5.1,25.45-6,4.27-10.11,11.42-12.67,12.76-24.74C765.81,143.08,738.78,170.14,716.57,167.76Z" transform="translate(-369.08 -40.05)"/><path class="cls-17" d="M716.8,168.1c18.23-4.84,25.27-10.88,27.88-16.62a22.11,22.11,0,0,1,4.14-9.14c6.91.46,17.43.75,15.81,11.42S730.63,167.17,716.8,168.1Z" transform="translate(-369.08 -40.05)"/><path class="cls-20" d="M716.8,168.1c18.23-4.84,25.27-10.88,27.88-16.62a22.11,22.11,0,0,1,4.14-9.14l1.24-2.26c-11.79,2.47-5.25,19.34-36.88,23Z" transform="translate(-369.08 -40.05)"/><path class="cls-20" d="M624.19,168.18c-.39-3.66-2-5.06-3.55-7.31,34.09,14.86,4.46,21.65,66.08,27.45,33.34,3.13,38.81,7.34,46,11-9.39-1.47-26.64-8.77-44.22-6.28C672.11,195.4,623.24,184.28,624.19,168.18Z" transform="translate(-369.08 -40.05)"/><path class="cls-8" d="M687.61,74.23c-1.46-9.39-6.8-28.81,17.7-34.18,2,.28.53,2.42.53,2.42s-24.24,1-17.28,32C687.62,75,687.61,74.23,687.61,74.23Z" transform="translate(-369.08 -40.05)"/><path class="cls-39" d="M705.83,40.5a1.77,1.77,0,0,1,.44.11,1.11,1.11,0,0,0-1-.56c-24.5,5.37-19.16,24.79-17.7,34.18a.41.41,0,0,0,.51.39C686.65,65.22,681.37,45.86,705.83,40.5Z" transform="translate(-369.08 -40.05)"/><path class="cls-40" d="M708.86,85.26c1.56,10.15-5.3,15.72-15.45,17.28-10.32,4.42-19.74-1.49-21.3-11.64s6-15.48,16.2-17C698.84,66.22,707.31,75.11,708.86,85.26Z" transform="translate(-369.08 -40.05)"/><path class="cls-41" d="M679.55,89.7c3.44-.42,6-2,9-3.37,2.19-1,5.11-3.51,7.36-1.37,1.24,1.19,2.9,4.17,4.58,1.68.66-1,.61-2.13,1.62-3,1.19-1,1.64-.43,2.88-.35.78,0,1.06-.1,1.33-.9,1-2.91-1-6.51-3-8.4a10.84,10.84,0,0,0-8.16-3,13.34,13.34,0,0,0-6.88,2.82c-.6.43-2.21.4-2.95.58a29.11,29.11,0,0,0-2.86.83,22.27,22.27,0,0,0-5,2.54c-2.56,1.77-5.63,5-5,8.43C673.17,89.52,676.37,90.09,679.55,89.7Z" transform="translate(-369.08 -40.05)"/><path class="cls-17" d="M659.14,95.54c-4.56,2.49-14.56,5.89-15.33,10.28,4.36-2.54,10-7.3,31.92,9.52,22.82,17.47,51.85,4.18,48.73-12.21-2.77-14.55-18.62-1.38-21.37-1.1C670,105.46,668.42,90.47,659.14,95.54Z" transform="translate(-369.08 -40.05)"/><path class="cls-18" d="M643.81,105.82c4.36-2.54,9.93-6.95,31.89,9.87,22.83,17.47,59.72,1,48.76-12.56,5.54,11.64-20.26,13.57-37.35,8.55C668.79,106.3,651,96.75,643.81,105.82Z" transform="translate(-369.08 -40.05)"/><path class="cls-42" d="M449.08,290.58c-8.86,7.63,12.77,8.48,18,10.64,2.32,2.4,7.75,4,19,3.31-.07-.1-.11-.19-.17-.29,4.83-3.55,42.3-2.72,31.09-13.25Z" transform="translate(-369.08 -40.05)"/><path class="cls-17" d="M496.21,265.89c4.5,8.17-7.1,26.81-19.69,34.94,10.14,2.11,10.29-1.78,14.62-2.24C531,294.37,510.31,273.3,496.21,265.89Z" transform="translate(-369.08 -40.05)"/><path class="cls-18" d="M453,291.88c-7-.8-3.54-9.72,3.3-13.14,9.83-4.91,38.63-12.64,19.75-22C511.33,258.1,479.72,294.93,453,291.88Z" transform="translate(-369.08 -40.05)"/><path class="cls-17" d="M453,291.88c-3-.34-4.06-2.16-3.79-4.4.36-3-.35,2.12,9.5-1.7,15.79-6.13,42.42-19.27,17.34-29C511.33,258.1,479.72,294.93,453,291.88Z" transform="translate(-369.08 -40.05)"/><path class="cls-19" d="M449.23,287.48c.39,2.48,2.58,4.6,12.19.23,20.88-9.5,42-24.66,14.65-30.94,32.51,1.22,17,39.79-7.91,42.16C464.26,295.77,446.75,298.46,449.23,287.48Z" transform="translate(-369.08 -40.05)"/><path class="cls-20" d="M466.48,294.07a22.72,22.72,0,0,1-10.05.13,20,20,0,0,1-7.24-3.15c1.82,6.81,15.57,5.12,19,7.88a24.59,24.59,0,0,0,3.55-.6A11,11,0,0,1,466.48,294.07Z" transform="translate(-369.08 -40.05)"/><path class="cls-18" d="M466.76,297.78c-5.46-6.07-1.44-11.48,5.4-14.9,9.83-4.91,33.92-19.77,3.91-26.11C521.18,261.18,473.62,295.74,466.76,297.78Z" transform="translate(-369.08 -40.05)"/><path class="cls-17" d="M486,301.62c-30,2-18.61-13.14-16.93-14,19.93-10.08,40.55-26.06,7-30.86,34.73,1.75,22.72,34.12.36,38.78C474,296.05,473.86,296.35,486,301.62Z" transform="translate(-369.08 -40.05)"/><path class="cls-19" d="M486,301.62c-21.86.66-13.32-6.6-8.67-8.91,22.39-11.11,20.37-22.43,17.21-29.14C511.52,290.51,478.33,289.87,486,301.62Z" transform="translate(-369.08 -40.05)"/><path class="cls-19" d="M496.21,265.89c41.28,25.51-14,28.1-10.73,35.75,3.93-4.38,36.62,1.17,32.13-16.56C515.49,276.72,498.5,267.06,496.21,265.89Z" transform="translate(-369.08 -40.05)"/><path class="cls-18" d="M496.11,265.92c20.32,17.27-10.63,28.2-10.73,34.73C492.72,290.82,531.18,286.08,496.11,265.92Z" transform="translate(-369.08 -40.05)"/><path class="cls-17" d="M456.32,278.74c9.83-4.91,39.91-12,19.75-22C480.72,264.52,470.68,270.79,456.32,278.74Z" transform="translate(-369.08 -40.05)"/><path class="cls-20" d="M486.23,292.49c18.12-11.56,11.48-22.21,8.32-28.92,14.85,23.58-8.71,26-9.69,34.15C484.72,298.88,481.73,295.36,486.23,292.49Z" transform="translate(-369.08 -40.05)"/><path class="cls-20" d="M487.29,298.55c-1.51,1-2.28,2-1.81,3.09,3.43-3.83,28.77-.08,32.17-10.86C511.81,297.07,495.55,297.13,487.29,298.55Z" transform="translate(-369.08 -40.05)"/><path class="cls-43" d="M843,290.58c-8.85,7.63,12.77,8.48,18,10.64,2.32,2.4,7.75,4,19,3.31-.07-.1-.1-.19-.16-.29,4.82-3.55,42.29-2.72,31.08-13.25Z" transform="translate(-369.08 -40.05)"/><path class="cls-17" d="M890.09,265.89c4.5,8.17-7.1,26.81-19.68,34.94,10.14,2.11,10.28-1.78,14.62-2.24C924.93,294.37,904.19,273.3,890.09,265.89Z" transform="translate(-369.08 -40.05)"/><path class="cls-18" d="M846.9,291.88c-7-.8-3.53-9.72,3.31-13.14,9.83-4.91,38.62-12.64,19.74-22C905.21,258.1,873.61,294.93,846.9,291.88Z" transform="translate(-369.08 -40.05)"/><path class="cls-17" d="M846.9,291.88c-3-.34-4.06-2.16-3.79-4.4.36-3-.35,2.12,9.5-1.7,15.8-6.13,42.42-19.27,17.34-29C905.21,258.1,873.61,294.93,846.9,291.88Z" transform="translate(-369.08 -40.05)"/><path class="cls-19" d="M843.11,287.48c.39,2.48,2.58,4.6,12.2.23,20.87-9.5,42-24.66,14.64-30.94,32.51,1.22,17,39.79-7.9,42.16C858.14,295.77,840.63,298.46,843.11,287.48Z" transform="translate(-369.08 -40.05)"/><path class="cls-20" d="M860.36,294.07a22.72,22.72,0,0,1-10.05.13,20,20,0,0,1-7.23-3.15c1.81,6.81,15.56,5.12,19,7.88a24.22,24.22,0,0,0,3.54-.6A11,11,0,0,1,860.36,294.07Z" transform="translate(-369.08 -40.05)"/><path class="cls-18" d="M860.64,297.78c-5.45-6.07-1.44-11.48,5.41-14.9,9.83-4.91,33.92-19.77,3.9-26.11C915.07,261.18,867.5,295.74,860.64,297.78Z" transform="translate(-369.08 -40.05)"/><path class="cls-17" d="M879.89,301.62c-30,2-18.61-13.14-16.93-14,19.94-10.08,40.55-26.06,7-30.86,34.73,1.75,22.72,34.12.36,38.78C867.89,296.05,867.75,296.35,879.89,301.62Z" transform="translate(-369.08 -40.05)"/><path class="cls-19" d="M879.89,301.62c-21.86.66-13.32-6.6-8.66-8.91,22.39-11.11,20.37-22.43,17.2-29.14C905.4,290.51,872.21,289.87,879.89,301.62Z" transform="translate(-369.08 -40.05)"/><path class="cls-19" d="M890.09,265.89c41.29,25.51-14,28.1-10.72,35.75,3.92-4.38,36.61,1.17,32.12-16.56C909.37,276.72,892.38,267.06,890.09,265.89Z" transform="translate(-369.08 -40.05)"/><path class="cls-18" d="M890,265.92c20.32,17.27-10.63,28.2-10.73,34.73C886.61,290.82,925.06,286.08,890,265.92Z" transform="translate(-369.08 -40.05)"/><path class="cls-17" d="M850.21,278.74c9.83-4.91,39.9-12,19.74-22C874.6,264.52,864.56,270.79,850.21,278.74Z" transform="translate(-369.08 -40.05)"/><path class="cls-20" d="M880.11,292.49c18.12-11.56,11.49-22.21,8.32-28.92,14.85,23.58-8.71,26-9.68,34.15C878.61,298.88,875.61,295.36,880.11,292.49Z" transform="translate(-369.08 -40.05)"/><path class="cls-20" d="M881.18,298.55c-1.51,1-2.29,2-1.81,3.09,3.42-3.83,28.76-.08,32.16-10.86C905.69,297.07,889.43,297.13,881.18,298.55Z" transform="translate(-369.08 -40.05)"/><path class="cls-44" d="M495.14,306.45c-8.85,7.64,12.77,8.49,18,10.65,2.32,2.4,7.75,4,19,3.31-.06-.1-.1-.2-.16-.29,4.82-3.55,42.29-2.72,31.08-13.25Z" transform="translate(-369.08 -40.05)"/><path class="cls-17" d="M542.27,281.76c4.5,8.18-7.1,26.82-19.68,34.95,10.14,2.11,10.28-1.78,14.62-2.24C577.11,310.25,556.37,289.18,542.27,281.76Z" transform="translate(-369.08 -40.05)"/><path class="cls-18" d="M499.08,307.75c-7-.8-3.53-9.71,3.31-13.13,9.83-4.91,38.62-12.64,19.74-22C557.39,274,525.79,310.8,499.08,307.75Z" transform="translate(-369.08 -40.05)"/><path class="cls-17" d="M499.08,307.75c-3-.34-4.06-2.15-3.79-4.39.36-3-.34,2.11,9.5-1.71,15.8-6.12,42.42-19.26,17.34-29C557.39,274,525.79,310.8,499.08,307.75Z" transform="translate(-369.08 -40.05)"/><path class="cls-19" d="M495.29,303.36c.39,2.48,2.58,4.6,12.2.22,20.87-9.49,42-24.65,14.64-30.93,32.51,1.22,17,39.79-7.9,42.16C510.32,311.64,492.81,314.33,495.29,303.36Z" transform="translate(-369.08 -40.05)"/><path class="cls-20" d="M512.54,310a22.86,22.86,0,0,1-10,.13,20,20,0,0,1-7.23-3.15c1.81,6.81,15.56,5.12,19,7.88a27.24,27.24,0,0,0,3.54-.6A11.05,11.05,0,0,1,512.54,310Z" transform="translate(-369.08 -40.05)"/><path class="cls-18" d="M512.82,313.66c-5.45-6.07-1.44-11.49,5.41-14.91,9.83-4.91,33.92-19.76,3.9-26.1C567.25,277.05,519.68,311.61,512.82,313.66Z" transform="translate(-369.08 -40.05)"/><path class="cls-17" d="M532.07,317.5c-30,2-18.61-13.14-16.93-14,19.94-10.09,40.55-26.06,7-30.86,34.73,1.75,22.72,34.12.36,38.77C520.07,311.93,519.93,312.22,532.07,317.5Z" transform="translate(-369.08 -40.05)"/><path class="cls-19" d="M532.07,317.5c-21.86.66-13.32-6.6-8.66-8.91,22.39-11.11,20.37-22.43,17.2-29.14C557.58,306.39,524.39,305.75,532.07,317.5Z" transform="translate(-369.08 -40.05)"/><path class="cls-19" d="M542.27,281.76c41.29,25.52-14,28.1-10.72,35.75,3.92-4.38,36.61,1.18,32.12-16.55C561.55,292.6,544.56,282.94,542.27,281.76Z" transform="translate(-369.08 -40.05)"/><path class="cls-18" d="M542.17,281.79c20.32,17.27-10.63,28.2-10.73,34.73C538.79,306.7,577.24,302,542.17,281.79Z" transform="translate(-369.08 -40.05)"/><path class="cls-17" d="M502.39,294.62c9.83-4.91,39.9-12,19.74-22C526.78,280.39,516.74,286.67,502.39,294.62Z" transform="translate(-369.08 -40.05)"/><path class="cls-20" d="M532.29,308.37c18.12-11.56,11.49-22.21,8.32-28.92,14.85,23.57-8.71,26-9.68,34.15C530.79,314.75,527.79,311.23,532.29,308.37Z" transform="translate(-369.08 -40.05)"/><path class="cls-20" d="M533.36,314.42c-1.51,1-2.29,2-1.81,3.09,3.42-3.82,28.76-.08,32.16-10.85C557.87,313,541.61,313,533.36,314.42Z" transform="translate(-369.08 -40.05)"/><path class="cls-45" d="M803.38,302.24c-8.86,7.64,12.77,8.49,18,10.65,2.31,2.39,7.74,4,19,3.3-.07-.1-.11-.19-.17-.29,4.83-3.54,42.3-2.72,31.09-13.25Z" transform="translate(-369.08 -40.05)"/><path class="cls-17" d="M850.51,277.55c4.5,8.17-7.1,26.81-19.68,34.94,10.14,2.11,10.28-1.78,14.61-2.23C885.34,306,864.61,285,850.51,277.55Z" transform="translate(-369.08 -40.05)"/><path class="cls-18" d="M807.32,303.54c-7-.8-3.54-9.72,3.3-13.13,9.83-4.92,38.63-12.64,19.75-22C865.63,269.76,834,306.59,807.32,303.54Z" transform="translate(-369.08 -40.05)"/><path class="cls-17" d="M807.32,303.54c-3-.34-4.06-2.16-3.79-4.4.36-3-.35,2.12,9.5-1.7,15.79-6.13,42.42-19.27,17.34-29C865.63,269.76,834,306.59,807.32,303.54Z" transform="translate(-369.08 -40.05)"/><path class="cls-19" d="M803.53,299.14c.39,2.48,2.58,4.6,12.19.23,20.88-9.5,42-24.66,14.65-30.94,32.51,1.23,17,39.79-7.91,42.16C818.56,307.43,801.05,310.12,803.53,299.14Z" transform="translate(-369.08 -40.05)"/><path class="cls-20" d="M820.78,305.74a22.87,22.87,0,0,1-10,.12,20,20,0,0,1-7.24-3.14c1.82,6.8,15.57,5.11,19,7.87A24.59,24.59,0,0,0,826,310,11,11,0,0,1,820.78,305.74Z" transform="translate(-369.08 -40.05)"/><path class="cls-18" d="M821.06,309.44c-5.45-6.07-1.44-11.48,5.4-14.9,9.83-4.91,33.93-19.77,3.91-26.11C875.48,272.84,827.92,307.4,821.06,309.44Z" transform="translate(-369.08 -40.05)"/><path class="cls-17" d="M840.31,313.28c-30,2-18.61-13.14-16.93-14,19.93-10.09,40.55-26.07,7-30.87,34.73,1.75,22.72,34.12.36,38.78C828.31,307.71,828.16,308,840.31,313.28Z" transform="translate(-369.08 -40.05)"/><path class="cls-19" d="M840.31,313.28c-21.86.66-13.32-6.59-8.67-8.9C854,293.26,852,281.94,848.85,275.23,865.82,302.18,832.63,301.53,840.31,313.28Z" transform="translate(-369.08 -40.05)"/><path class="cls-19" d="M850.51,277.55c41.29,25.51-14,28.1-10.73,35.75,3.93-4.38,36.62,1.18,32.13-16.56C869.79,288.38,852.8,278.72,850.51,277.55Z" transform="translate(-369.08 -40.05)"/><path class="cls-18" d="M850.41,277.58c20.32,17.27-10.63,28.2-10.73,34.73C847,302.49,885.48,297.75,850.41,277.58Z" transform="translate(-369.08 -40.05)"/><path class="cls-17" d="M810.62,290.41c9.83-4.92,39.91-12,19.75-22C835,276.18,825,282.45,810.62,290.41Z" transform="translate(-369.08 -40.05)"/><path class="cls-20" d="M840.53,304.15c18.12-11.56,11.48-22.21,8.32-28.92,14.85,23.58-8.71,26-9.68,34.15C839,310.54,836,307,840.53,304.15Z" transform="translate(-369.08 -40.05)"/><path class="cls-20" d="M841.59,310.21c-1.51,1-2.28,2-1.81,3.09,3.43-3.83,28.77-.08,32.17-10.86C866.11,308.74,849.85,308.79,841.59,310.21Z" transform="translate(-369.08 -40.05)"/><path class="cls-46" d="M551.47,314.19c-8.85,7.64,12.77,8.49,18,10.65,2.32,2.4,7.75,4,19,3.31-.07-.1-.11-.2-.17-.29,4.83-3.55,42.3-2.72,31.09-13.25Z" transform="translate(-369.08 -40.05)"/><path class="cls-17" d="M598.6,289.5c4.5,8.18-7.1,26.82-19.68,34.95,10.14,2.11,10.28-1.78,14.61-2.24C633.44,318,612.7,296.92,598.6,289.5Z" transform="translate(-369.08 -40.05)"/><path class="cls-18" d="M555.41,315.49c-7-.8-3.54-9.71,3.31-13.13,9.83-4.91,38.62-12.64,19.74-22C613.72,281.71,582.12,318.54,555.41,315.49Z" transform="translate(-369.08 -40.05)"/><path class="cls-17" d="M555.41,315.49c-3-.34-4.06-2.15-3.79-4.39.36-3-.35,2.11,9.5-1.71,15.8-6.12,42.42-19.26,17.34-29C613.72,281.71,582.12,318.54,555.41,315.49Z" transform="translate(-369.08 -40.05)"/><path class="cls-19" d="M551.62,311.1c.39,2.48,2.58,4.6,12.19.22,20.88-9.49,42-24.65,14.65-30.93,32.51,1.22,17,39.79-7.9,42.16C566.65,319.38,549.14,322.07,551.62,311.1Z" transform="translate(-369.08 -40.05)"/><path class="cls-20" d="M568.87,317.69a22.86,22.86,0,0,1-10,.13,20,20,0,0,1-7.24-3.15c1.82,6.81,15.57,5.12,19,7.88a27.53,27.53,0,0,0,3.54-.6A11,11,0,0,1,568.87,317.69Z" transform="translate(-369.08 -40.05)"/><path class="cls-18" d="M569.15,321.4c-5.45-6.07-1.44-11.49,5.4-14.91,9.83-4.91,33.93-19.76,3.91-26.1C623.58,284.79,576,319.35,569.15,321.4Z" transform="translate(-369.08 -40.05)"/><path class="cls-17" d="M588.4,325.24c-30,2-18.61-13.14-16.93-14,19.93-10.09,40.55-26.06,7-30.86,34.73,1.75,22.72,34.12.36,38.77C576.4,319.67,576.25,320,588.4,325.24Z" transform="translate(-369.08 -40.05)"/><path class="cls-19" d="M588.4,325.24c-21.86.66-13.32-6.6-8.66-8.91,22.39-11.11,20.37-22.43,17.2-29.14C613.91,314.13,580.72,313.49,588.4,325.24Z" transform="translate(-369.08 -40.05)"/><path class="cls-19" d="M598.6,289.5c41.29,25.52-14,28.1-10.72,35.75,3.92-4.38,36.61,1.18,32.12-16.55C617.88,300.34,600.89,290.68,598.6,289.5Z" transform="translate(-369.08 -40.05)"/><path class="cls-18" d="M598.5,289.53c20.32,17.27-10.63,28.2-10.73,34.73C595.12,314.44,633.57,309.7,598.5,289.53Z" transform="translate(-369.08 -40.05)"/><path class="cls-17" d="M558.72,302.36c9.83-4.91,39.9-12,19.74-22C583.11,288.13,573.07,294.41,558.72,302.36Z" transform="translate(-369.08 -40.05)"/><path class="cls-20" d="M588.62,316.1c18.12-11.55,11.49-22.2,8.32-28.91,14.85,23.57-8.71,26-9.68,34.15C587.12,322.49,584.12,319,588.62,316.1Z" transform="translate(-369.08 -40.05)"/><path class="cls-20" d="M589.68,322.16c-1.5,1-2.28,2-1.8,3.09,3.42-3.82,28.76-.08,32.16-10.85C614.2,320.69,597.94,320.75,589.68,322.16Z" transform="translate(-369.08 -40.05)"/><path class="cls-47" d="M747.32,312.92c-8.85,7.63,12.78,8.48,18,10.64,2.32,2.4,7.75,4.05,19,3.31l-.16-.29c4.82-3.55,42.29-2.72,31.08-13.25Z" transform="translate(-369.08 -40.05)"/><path class="cls-17" d="M794.45,288.23c4.51,8.17-7.1,26.81-19.68,34.94,10.14,2.11,10.28-1.78,14.62-2.24C829.29,316.71,808.55,295.64,794.45,288.23Z" transform="translate(-369.08 -40.05)"/><path class="cls-18" d="M751.26,314.22c-7-.8-3.53-9.72,3.31-13.14,9.83-4.91,38.62-12.64,19.74-22C809.57,280.44,778,317.27,751.26,314.22Z" transform="translate(-369.08 -40.05)"/><path class="cls-17" d="M751.26,314.22c-3-.34-4.06-2.16-3.79-4.4.37-3-.34,2.12,9.5-1.7,15.8-6.13,42.42-19.27,17.34-29C809.57,280.44,778,317.27,751.26,314.22Z" transform="translate(-369.08 -40.05)"/><path class="cls-19" d="M747.47,309.82c.39,2.48,2.59,4.6,12.2.23,20.87-9.5,42-24.66,14.64-30.94,32.51,1.22,17,39.79-7.9,42.16C762.5,318.1,745,320.8,747.47,309.82Z" transform="translate(-369.08 -40.05)"/><path class="cls-20" d="M764.72,316.41a22.72,22.72,0,0,1-10.05.13,20,20,0,0,1-7.23-3.15c1.81,6.81,15.56,5.12,19,7.88a24.59,24.59,0,0,0,3.55-.6A11,11,0,0,1,764.72,316.41Z" transform="translate(-369.08 -40.05)"/><path class="cls-18" d="M765,320.12c-5.45-6.07-1.43-11.48,5.41-14.9,9.83-4.91,33.92-19.77,3.9-26.11C819.43,283.51,771.87,318.08,765,320.12Z" transform="translate(-369.08 -40.05)"/><path class="cls-17" d="M784.25,324c-30,2-18.6-13.14-16.93-14,19.94-10.08,40.55-26.06,7-30.86,34.73,1.75,22.72,34.12.36,38.78C772.25,318.39,772.11,318.69,784.25,324Z" transform="translate(-369.08 -40.05)"/><path class="cls-19" d="M784.25,324c-21.86.66-13.32-6.6-8.66-8.91,22.39-11.11,20.37-22.43,17.2-29.14C809.76,312.85,776.57,312.21,784.25,324Z" transform="translate(-369.08 -40.05)"/><path class="cls-19" d="M794.45,288.23c41.29,25.51-14,28.09-10.72,35.75,3.92-4.38,36.61,1.17,32.12-16.56C813.73,299.06,796.74,289.4,794.45,288.23Z" transform="translate(-369.08 -40.05)"/><path class="cls-18" d="M794.35,288.26c20.32,17.27-10.63,28.2-10.73,34.73C791,313.16,829.42,308.42,794.35,288.26Z" transform="translate(-369.08 -40.05)"/><path class="cls-17" d="M754.57,301.08c9.83-4.91,39.9-12,19.74-22C779,286.86,768.93,293.13,754.57,301.08Z" transform="translate(-369.08 -40.05)"/><path class="cls-20" d="M784.47,314.83c18.13-11.56,11.49-22.21,8.32-28.92,14.85,23.58-8.7,26-9.68,34.15C783,321.22,780,317.7,784.47,314.83Z" transform="translate(-369.08 -40.05)"/><path class="cls-20" d="M785.54,320.89c-1.51,1-2.29,2-1.81,3.09,3.42-3.83,28.76-.08,32.16-10.86C810.05,319.41,793.79,319.47,785.54,320.89Z" transform="translate(-369.08 -40.05)"/><path class="cls-48" d="M615.68,317.09c-8.86,7.64,12.77,8.49,18,10.65,2.32,2.39,7.75,4,19,3.3l-.16-.29c4.83-3.54,42.3-2.72,31.09-13.25Z" transform="translate(-369.08 -40.05)"/><path class="cls-17" d="M662.81,292.4c4.5,8.18-7.11,26.81-19.69,35,10.14,2.1,10.28-1.78,14.62-2.24C697.64,320.89,676.9,299.82,662.81,292.4Z" transform="translate(-369.08 -40.05)"/><path class="cls-18" d="M619.62,318.39c-7-.8-3.54-9.71,3.3-13.13,9.83-4.91,38.63-12.64,19.74-22C677.93,284.61,646.32,321.44,619.62,318.39Z" transform="translate(-369.08 -40.05)"/><path class="cls-17" d="M619.62,318.39c-3-.34-4.07-2.16-3.8-4.4.37-3-.34,2.12,9.5-1.7,15.8-6.13,42.43-19.26,17.34-29C677.93,284.61,646.32,321.44,619.62,318.39Z" transform="translate(-369.08 -40.05)"/><path class="cls-19" d="M615.82,314c.4,2.48,2.59,4.6,12.2.23,20.88-9.5,42-24.66,14.64-30.94,32.52,1.23,17,39.79-7.9,42.17C630.86,322.28,613.35,325,615.82,314Z" transform="translate(-369.08 -40.05)"/><path class="cls-20" d="M633.07,320.59a22.86,22.86,0,0,1-10.05.12,19.89,19.89,0,0,1-7.23-3.14c1.81,6.8,15.57,5.11,19,7.88a26.06,26.06,0,0,0,3.55-.61A11,11,0,0,1,633.07,320.59Z" transform="translate(-369.08 -40.05)"/><path class="cls-18" d="M633.36,324.29c-5.46-6.07-1.44-11.48,5.4-14.9,9.83-4.91,33.92-19.76,3.9-26.11C687.78,287.69,640.22,322.25,633.36,324.29Z" transform="translate(-369.08 -40.05)"/><path class="cls-17" d="M652.6,328.14c-30,2-18.6-13.14-16.93-14,19.94-10.09,40.56-26.07,7-30.87,34.74,1.75,22.73,34.12.36,38.78C640.61,322.56,640.46,322.86,652.6,328.14Z" transform="translate(-369.08 -40.05)"/><path class="cls-19" d="M652.6,328.14c-21.86.65-13.31-6.6-8.66-8.91,22.39-11.12,20.37-22.43,17.21-29.14C678.12,317,644.92,316.38,652.6,328.14Z" transform="translate(-369.08 -40.05)"/><path class="cls-19" d="M662.81,292.4c41.28,25.51-14,28.1-10.73,35.75,3.93-4.38,36.61,1.18,32.12-16.55C682.09,303.23,665.1,293.57,662.81,292.4Z" transform="translate(-369.08 -40.05)"/><path class="cls-18" d="M662.71,292.43C683,309.7,652.08,320.63,652,327.16,659.32,317.34,697.77,312.6,662.71,292.43Z" transform="translate(-369.08 -40.05)"/><path class="cls-17" d="M622.92,305.26c9.83-4.91,39.91-12,19.74-22C647.32,291,637.28,297.31,622.92,305.26Z" transform="translate(-369.08 -40.05)"/><path class="cls-20" d="M652.82,319c18.13-11.55,11.49-22.2,8.33-28.91,14.85,23.57-8.71,26-9.69,34.14C651.32,325.39,648.33,321.87,652.82,319Z" transform="translate(-369.08 -40.05)"/><path class="cls-20" d="M653.89,325.06c-1.51,1-2.29,2-1.81,3.09,3.43-3.82,28.76-.08,32.16-10.86C678.41,323.59,662.14,323.64,653.89,325.06Z" transform="translate(-369.08 -40.05)"/><path class="cls-49" d="M681.15,317.27c-8.86,7.64,12.77,8.49,18,10.65,2.31,2.39,7.74,4,19,3.3-.07-.1-.11-.19-.17-.29,4.83-3.54,42.3-2.72,31.09-13.25Z" transform="translate(-369.08 -40.05)"/><path class="cls-17" d="M728.28,292.58c4.5,8.18-7.1,26.82-19.68,34.95,10.14,2.1,10.28-1.78,14.61-2.24C763.11,321.07,742.38,300,728.28,292.58Z" transform="translate(-369.08 -40.05)"/><path class="cls-18" d="M685.09,318.57c-7-.8-3.54-9.71,3.3-13.13,9.83-4.91,38.63-12.64,19.75-22C743.4,284.79,711.79,321.62,685.09,318.57Z" transform="translate(-369.08 -40.05)"/><path class="cls-17" d="M685.09,318.57c-3-.34-4.06-2.16-3.79-4.4.36-3-.35,2.12,9.5-1.7,15.79-6.13,42.42-19.26,17.34-29C743.4,284.79,711.79,321.62,685.09,318.57Z" transform="translate(-369.08 -40.05)"/><path class="cls-19" d="M681.3,314.17c.39,2.48,2.58,4.6,12.19.23,20.88-9.5,42-24.65,14.65-30.94,32.51,1.23,17,39.79-7.91,42.17C696.33,322.46,678.82,325.15,681.3,314.17Z" transform="translate(-369.08 -40.05)"/><path class="cls-20" d="M698.55,320.77a22.87,22.87,0,0,1-10,.12,19.86,19.86,0,0,1-7.24-3.14c1.82,6.8,15.57,5.11,19,7.88a26.06,26.06,0,0,0,3.55-.61A10.94,10.94,0,0,1,698.55,320.77Z" transform="translate(-369.08 -40.05)"/><path class="cls-18" d="M698.83,324.47c-5.45-6.07-1.44-11.48,5.4-14.9,9.83-4.91,33.93-19.76,3.91-26.11C753.25,287.87,705.69,322.43,698.83,324.47Z" transform="translate(-369.08 -40.05)"/><path class="cls-17" d="M718.08,328.32c-30,2-18.61-13.14-16.93-14,19.93-10.09,40.55-26.07,7-30.87,34.73,1.75,22.72,34.12.36,38.78C706.08,322.74,705.93,323,718.08,328.32Z" transform="translate(-369.08 -40.05)"/><path class="cls-19" d="M718.08,328.32c-21.86.65-13.32-6.6-8.67-8.91,22.39-11.11,20.37-22.43,17.21-29.14C743.59,317.21,710.4,316.56,718.08,328.32Z" transform="translate(-369.08 -40.05)"/><path class="cls-19" d="M728.28,292.58c41.29,25.52-14,28.1-10.73,35.75,3.93-4.38,36.62,1.18,32.13-16.55C747.56,303.41,730.57,293.75,728.28,292.58Z" transform="translate(-369.08 -40.05)"/><path class="cls-18" d="M728.18,292.61c20.32,17.27-10.63,28.2-10.73,34.73C724.79,317.52,763.25,312.78,728.18,292.61Z" transform="translate(-369.08 -40.05)"/><path class="cls-17" d="M688.39,305.44c9.83-4.91,39.91-12,19.75-22C712.79,291.21,702.75,297.49,688.39,305.44Z" transform="translate(-369.08 -40.05)"/><path class="cls-20" d="M718.3,319.18c18.12-11.55,11.48-22.2,8.32-28.91,14.85,23.57-8.71,26-9.68,34.14C716.8,325.57,713.8,322.05,718.3,319.18Z" transform="translate(-369.08 -40.05)"/><path class="cls-20" d="M719.36,325.24c-1.51,1-2.28,2-1.81,3.09,3.43-3.82,28.77-.08,32.17-10.86C743.88,323.77,727.62,323.82,719.36,325.24Z" transform="translate(-369.08 -40.05)"/><path class="cls-50" d="M389.76,434.13c-8.86,7.63,12.77,8.48,18,10.65,2.31,2.39,7.74,4,19,3.3-.07-.1-.11-.19-.17-.29,4.83-3.55,42.3-2.72,31.09-13.25Z" transform="translate(-369.08 -40.05)"/><path class="cls-17" d="M436.89,409.44c4.5,8.17-7.1,26.81-19.68,34.94,10.14,2.11,10.28-1.78,14.61-2.24C471.72,437.92,451,416.86,436.89,409.44Z" transform="translate(-369.08 -40.05)"/><path class="cls-18" d="M393.7,435.43c-7-.8-3.54-9.72,3.3-13.14,9.83-4.91,38.63-12.64,19.75-22C452,401.65,420.41,438.48,393.7,435.43Z" transform="translate(-369.08 -40.05)"/><path class="cls-17" d="M393.7,435.43c-3-.34-4.06-2.16-3.79-4.4.36-3-.35,2.12,9.5-1.7,15.79-6.13,42.42-19.27,17.34-29C452,401.65,420.41,438.48,393.7,435.43Z" transform="translate(-369.08 -40.05)"/><path class="cls-19" d="M389.91,431c.39,2.48,2.58,4.6,12.19.23,20.88-9.5,42-24.66,14.65-30.94,32.51,1.23,17,39.79-7.91,42.16C404.94,439.32,387.43,442,389.91,431Z" transform="translate(-369.08 -40.05)"/><path class="cls-20" d="M407.16,437.62a22.72,22.72,0,0,1-10.05.13,19.88,19.88,0,0,1-7.24-3.15c1.82,6.81,15.57,5.12,19,7.88a24.59,24.59,0,0,0,3.55-.6A11,11,0,0,1,407.16,437.62Z" transform="translate(-369.08 -40.05)"/><path class="cls-18" d="M407.44,441.33c-5.45-6.07-1.44-11.48,5.4-14.9,9.83-4.91,33.93-19.77,3.91-26.11C461.86,404.73,414.3,439.29,407.44,441.33Z" transform="translate(-369.08 -40.05)"/><path class="cls-17" d="M426.69,445.17c-30,2-18.61-13.14-16.93-14,19.93-10.08,40.55-26.06,7-30.86,34.73,1.75,22.72,34.12.36,38.78C414.69,439.6,414.54,439.9,426.69,445.17Z" transform="translate(-369.08 -40.05)"/><path class="cls-19" d="M426.69,445.17c-21.86.66-13.32-6.6-8.67-8.91,22.39-11.11,20.37-22.43,17.21-29.14C452.2,434.06,419,433.42,426.69,445.17Z" transform="translate(-369.08 -40.05)"/><path class="cls-19" d="M436.89,409.44c41.29,25.51-14,28.1-10.73,35.75,3.93-4.38,36.62,1.18,32.13-16.56C456.17,420.27,439.18,410.61,436.89,409.44Z" transform="translate(-369.08 -40.05)"/><path class="cls-18" d="M436.79,409.47c20.32,17.27-10.63,28.2-10.73,34.73C433.4,434.38,471.86,429.63,436.79,409.47Z" transform="translate(-369.08 -40.05)"/><path class="cls-17" d="M397,422.29c9.83-4.91,39.91-12,19.75-22C421.4,408.07,411.36,414.34,397,422.29Z" transform="translate(-369.08 -40.05)"/><path class="cls-20" d="M426.91,436c18.12-11.56,11.48-22.21,8.32-28.92,14.85,23.58-8.71,26-9.68,34.15C425.41,442.43,422.41,438.91,426.91,436Z" transform="translate(-369.08 -40.05)"/><path class="cls-20" d="M428,442.1c-1.51,1-2.28,2-1.81,3.09,3.43-3.83,28.77-.08,32.17-10.86C452.49,440.62,436.23,440.68,428,442.1Z" transform="translate(-369.08 -40.05)"/><path class="cls-51" d="M911.6,435.46c-8.86,7.64,12.77,8.49,18,10.65,2.32,2.39,7.75,4,19,3.3-.07-.1-.11-.19-.17-.29,4.83-3.54,42.3-2.72,31.09-13.25Z" transform="translate(-369.08 -40.05)"/><path class="cls-17" d="M958.73,410.77c4.5,8.18-7.1,26.81-19.69,35,10.14,2.1,10.28-1.78,14.62-2.24C993.56,439.26,972.83,418.19,958.73,410.77Z" transform="translate(-369.08 -40.05)"/><path class="cls-18" d="M915.54,436.76c-7-.8-3.54-9.71,3.3-13.13,9.83-4.91,38.63-12.64,19.75-22C973.85,403,942.24,439.81,915.54,436.76Z" transform="translate(-369.08 -40.05)"/><path class="cls-17" d="M915.54,436.76c-3-.34-4.07-2.16-3.79-4.4.36-3-.35,2.12,9.5-1.7,15.79-6.13,42.42-19.26,17.34-29C973.85,403,942.24,439.81,915.54,436.76Z" transform="translate(-369.08 -40.05)"/><path class="cls-19" d="M911.75,432.36c.39,2.48,2.58,4.6,12.19.23,20.88-9.5,42-24.66,14.65-30.94,32.51,1.23,17,39.79-7.91,42.17C926.78,440.65,909.27,443.34,911.75,432.36Z" transform="translate(-369.08 -40.05)"/><path class="cls-20" d="M929,439a22.87,22.87,0,0,1-10,.12,19.86,19.86,0,0,1-7.24-3.14c1.82,6.8,15.57,5.11,19,7.88a26.06,26.06,0,0,0,3.55-.61A10.94,10.94,0,0,1,929,439Z" transform="translate(-369.08 -40.05)"/><path class="cls-18" d="M929.28,442.66c-5.46-6.07-1.44-11.48,5.4-14.9,9.83-4.91,33.92-19.76,3.91-26.11C983.7,406.06,936.14,440.62,929.28,442.66Z" transform="translate(-369.08 -40.05)"/><path class="cls-17" d="M948.53,446.51c-30,2-18.61-13.15-16.93-14,19.93-10.09,40.55-26.07,7-30.87,34.73,1.75,22.72,34.12.36,38.78C936.53,440.93,936.38,441.23,948.53,446.51Z" transform="translate(-369.08 -40.05)"/><path class="cls-19" d="M948.53,446.51c-21.86.65-13.32-6.6-8.67-8.91,22.39-11.11,20.37-22.43,17.21-29.14C974,435.4,940.85,434.75,948.53,446.51Z" transform="translate(-369.08 -40.05)"/><path class="cls-19" d="M958.73,410.77c41.28,25.52-14,28.1-10.73,35.75,3.93-4.38,36.62,1.18,32.13-16.55C978,421.6,961,411.94,958.73,410.77Z" transform="translate(-369.08 -40.05)"/><path class="cls-18" d="M958.63,410.8C979,428.07,948,439,947.9,445.53,955.24,435.71,993.7,431,958.63,410.8Z" transform="translate(-369.08 -40.05)"/><path class="cls-17" d="M918.84,423.63c9.83-4.91,39.91-12,19.75-22C943.24,409.4,933.2,415.68,918.84,423.63Z" transform="translate(-369.08 -40.05)"/><path class="cls-20" d="M948.75,437.37c18.12-11.55,11.48-22.2,8.32-28.91,14.85,23.57-8.71,26-9.69,34.14C947.24,443.76,944.25,440.24,948.75,437.37Z" transform="translate(-369.08 -40.05)"/><path class="cls-20" d="M949.81,443.43c-1.51,1-2.28,2-1.81,3.09,3.43-3.82,28.77-.08,32.17-10.86C974.33,442,958.07,442,949.81,443.43Z" transform="translate(-369.08 -40.05)"/><path class="cls-52" d="M877.89,453.23c-8.86,7.64,12.77,8.49,18,10.65,2.32,2.4,7.75,4.05,19,3.31l-.16-.29c4.83-3.55,42.3-2.72,31.09-13.25Z" transform="translate(-369.08 -40.05)"/><path class="cls-17" d="M925,428.54c4.5,8.18-7.11,26.82-19.69,34.95,10.14,2.11,10.28-1.78,14.62-2.24C959.85,457,939.11,436,925,428.54Z" transform="translate(-369.08 -40.05)"/><path class="cls-18" d="M881.83,454.53c-7-.79-3.54-9.71,3.3-13.13,9.83-4.91,38.63-12.64,19.74-22C940.13,420.76,908.53,457.58,881.83,454.53Z" transform="translate(-369.08 -40.05)"/><path class="cls-17" d="M881.83,454.53c-3-.34-4.07-2.15-3.8-4.39.37-3-.34,2.11,9.5-1.7,15.8-6.13,42.43-19.27,17.34-29C940.13,420.76,908.53,457.58,881.83,454.53Z" transform="translate(-369.08 -40.05)"/><path class="cls-19" d="M878,450.14c.4,2.48,2.59,4.6,12.2.23,20.88-9.5,42-24.66,14.64-30.94,32.52,1.22,17,39.79-7.9,42.16C893.07,458.42,875.56,461.11,878,450.14Z" transform="translate(-369.08 -40.05)"/><path class="cls-20" d="M895.28,456.73a22.86,22.86,0,0,1-10,.13,20.08,20.08,0,0,1-7.23-3.15c1.81,6.81,15.57,5.12,19,7.88a24.59,24.59,0,0,0,3.55-.6A11,11,0,0,1,895.28,456.73Z" transform="translate(-369.08 -40.05)"/><path class="cls-18" d="M895.57,460.44c-5.46-6.07-1.44-11.49,5.4-14.9,9.83-4.92,33.92-19.77,3.9-26.11C950,423.83,902.43,458.4,895.57,460.44Z" transform="translate(-369.08 -40.05)"/><path class="cls-17" d="M914.81,464.28c-30,2-18.6-13.14-16.93-14,19.94-10.08,40.56-26.06,7-30.86,34.74,1.75,22.72,34.12.36,38.77C902.82,458.71,902.67,459,914.81,464.28Z" transform="translate(-369.08 -40.05)"/><path class="cls-19" d="M914.81,464.28c-21.86.66-13.31-6.6-8.66-8.91,22.39-11.11,20.37-22.43,17.21-29.14C940.33,453.17,907.13,452.53,914.81,464.28Z" transform="translate(-369.08 -40.05)"/><path class="cls-19" d="M925,428.54c41.28,25.52-14,28.1-10.73,35.76,3.93-4.39,36.61,1.17,32.12-16.56C944.3,439.38,927.31,429.72,925,428.54Z" transform="translate(-369.08 -40.05)"/><path class="cls-18" d="M924.91,428.57c20.32,17.27-10.62,28.2-10.73,34.74C921.53,453.48,960,448.74,924.91,428.57Z" transform="translate(-369.08 -40.05)"/><path class="cls-17" d="M885.13,441.4c9.83-4.91,39.91-12,19.74-22C909.53,427.18,899.49,433.45,885.13,441.4Z" transform="translate(-369.08 -40.05)"/><path class="cls-20" d="M915,455.15c18.13-11.56,11.49-22.21,8.33-28.92,14.85,23.57-8.71,26-9.69,34.15C913.53,461.54,910.54,458,915,455.15Z" transform="translate(-369.08 -40.05)"/><path class="cls-20" d="M916.1,461.21c-1.51,1-2.29,2-1.81,3.09,3.43-3.83,28.76-.08,32.16-10.86C940.62,459.73,924.35,459.79,916.1,461.21Z" transform="translate(-369.08 -40.05)"/><path class="cls-53" d="M424.32,455.91c-8.85,7.63,12.77,8.48,18,10.65,2.32,2.39,7.74,4,19,3.3-.07-.1-.11-.19-.17-.29,4.83-3.55,42.3-2.72,31.09-13.25Z" transform="translate(-369.08 -40.05)"/><path class="cls-17" d="M471.45,431.22c4.5,8.17-7.1,26.81-19.68,34.94,10.14,2.11,10.28-1.78,14.61-2.24C506.29,459.7,485.55,438.64,471.45,431.22Z" transform="translate(-369.08 -40.05)"/><path class="cls-18" d="M428.26,457.21c-7-.8-3.54-9.72,3.31-13.14,9.83-4.91,38.62-12.64,19.74-22C486.57,423.43,455,460.26,428.26,457.21Z" transform="translate(-369.08 -40.05)"/><path class="cls-17" d="M428.26,457.21c-3-.34-4.06-2.16-3.79-4.4.36-3-.35,2.12,9.5-1.7,15.8-6.13,42.42-19.27,17.34-29C486.57,423.43,455,460.26,428.26,457.21Z" transform="translate(-369.08 -40.05)"/><path class="cls-19" d="M424.47,452.81c.39,2.48,2.58,4.6,12.19.23,20.88-9.5,42-24.66,14.65-30.94,32.51,1.23,17,39.79-7.91,42.16C439.5,461.1,422,463.79,424.47,452.81Z" transform="translate(-369.08 -40.05)"/><path class="cls-20" d="M441.72,459.4a22.72,22.72,0,0,1-10.05.13,19.88,19.88,0,0,1-7.24-3.15c1.82,6.81,15.57,5.12,19,7.88a24.36,24.36,0,0,0,3.55-.6A11,11,0,0,1,441.72,459.4Z" transform="translate(-369.08 -40.05)"/><path class="cls-18" d="M442,463.11c-5.45-6.07-1.44-11.48,5.4-14.9,9.83-4.91,33.93-19.77,3.91-26.11C496.43,426.51,448.86,461.07,442,463.11Z" transform="translate(-369.08 -40.05)"/><path class="cls-17" d="M461.25,467c-30,2-18.61-13.14-16.93-14,19.93-10.08,40.55-26.06,7-30.86,34.73,1.75,22.72,34.12.36,38.78C449.25,461.38,449.1,461.68,461.25,467Z" transform="translate(-369.08 -40.05)"/><path class="cls-19" d="M461.25,467c-21.86.66-13.32-6.6-8.66-8.91C475,446.93,473,435.61,469.79,428.9,486.76,455.84,453.57,455.2,461.25,467Z" transform="translate(-369.08 -40.05)"/><path class="cls-19" d="M471.45,431.22c41.29,25.51-14,28.1-10.73,35.75,3.93-4.38,36.62,1.18,32.13-16.56C490.73,442.05,473.74,432.39,471.45,431.22Z" transform="translate(-369.08 -40.05)"/><path class="cls-18" d="M471.35,431.25c20.32,17.27-10.63,28.2-10.73,34.73C468,456.16,506.42,451.41,471.35,431.25Z" transform="translate(-369.08 -40.05)"/><path class="cls-17" d="M431.57,444.07c9.83-4.91,39.9-12,19.74-22C456,429.85,445.92,436.12,431.57,444.07Z" transform="translate(-369.08 -40.05)"/><path class="cls-20" d="M461.47,457.82c18.12-11.56,11.49-22.21,8.32-28.92,14.85,23.58-8.71,26-9.68,34.15C460,464.21,457,460.69,461.47,457.82Z" transform="translate(-369.08 -40.05)"/><path class="cls-20" d="M462.53,463.88c-1.51,1-2.28,2-1.81,3.09,3.43-3.83,28.77-.08,32.17-10.86C487.05,462.4,470.79,462.46,462.53,463.88Z" transform="translate(-369.08 -40.05)"/><path class="cls-54" d="M828.49,465.77c-8.86,7.64,12.77,8.49,18,10.65,2.32,2.4,7.75,4,19,3.31-.07-.1-.11-.2-.17-.3,4.83-3.54,42.3-2.72,31.09-13.25Z" transform="translate(-369.08 -40.05)"/><path class="cls-17" d="M875.62,441.08c4.5,8.18-7.1,26.82-19.69,34.95,10.14,2.1,10.28-1.78,14.62-2.24C910.45,469.57,889.72,448.5,875.62,441.08Z" transform="translate(-369.08 -40.05)"/><path class="cls-18" d="M832.43,467.07c-7-.8-3.54-9.71,3.3-13.13,9.83-4.91,38.63-12.64,19.75-22C890.74,433.29,859.13,470.12,832.43,467.07Z" transform="translate(-369.08 -40.05)"/><path class="cls-17" d="M832.43,467.07c-3-.34-4.07-2.16-3.79-4.39.36-3-.35,2.11,9.5-1.71,15.79-6.13,42.42-19.26,17.34-29C890.74,433.29,859.13,470.12,832.43,467.07Z" transform="translate(-369.08 -40.05)"/><path class="cls-19" d="M828.64,462.68c.39,2.47,2.58,4.59,12.19.22,20.88-9.49,42-24.65,14.65-30.93,32.51,1.22,17,39.78-7.91,42.16C843.67,471,826.16,473.65,828.64,462.68Z" transform="translate(-369.08 -40.05)"/><path class="cls-20" d="M845.88,469.27a22.82,22.82,0,0,1-10,.12,19.86,19.86,0,0,1-7.24-3.14c1.82,6.8,15.57,5.11,19,7.88a26.06,26.06,0,0,0,3.55-.61A11,11,0,0,1,845.88,469.27Z" transform="translate(-369.08 -40.05)"/><path class="cls-18" d="M846.17,473c-5.46-6.07-1.44-11.49,5.4-14.91,9.83-4.91,33.92-19.76,3.91-26.1C900.59,436.37,853,470.93,846.17,473Z" transform="translate(-369.08 -40.05)"/><path class="cls-17" d="M865.42,476.82c-30,2-18.61-13.14-16.93-14,19.93-10.09,40.55-26.06,7-30.86,34.73,1.75,22.72,34.12.36,38.77C853.42,471.24,853.27,471.54,865.42,476.82Z" transform="translate(-369.08 -40.05)"/><path class="cls-19" d="M865.42,476.82c-21.86.66-13.32-6.6-8.67-8.91,22.39-11.11,20.37-22.43,17.21-29.14C890.93,465.71,857.74,465.06,865.42,476.82Z" transform="translate(-369.08 -40.05)"/><path class="cls-19" d="M875.62,441.08c41.28,25.52-14,28.1-10.73,35.75,3.93-4.38,36.62,1.18,32.13-16.55C894.9,451.91,877.91,442.26,875.62,441.08Z" transform="translate(-369.08 -40.05)"/><path class="cls-18" d="M875.52,441.11c20.32,17.27-10.63,28.2-10.73,34.73C872.13,466,910.59,461.28,875.52,441.11Z" transform="translate(-369.08 -40.05)"/><path class="cls-17" d="M835.73,453.94c9.83-4.91,39.91-12,19.75-22C860.13,439.71,850.09,446,835.73,453.94Z" transform="translate(-369.08 -40.05)"/><path class="cls-20" d="M865.64,467.68c18.12-11.55,11.48-22.2,8.32-28.91,14.85,23.57-8.71,26-9.69,34.14C864.13,474.07,861.14,470.55,865.64,467.68Z" transform="translate(-369.08 -40.05)"/><path class="cls-20" d="M866.7,473.74c-1.51,1-2.28,2-1.81,3.09,3.43-3.82,28.77-.08,32.17-10.86C891.22,472.27,875,472.32,866.7,473.74Z" transform="translate(-369.08 -40.05)"/><path class="cls-55" d="M481.35,468.76c-8.86,7.64,12.77,8.49,18,10.65,2.32,2.4,7.75,4,19,3.31-.06-.1-.1-.2-.16-.3,4.83-3.54,42.3-2.72,31.09-13.25Z" transform="translate(-369.08 -40.05)"/><path class="cls-17" d="M528.48,444.07c4.5,8.18-7.11,26.82-19.69,34.95,10.14,2.1,10.28-1.78,14.62-2.24C563.31,472.56,542.57,451.49,528.48,444.07Z" transform="translate(-369.08 -40.05)"/><path class="cls-18" d="M485.28,470.06c-7-.8-3.53-9.71,3.31-13.13,9.83-4.91,38.62-12.64,19.74-22C543.59,436.28,512,473.11,485.28,470.06Z" transform="translate(-369.08 -40.05)"/><path class="cls-17" d="M485.28,470.06c-3-.34-4.06-2.16-3.79-4.39.37-3-.34,2.11,9.5-1.71,15.8-6.13,42.43-19.26,17.34-29C543.59,436.28,512,473.11,485.28,470.06Z" transform="translate(-369.08 -40.05)"/><path class="cls-19" d="M481.49,465.67c.4,2.47,2.59,4.59,12.2.22,20.88-9.49,42-24.65,14.64-30.93,32.52,1.22,17,39.78-7.9,42.16C496.53,474,479,476.64,481.49,465.67Z" transform="translate(-369.08 -40.05)"/><path class="cls-20" d="M498.74,472.26a22.87,22.87,0,0,1-10.05.12,19.89,19.89,0,0,1-7.23-3.14c1.81,6.8,15.57,5.11,19,7.88a26.06,26.06,0,0,0,3.55-.61A11,11,0,0,1,498.74,472.26Z" transform="translate(-369.08 -40.05)"/><path class="cls-18" d="M499,476c-5.46-6.07-1.44-11.49,5.4-14.91,9.83-4.91,33.92-19.76,3.9-26.1C553.45,439.36,505.89,473.92,499,476Z" transform="translate(-369.08 -40.05)"/><path class="cls-17" d="M518.27,479.81c-30,2-18.6-13.14-16.93-14,19.94-10.09,40.56-26.06,7-30.86,34.74,1.75,22.72,34.12.36,38.77C506.28,474.23,506.13,474.53,518.27,479.81Z" transform="translate(-369.08 -40.05)"/><path class="cls-19" d="M518.27,479.81c-21.86.66-13.31-6.6-8.66-8.91C532,459.79,530,448.47,526.82,441.76,543.79,468.7,510.59,468.05,518.27,479.81Z" transform="translate(-369.08 -40.05)"/><path class="cls-19" d="M528.48,444.07c41.28,25.52-14,28.1-10.73,35.75,3.93-4.38,36.61,1.18,32.12-16.55C547.76,454.9,530.76,445.25,528.48,444.07Z" transform="translate(-369.08 -40.05)"/><path class="cls-18" d="M528.37,444.1c20.32,17.27-10.62,28.2-10.73,34.73C525,469,563.44,464.27,528.37,444.1Z" transform="translate(-369.08 -40.05)"/><path class="cls-17" d="M488.59,456.93c9.83-4.91,39.91-12,19.74-22C513,442.7,503,449,488.59,456.93Z" transform="translate(-369.08 -40.05)"/><path class="cls-20" d="M518.49,470.67c18.13-11.55,11.49-22.2,8.33-28.91,14.84,23.57-8.71,26-9.69,34.14C517,477.06,514,473.54,518.49,470.67Z" transform="translate(-369.08 -40.05)"/><path class="cls-20" d="M519.56,476.73c-1.51,1-2.29,2-1.81,3.09,3.43-3.82,28.76-.08,32.16-10.85C544.08,475.26,527.81,475.31,519.56,476.73Z" transform="translate(-369.08 -40.05)"/><path class="cls-56" d="M763.05,474.56c-8.85,7.64,12.77,8.49,18,10.65,2.32,2.4,7.75,4.05,19,3.31-.07-.1-.11-.19-.17-.29,4.83-3.55,42.3-2.72,31.09-13.25Z" transform="translate(-369.08 -40.05)"/><path class="cls-17" d="M810.18,449.87c4.5,8.18-7.1,26.82-19.68,34.95,10.14,2.11,10.28-1.78,14.61-2.24C845,478.36,824.28,457.29,810.18,449.87Z" transform="translate(-369.08 -40.05)"/><path class="cls-18" d="M767,475.86c-7-.79-3.54-9.71,3.31-13.13,9.83-4.91,38.62-12.64,19.74-22C825.3,442.09,793.7,478.91,767,475.86Z" transform="translate(-369.08 -40.05)"/><path class="cls-17" d="M767,475.86c-3-.34-4.06-2.15-3.79-4.39.36-3-.35,2.11,9.5-1.7,15.8-6.13,42.42-19.27,17.34-29C825.3,442.09,793.7,478.91,767,475.86Z" transform="translate(-369.08 -40.05)"/><path class="cls-19" d="M763.2,471.47c.39,2.48,2.58,4.6,12.19.22,20.88-9.49,42-24.65,14.65-30.93,32.51,1.22,17,39.79-7.9,42.16C778.23,479.75,760.72,482.44,763.2,471.47Z" transform="translate(-369.08 -40.05)"/><path class="cls-20" d="M780.45,478.06a22.86,22.86,0,0,1-10.05.13,20,20,0,0,1-7.24-3.15c1.82,6.81,15.57,5.12,19,7.88a24.45,24.45,0,0,0,3.54-.6A11,11,0,0,1,780.45,478.06Z" transform="translate(-369.08 -40.05)"/><path class="cls-18" d="M780.73,481.77c-5.45-6.07-1.44-11.49,5.4-14.91C796,462,820.06,447.1,790,440.76,835.16,445.16,787.59,479.73,780.73,481.77Z" transform="translate(-369.08 -40.05)"/><path class="cls-17" d="M800,485.61c-30,2-18.61-13.14-16.93-14,19.94-10.09,40.55-26.06,7-30.86,34.73,1.75,22.72,34.12.36,38.77C788,480,787.83,480.33,800,485.61Z" transform="translate(-369.08 -40.05)"/><path class="cls-19" d="M800,485.61c-21.86.66-13.32-6.6-8.66-8.91,22.38-11.11,20.37-22.43,17.2-29.14C825.49,474.5,792.3,473.86,800,485.61Z" transform="translate(-369.08 -40.05)"/><path class="cls-19" d="M810.18,449.87c41.29,25.52-14,28.1-10.72,35.75,3.92-4.38,36.61,1.18,32.12-16.55C829.46,460.71,812.47,451.05,810.18,449.87Z" transform="translate(-369.08 -40.05)"/><path class="cls-18" d="M810.08,449.9c20.32,17.27-10.63,28.2-10.73,34.73C806.7,474.81,845.15,470.07,810.08,449.9Z" transform="translate(-369.08 -40.05)"/><path class="cls-17" d="M770.3,462.73c9.83-4.91,39.9-12,19.74-22C794.69,448.5,784.65,454.78,770.3,462.73Z" transform="translate(-369.08 -40.05)"/><path class="cls-20" d="M800.2,476.48c18.12-11.56,11.49-22.21,8.32-28.92,14.85,23.57-8.71,26-9.68,34.15C798.7,482.87,795.7,479.34,800.2,476.48Z" transform="translate(-369.08 -40.05)"/><path class="cls-20" d="M801.26,482.53c-1.51,1-2.28,2-1.8,3.09,3.42-3.82,28.76-.07,32.16-10.85C825.78,481.06,809.52,481.12,801.26,482.53Z" transform="translate(-369.08 -40.05)"/><path class="cls-57" d="M546.12,475.73c-8.85,7.64,12.78,8.49,18,10.65,2.32,2.4,7.75,4.05,19,3.31l-.16-.29c4.82-3.55,42.29-2.72,31.09-13.25Z" transform="translate(-369.08 -40.05)"/><path class="cls-17" d="M593.25,451c4.51,8.18-7.1,26.82-19.68,34.95,10.14,2.11,10.28-1.78,14.62-2.24C628.09,479.53,607.35,458.46,593.25,451Z" transform="translate(-369.08 -40.05)"/><path class="cls-18" d="M550.06,477c-7-.79-3.53-9.71,3.31-13.13,9.83-4.91,38.62-12.64,19.74-22C608.37,443.26,576.77,480.08,550.06,477Z" transform="translate(-369.08 -40.05)"/><path class="cls-17" d="M550.06,477c-3-.34-4.06-2.15-3.79-4.39.37-3-.34,2.11,9.5-1.7,15.8-6.13,42.42-19.27,17.34-29C608.37,443.26,576.77,480.08,550.06,477Z" transform="translate(-369.08 -40.05)"/><path class="cls-19" d="M546.27,472.64c.39,2.48,2.59,4.6,12.2.22,20.87-9.49,42-24.65,14.64-30.93,32.51,1.22,17,39.79-7.9,42.16C561.31,480.92,543.79,483.61,546.27,472.64Z" transform="translate(-369.08 -40.05)"/><path class="cls-20" d="M563.52,479.23a22.86,22.86,0,0,1-10,.13,20,20,0,0,1-7.23-3.15c1.81,6.81,15.56,5.12,19,7.88a24.59,24.59,0,0,0,3.55-.6A11,11,0,0,1,563.52,479.23Z" transform="translate(-369.08 -40.05)"/><path class="cls-18" d="M563.8,482.94c-5.45-6.07-1.43-11.49,5.41-14.91,9.83-4.91,33.92-19.76,3.9-26.1C618.23,446.33,570.67,480.9,563.8,482.94Z" transform="translate(-369.08 -40.05)"/><path class="cls-17" d="M583.05,486.78c-30,2-18.6-13.14-16.93-14,19.94-10.09,40.56-26.06,7-30.86,34.73,1.75,22.72,34.12.36,38.77C571.05,481.21,570.91,481.51,583.05,486.78Z" transform="translate(-369.08 -40.05)"/><path class="cls-19" d="M583.05,486.78c-21.86.66-13.31-6.6-8.66-8.91,22.39-11.11,20.37-22.43,17.2-29.14C608.56,475.67,575.37,475,583.05,486.78Z" transform="translate(-369.08 -40.05)"/><path class="cls-19" d="M593.25,451c41.29,25.52-14,28.1-10.72,35.75,3.92-4.38,36.61,1.18,32.12-16.55C612.53,461.88,595.54,452.22,593.25,451Z" transform="translate(-369.08 -40.05)"/><path class="cls-18" d="M593.15,451.07c20.32,17.27-10.62,28.2-10.73,34.74C589.77,476,628.22,471.24,593.15,451.07Z" transform="translate(-369.08 -40.05)"/><path class="cls-17" d="M553.37,463.9c9.83-4.91,39.9-12,19.74-22C577.76,449.68,567.73,456,553.37,463.9Z" transform="translate(-369.08 -40.05)"/><path class="cls-20" d="M583.27,477.65c18.13-11.56,11.49-22.21,8.32-28.92,14.85,23.57-8.7,26-9.68,34.15C581.77,484,578.77,480.51,583.27,477.65Z" transform="translate(-369.08 -40.05)"/><path class="cls-20" d="M584.34,483.71c-1.51,1-2.29,2-1.81,3.08,3.43-3.82,28.76-.07,32.16-10.85C608.85,482.23,592.59,482.29,584.34,483.71Z" transform="translate(-369.08 -40.05)"/><path class="cls-58" d="M690.31,477.4c-8.86,7.64,12.77,8.49,18,10.65,2.31,2.4,7.74,4,19,3.31-.07-.1-.11-.2-.17-.3,4.83-3.54,42.3-2.72,31.09-13.25Z" transform="translate(-369.08 -40.05)"/><path class="cls-17" d="M737.44,452.71c4.5,8.18-7.1,26.82-19.68,35,10.14,2.11,10.28-1.78,14.61-2.24C772.27,481.2,751.54,460.13,737.44,452.71Z" transform="translate(-369.08 -40.05)"/><path class="cls-18" d="M694.25,478.7c-7-.8-3.54-9.71,3.3-13.13,9.83-4.91,38.63-12.64,19.75-22C752.56,444.92,721,481.75,694.25,478.7Z" transform="translate(-369.08 -40.05)"/><path class="cls-17" d="M694.25,478.7c-3-.34-4.06-2.16-3.79-4.39.36-3-.35,2.11,9.5-1.71,15.79-6.13,42.42-19.26,17.34-29C752.56,444.92,721,481.75,694.25,478.7Z" transform="translate(-369.08 -40.05)"/><path class="cls-19" d="M690.46,474.31c.39,2.48,2.58,4.6,12.19.22,20.88-9.49,42-24.65,14.65-30.93,32.51,1.22,17,39.78-7.91,42.16C705.49,482.59,688,485.28,690.46,474.31Z" transform="translate(-369.08 -40.05)"/><path class="cls-20" d="M707.71,480.9a22.87,22.87,0,0,1-10.05.12,19.86,19.86,0,0,1-7.24-3.14c1.82,6.8,15.57,5.11,19,7.88a26.06,26.06,0,0,0,3.55-.61A11,11,0,0,1,707.71,480.9Z" transform="translate(-369.08 -40.05)"/><path class="cls-18" d="M708,484.61c-5.45-6.07-1.44-11.49,5.4-14.91,9.83-4.91,33.93-19.76,3.91-26.1C762.41,448,714.85,482.56,708,484.61Z" transform="translate(-369.08 -40.05)"/><path class="cls-17" d="M727.24,488.45c-30,2-18.61-13.14-16.93-14,19.93-10.09,40.55-26.06,7-30.86,34.73,1.75,22.72,34.12.36,38.77C715.24,482.87,715.09,483.17,727.24,488.45Z" transform="translate(-369.08 -40.05)"/><path class="cls-19" d="M727.24,488.45c-21.86.66-13.32-6.6-8.67-8.91,22.39-11.11,20.37-22.43,17.21-29.14C752.75,477.34,719.56,476.7,727.24,488.45Z" transform="translate(-369.08 -40.05)"/><path class="cls-19" d="M737.44,452.71c41.29,25.52-14,28.1-10.73,35.75,3.93-4.38,36.62,1.18,32.13-16.55C756.72,463.55,739.73,453.89,737.44,452.71Z" transform="translate(-369.08 -40.05)"/><path class="cls-18" d="M737.34,452.74c20.32,17.27-10.63,28.2-10.73,34.73C734,477.65,772.41,472.91,737.34,452.74Z" transform="translate(-369.08 -40.05)"/><path class="cls-17" d="M697.55,465.57c9.83-4.91,39.91-12,19.75-22C722,451.34,711.91,457.62,697.55,465.57Z" transform="translate(-369.08 -40.05)"/><path class="cls-20" d="M727.46,479.31c18.12-11.55,11.48-22.2,8.32-28.91,14.85,23.57-8.71,26-9.68,34.14C726,485.7,723,482.18,727.46,479.31Z" transform="translate(-369.08 -40.05)"/><path class="cls-20" d="M728.52,485.37c-1.51,1-2.28,2-1.81,3.09,3.43-3.82,28.77-.08,32.17-10.85C753,483.9,736.78,484,728.52,485.37Z" transform="translate(-369.08 -40.05)"/><path class="cls-59" d="M615.82,477.05c-8.86,7.64,12.77,8.49,18,10.65,2.32,2.4,7.75,4,19,3.3l-.16-.29c4.83-3.54,42.3-2.72,31.09-13.25Z" transform="translate(-369.08 -40.05)"/><path class="cls-17" d="M663,452.36c4.5,8.18-7.11,26.82-19.69,34.95,10.14,2.1,10.28-1.78,14.62-2.24C697.78,480.85,677,459.78,663,452.36Z" transform="translate(-369.08 -40.05)"/><path class="cls-18" d="M619.76,478.35c-7-.8-3.54-9.71,3.3-13.13,9.83-4.91,38.62-12.64,19.74-22C678.06,444.57,646.46,481.4,619.76,478.35Z" transform="translate(-369.08 -40.05)"/><path class="cls-17" d="M619.76,478.35c-3-.34-4.07-2.16-3.8-4.39.37-3-.34,2.11,9.5-1.71,15.8-6.13,42.43-19.26,17.34-29C678.06,444.57,646.46,481.4,619.76,478.35Z" transform="translate(-369.08 -40.05)"/><path class="cls-19" d="M616,474c.4,2.47,2.59,4.59,12.2.22,20.88-9.49,42-24.65,14.64-30.93,32.52,1.22,17,39.78-7.9,42.16C631,482.24,613.49,484.93,616,474Z" transform="translate(-369.08 -40.05)"/><path class="cls-20" d="M633.21,480.55a22.87,22.87,0,0,1-10.05.12,19.89,19.89,0,0,1-7.23-3.14c1.81,6.8,15.57,5.11,19,7.88a26.06,26.06,0,0,0,3.55-.61A11,11,0,0,1,633.21,480.55Z" transform="translate(-369.08 -40.05)"/><path class="cls-18" d="M633.5,484.26c-5.46-6.08-1.44-11.49,5.4-14.91,9.83-4.91,33.92-19.76,3.9-26.1C687.92,447.65,640.36,482.21,633.5,484.26Z" transform="translate(-369.08 -40.05)"/><path class="cls-17" d="M652.74,488.1c-30,2-18.6-13.14-16.93-14,19.94-10.09,40.56-26.07,7-30.86,34.74,1.75,22.72,34.12.36,38.77C640.75,482.52,640.6,482.82,652.74,488.1Z" transform="translate(-369.08 -40.05)"/><path class="cls-19" d="M652.74,488.1c-21.86.66-13.31-6.6-8.66-8.91,22.39-11.11,20.37-22.43,17.21-29.14C678.26,477,645.06,476.34,652.74,488.1Z" transform="translate(-369.08 -40.05)"/><path class="cls-19" d="M663,452.36c41.28,25.52-14,28.1-10.73,35.75,3.93-4.38,36.61,1.18,32.12-16.55C682.23,463.19,665.23,453.54,663,452.36Z" transform="translate(-369.08 -40.05)"/><path class="cls-18" d="M662.84,452.39c20.32,17.27-10.62,28.2-10.73,34.73C659.46,477.3,697.91,472.56,662.84,452.39Z" transform="translate(-369.08 -40.05)"/><path class="cls-17" d="M623.06,465.22c9.83-4.91,39.91-12,19.74-22C647.46,451,637.42,457.27,623.06,465.22Z" transform="translate(-369.08 -40.05)"/><path class="cls-20" d="M653,479c18.13-11.55,11.49-22.2,8.33-28.91,14.84,23.57-8.71,26-9.69,34.14C651.46,485.35,648.47,481.83,653,479Z" transform="translate(-369.08 -40.05)"/><path class="cls-20" d="M654,485c-1.51,1-2.29,2-1.81,3.09,3.43-3.82,28.76-.08,32.16-10.86C678.55,483.55,662.28,483.6,654,485Z" transform="translate(-369.08 -40.05)"/></g></g></svg>