<svg id="icons" enable-background="new 0 0 64 64" height="512" viewBox="0 0 64 64" width="512" xmlns="http://www.w3.org/2000/svg"><path d="m5.992 29.496h2v13.005h-.001c-.553 0-1 .447-1 1s.447 1 1 1h30.002c.553 0 1-.447 1-1 0-.552-.446-.999-.998-1v-13.005h1.999c.553 0 1-.447 1-1v-3c0-.553-.447-1-1-1h-34.002c-.553 0-1 .447-1 1v3c0 .553.447 1 1 1zm24.008 9.007v1.001h-14v-1.001zm-14 3.001h14v.997h-14zm19.995.997h-3.995v-4.998c0-.553-.447-1-1-1h-16c-.553 0-1 .447-1 1v4.998h-4.008v-13.005h26.003zm-29.003-16.005h32.002v1h-32.002z"/><path d="m13.994 49.498c-1.654 0-3 1.346-3 3s1.346 3 3 3 3-1.346 3-3-1.346-3-3-3zm0 4c-.552 0-1-.448-1-1s.448-1 1-1 1 .448 1 1-.448 1-1 1z"/><path d="m51.996 49.498c-1.654 0-3 1.346-3 3s1.346 3 3 3 3-1.346 3-3-1.346-3-3-3zm0 4c-.552 0-1-.448-1-1s.448-1 1-1 1 .448 1 1-.448 1-1 1z"/><path d="m63.953 41.255c-.017-.065-.028-.131-.058-.19-.007-.014-.005-.029-.013-.043l-6.999-13c-.022-.041-.06-.066-.086-.104-.042-.058-.081-.113-.134-.161-.048-.043-.103-.073-.157-.106-.055-.032-.106-.065-.167-.087-.067-.024-.136-.032-.207-.042-.045-.006-.084-.026-.13-.026h-10.008v-5.996c0-.266-.105-.52-.293-.707s-.441-.293-.707-.293h-9.996c-.002-1.854-.438-3.604-1.193-5.172.622-.719.974-1.629.974-2.604 0-2.206-1.794-4-4-4-.978 0-1.89.353-2.607.975-.059-.028-.114-.056-.172-.083v-1.114c0-1.654-1.346-3-3-3h-4c-1.654 0-3 1.346-3 3v1.112c-.058.026-.114.056-.172.083-.718-.622-1.629-.974-2.606-.974-2.206 0-4 1.794-4 4 0 .975.351 1.884.971 2.603-.756 1.569-1.193 3.32-1.195 5.174h-10c-.553 0-1 .447-1 1v31.004c0 .553.447 1 1 1 .011 0 .019-.006.029-.006h7.057c.479 2.833 2.943 5 5.91 5s5.432-2.167 5.91-5h25.06c.011 0 .019.006.029.006s.019-.006.029-.006h1.063c.479 2.833 2.943 5 5.91 5s5.432-2.167 5.91-5h5.095c.415 0 .771-.253.922-.612.051-.12.079-.252.079-.391v-11c0-.016-.008-.028-.009-.044-.002-.067-.022-.131-.039-.196zm-6.307 9.244h4.355v.999h-4.096c-.057-.344-.144-.678-.259-.999zm-2.241-21.004 6.597 12.252v6.752h-5.545c-1.1-1.225-2.689-2.001-4.461-2.001-2.967 0-5.432 2.167-5.91 5h-.093l.001-22.003zm-42.407-8.995c.006-5.509 4.489-9.99 10-9.99s9.994 4.481 10 9.99zm17.78-9.776c1.103 0 2 .897 2 2 0 .238-.054.465-.132.681-.719-.973-1.577-1.831-2.551-2.549.218-.079.444-.132.683-.132zm-10.778-2.222c0-.552.448-1 1-1h4c.552 0 1 .448 1 1v.403c-.961-.249-1.964-.396-3.002-.396-1.037 0-2.038.146-2.998.395zm-6.778 4.222c0-1.103.897-2 2-2 .238 0 .464.054.68.131-.973.717-1.831 1.575-2.549 2.547-.079-.216-.131-.441-.131-.678zm19.739 9.776c.014.001.025.008.039.008.026 0 .051-.007.077-.008h10.917l-.001 28.998h-24.089c-.479-2.833-2.943-5-5.91-5s-5.432 2.167-5.91 5h-6.086v-28.998zm-18.967 33.998c-2.206 0-4-1.794-4-4s1.794-4 4-4 4 1.794 4 4-1.794 4-4 4zm38.002 0c-2.206 0-4-1.794-4-4s1.794-4 4-4 4 1.794 4 4-1.794 4-4 4z"/><path d="m48.005 40.495h9.997.001c.117 0 .235-.027.352-.071.019-.007.037-.012.056-.02.011-.005.021-.007.032-.012.044-.021.072-.059.111-.086.062-.042.125-.079.176-.134.044-.048.072-.103.105-.157.034-.055.072-.104.096-.166.025-.067.031-.138.042-.209.008-.05.029-.094.029-.146 0-.01-.005-.018-.006-.027-.001-.063-.023-.125-.037-.188-.016-.068-.024-.139-.053-.2-.004-.009-.003-.018-.007-.025l-3.923-8.002c-.024-.051-.066-.084-.099-.129-.038-.053-.069-.108-.117-.153-.058-.055-.124-.091-.192-.129-.042-.025-.079-.055-.125-.073-.088-.034-.179-.046-.272-.055-.032-.003-.06-.019-.092-.019h-.042c-.007 0-.014-.001-.021 0h-3.003c-.004 0-.006-.002-.01-.002s-.006.002-.01.002h-2.989c-.553 0-1 .447-1 1v8c.001.554.448 1.001 1.001 1.001zm5.452-8 2.941 6h-4.395v-6zm-3.453 6h-.999v-6h.999z"/><path d="m49.005 41.492h-1c-.553 0-1 .447-1 1s.447 1 1 1h1c.553 0 1-.447 1-1s-.447-1-1-1z"/><path d="m23.008 35.502c.553 0 1-.447 1-1v-3c0-.553-.447-1-1-1s-1 .447-1 1v3c0 .553.447 1 1 1z"/><path d="m28.002 35.502c.553 0 1-.447 1-1v-.999c0-.553-.447-1-1-1s-1 .447-1 1v.999c0 .553.447 1 1 1z"/><path d="m18.003 35.502c.553 0 1-.447 1-1v-.999c0-.553-.447-1-1-1s-1 .447-1 1v.999c0 .553.447 1 1 1z"/><path d="m23.027 11.494h-.011c-.552 0-.994.447-.994 1s.452 1 1.005 1c.552 0 1-.447 1-1s-.448-1-1-1z"/><path d="m26.03 14.497h-.01c-.552 0-.994.447-.994 1s.452 1 1.005 1c.552 0 1-.447 1-1s-.449-1-1.001-1z"/><path d="m20.03 14.497h-.01c-.552 0-.994.447-.994 1s.452 1 1.005 1c.552 0 1-.447 1-1s-.449-1-1.001-1z"/><path d="m29.033 17.5h-.011c-.552 0-.994.447-.994 1s.452 1 1.005 1c.552 0 1-.447 1-1s-.448-1-1-1z"/><path d="m23.027 17.5h-.011c-.552 0-.994.447-.994 1s.452 1 1.005 1c.552 0 1-.447 1-1s-.448-1-1-1z"/><path d="m17.027 17.5h-.011c-.552 0-.994.447-.994 1s.452 1 1.005 1c.552 0 1-.447 1-1s-.448-1-1-1z"/></svg>